/* XPM */
static char * xmms_icon13_xpm[] = {
"43 43 427 2",
"  	c None",
". 	c #A6A6A6",
"+ 	c #ABABAB",
"@ 	c #A3A3A3",
"# 	c #909090",
"$ 	c #929292",
"% 	c #AAAAAA",
"& 	c #A7A7A7",
"* 	c #8D8D8C",
"= 	c #B2B2B2",
"- 	c #999999",
"; 	c #949494",
"> 	c #A1A1A1",
", 	c #A8A8A8",
"' 	c #B6B6B6",
") 	c #C5C5C5",
"! 	c #BFBFBF",
"~ 	c #B7B7B7",
"{ 	c #A3A3A2",
"] 	c #AEAEAE",
"^ 	c #A2A2A2",
"/ 	c #939393",
"( 	c #9A9A9A",
"_ 	c #A7A7A8",
": 	c #868687",
"< 	c #80807F",
"[ 	c #848482",
"} 	c #888888",
"| 	c #979797",
"1 	c #989898",
"2 	c #919191",
"3 	c #B9B9B9",
"4 	c #A9A9A9",
"5 	c #969696",
"6 	c #AFAFAF",
"7 	c #B2B2B3",
"8 	c #C1C1C1",
"9 	c #D6D6D6",
"0 	c #CBCBCB",
"a 	c #959596",
"b 	c #858584",
"c 	c #C2C2C2",
"d 	c #B5B5B5",
"e 	c #B8B8B8",
"f 	c #949495",
"g 	c #A4A4A4",
"h 	c #9D9D9D",
"i 	c #B4B4B4",
"j 	c #BBBBBB",
"k 	c #9E9E9E",
"l 	c #8F8F8F",
"m 	c #838383",
"n 	c #8C8C8B",
"o 	c #8A8A8B",
"p 	c #909091",
"q 	c #9F9F9F",
"r 	c #C0C0C0",
"s 	c #838384",
"t 	c #7B7B7B",
"u 	c #9B9B9B",
"v 	c #848485",
"w 	c #878788",
"x 	c #8B8B8C",
"y 	c #9A9A9B",
"z 	c #8E8E8E",
"A 	c #959595",
"B 	c #868686",
"C 	c #808080",
"D 	c #8B8B8B",
"E 	c #858585",
"F 	c #89898A",
"G 	c #A5A5A6",
"H 	c #888889",
"I 	c #90908F",
"J 	c #A5A5A5",
"K 	c #C1C1C2",
"L 	c #D4D4D4",
"M 	c #C3C3C4",
"N 	c #868685",
"O 	c #8A8A8A",
"P 	c #9C9C9C",
"Q 	c #A0A0A0",
"R 	c #B6B6B7",
"S 	c #A2A2A1",
"T 	c #878786",
"U 	c #ACACAC",
"V 	c #878787",
"W 	c #838382",
"X 	c #7F7F7F",
"Y 	c #818181",
"Z 	c #D1D1D2",
"` 	c #DFDFDF",
" .	c #C8C8C8",
"..	c #898989",
"+.	c #8E8E8F",
"@.	c #9F9FA0",
"#.	c #CFCFD0",
"$.	c #CFCFCF",
"%.	c #B3B3B3",
"&.	c #8C8C8D",
"*.	c #8A8A89",
"=.	c #7C7C7B",
"-.	c #6F6F6F",
";.	c #777778",
">.	c #707070",
",.	c #6D6D6D",
"'.	c #7D7D7D",
").	c #C4C4C5",
"!.	c #E0E0E0",
"~.	c #E9E9E9",
"{.	c #D8D8D8",
"].	c #9E9E9F",
"^.	c #8D8D8E",
"/.	c #8C8C8C",
"(.	c #C7C7C7",
"_.	c #EBEBEB",
":.	c #DBDBDB",
"<.	c #959594",
"[.	c #828283",
"}.	c #818180",
"|.	c #818182",
"1.	c #797979",
"2.	c #6C6C6C",
"3.	c #727272",
"4.	c #787878",
"5.	c #8B8B8A",
"6.	c #999998",
"7.	c #888886",
"8.	c #777777",
"9.	c #7A7A7A",
"0.	c #646463",
"a.	c #666666",
"b.	c #6E6E6E",
"c.	c #787879",
"d.	c #CDCDCD",
"e.	c #E6E6E6",
"f.	c #ECECEC",
"g.	c #E8E8E8",
"h.	c #E2E2E2",
"i.	c #E7E7E7",
"j.	c #6A6A6A",
"k.	c #626263",
"l.	c #686868",
"m.	c #7C7C7D",
"n.	c #939392",
"o.	c #7F7F7E",
"p.	c #8F8F8E",
"q.	c #B1B1B1",
"r.	c #A2A2A3",
"s.	c #7E7E7F",
"t.	c #606060",
"u.	c #616162",
"v.	c #575757",
"w.	c #D5D5D5",
"x.	c #F1F1F1",
"y.	c #EDEDED",
"z.	c #C7C7C8",
"A.	c #C2C2C3",
"B.	c #979796",
"C.	c #828282",
"D.	c #666667",
"E.	c #656566",
"F.	c #5F5F5F",
"G.	c #5A5A5B",
"H.	c #BCBCBC",
"I.	c #A8A8A7",
"J.	c #C4C4C4",
"K.	c #BABABA",
"L.	c #6A6A6B",
"M.	c #C3C3C3",
"N.	c #626262",
"O.	c #DEDEDE",
"P.	c #8D8D8D",
"Q.	c #696969",
"R.	c #616161",
"S.	c #636363",
"T.	c #69696A",
"U.	c #757575",
"V.	c #707071",
"W.	c #848484",
"X.	c #717171",
"Y.	c #CECECE",
"Z.	c #A8A8A9",
"`.	c #D2D2D2",
" +	c #D0D0D0",
".+	c #585858",
"++	c #6D6D6C",
"@+	c #A6A6A5",
"#+	c #5F5F60",
"$+	c #DADADA",
"%+	c #5D5D5E",
"&+	c #7E7E7E",
"*+	c #8A8A88",
"=+	c #F2F2F2",
"-+	c #EEEEEE",
";+	c #C6C6C6",
">+	c #C7C7C6",
",+	c #5C5C5D",
"'+	c #D7D7D7",
")+	c #EAEAEA",
"!+	c #C9C9C9",
"~+	c #ADADAD",
"{+	c #8F8F90",
"]+	c #DADADB",
"^+	c #D1D1D1",
"/+	c #8E8E8D",
"(+	c #F0F0F0",
"_+	c #A7A7A6",
":+	c #808081",
"<+	c #EFEFEF",
"[+	c #E3E3E3",
"}+	c #D9D9DA",
"|+	c #DDDDDD",
"1+	c #CBCBCC",
"2+	c #D3D3D4",
"3+	c #E4E4E4",
"4+	c #BEBEBE",
"5+	c #F4F4F4",
"6+	c #B0B0B0",
"7+	c #EEEEEF",
"8+	c #DCDCDD",
"9+	c #777776",
"0+	c #CCCCCC",
"a+	c #DBDBDC",
"b+	c #F3F3F3",
"c+	c #CECECF",
"d+	c #CACACA",
"e+	c #E5E5E6",
"f+	c #F0F0F1",
"g+	c #F4F4F5",
"h+	c #737374",
"i+	c #858586",
"j+	c #949493",
"k+	c #A0A09F",
"l+	c #DCDCDC",
"m+	c #E1E1E2",
"n+	c #F1F1F2",
"o+	c #797978",
"p+	c #767676",
"q+	c #A0A0A1",
"r+	c #F5F5F5",
"s+	c #F9F9FA",
"t+	c #F5F5F6",
"u+	c #D2D2D3",
"v+	c #E1E1E1",
"w+	c #ADADAE",
"x+	c #747474",
"y+	c #F6F6F7",
"z+	c #F8F8F9",
"A+	c #F9F9FB",
"B+	c #8B8B8D",
"C+	c #7C7C7C",
"D+	c #F6F6F6",
"E+	c #FAFAFC",
"F+	c #D5D5D6",
"G+	c #F8F8FA",
"H+	c #BDBDBD",
"I+	c #7D7D7C",
"J+	c #ECECED",
"K+	c #D9D9D9",
"L+	c #F7F7F7",
"M+	c #EBEBEC",
"N+	c #EDEDEE",
"O+	c #E5E5E7",
"P+	c #F7F7F8",
"Q+	c #989897",
"R+	c #E8E8EA",
"S+	c #E8E8E9",
"T+	c #F7F7F9",
"U+	c #D3D3D3",
"V+	c #9A9A99",
"W+	c #FAFAFB",
"X+	c #F3F3F4",
"Y+	c #B5B5B6",
"Z+	c #D7D7D8",
"`+	c #9D9D9E",
" @	c #E9E9EA",
".@	c #F2F2F3",
"+@	c #B7B7B8",
"@@	c #F3F3F5",
"#@	c #C8C8C9",
"$@	c #D6D6D7",
"%@	c #E5E5E5",
"&@	c #EDEDEF",
"*@	c #EAEAEC",
"=@	c #EBEBED",
"-@	c #EFEFF0",
";@	c #C5C5C6",
">@	c #F6F6F8",
",@	c #E6E6E7",
"'@	c #BDBDBE",
")@	c #E4E4E5",
"!@	c #E4E4E6",
"~@	c #F5F5F7",
"{@	c #E3E3E4",
"]@	c #D0D0D1",
"^@	c #CCCCCD",
"/@	c #545454",
"(@	c #252526",
"_@	c #70706F",
":@	c #BFBFC0",
"<@	c #4B4B4C",
"[@	c #232325",
"}@	c #BBBBBC",
"|@	c #1F1F21",
"1@	c #1C1C1E",
"2@	c #202021",
"3@	c #252527",
"4@	c #262628",
"5@	c #28282A",
"6@	c #484849",
"7@	c #A4A4A5",
"8@	c #7A7A7C",
"9@	c #1E1E20",
"0@	c #282827",
"a@	c #565655",
"b@	c #C9C9CA",
"c@	c #2C2C2B",
"d@	c #202022",
"e@	c #4D4D4E",
"f@	c #D4D4D5",
"g@	c #B7B7B6",
"h@	c #171716",
"i@	c #1F1F20",
"j@	c #525251",
"k@	c #0A0A0B",
"l@	c #565657",
"m@	c #CACACB",
"n@	c #020204",
"o@	c #131314",
"p@	c #444444",
"q@	c #434343",
"r@	c #121213",
"s@	c #4F4F50",
"t@	c #535354",
"u@	c #08080A",
"v@	c #2E2E2F",
"w@	c #B8B8B9",
"x@	c #646466",
"y@	c #2F2F2E",
"z@	c #4D4D4D",
"A@	c #2A2A29",
"B@	c #575758",
"C@	c #2A2A2B",
"D@	c #060608",
"E@	c #070709",
"F@	c #111112",
"G@	c #3E3E3E",
"H@	c #4F4F4F",
"I@	c #4E4E4E",
"J@	c #4B4B4B",
"K@	c #0C0C0E",
"L@	c #151515",
"M@	c #0F0F11",
"N@	c #333334",
"O@	c #363637",
"P@	c #444445",
"Q@	c #1A1A1B",
"R@	c #555557",
"S@	c #979798",
"T@	c #19191B",
"U@	c #353537",
"V@	c #49494A",
"W@	c #09090B",
"X@	c #343435",
"Y@	c #383839",
"Z@	c #424243",
"`@	c #929293",
" #	c #5E5E60",
".#	c #343434",
"+#	c #141416",
"@#	c #0A0A0C",
"##	c #282828",
"$#	c #353535",
"%#	c #515151",
"&#	c #414142",
"*#	c #BABABB",
"=#	c #171719",
"-#	c #4A4A4B",
";#	c #6E6E6D",
">#	c #1D1D1F",
",#	c #4E4E50",
"'#	c #505052",
")#	c #525253",
"!#	c #3F3F40",
"~#	c #101012",
"{#	c #232324",
"]#	c #5E5E5E",
"^#	c #0C0C0C",
"/#	c #313132",
"(#	c #212122",
"_#	c #272728",
":#	c #3B3B3D",
"<#	c #29292B",
"[#	c #545455",
"}#	c #A9A9AA",
"|#	c #AAAAAB",
"1#	c #898988",
"2#	c #0A0A0A",
"3#	c #151516",
"4#	c #2F2F30",
"5#	c #383838",
"6#	c #333335",
"7#	c #2B2B2B",
"8#	c #686869",
"9#	c #505051",
"0#	c #373738",
"a#	c #373739",
"b#	c #3A3A3B",
"c#	c #3D3D3E",
"d#	c #2D2D2F",
"e#	c #0C0C0D",
"f#	c #3D3D3D",
"g#	c #737373",
"h#	c #E6E6E8",
"i#	c #717172",
"j#	c #DFDFE0",
"k#	c #585859",
"l#	c #575759",
"m#	c #646465",
"n#	c #ECECEE",
"o#	c #C0C0C1",
"p#	c #F1F1F3",
"q#	c #F2F2F4",
"r#	c #E7E7E8",
"s#	c #F4F4F6",
"t#	c #E2E2E3",
". + @ # $ % & * + = - ; > , ' ) ! ~ { ] = ^ / > . ( _ : < [ } # @ ( % | 1 ; 2 - & 3 4 ",
"& + , 5 1 6 & ( ] 7 # | 4 , 8 9 0 a b 3 c d & 6 ' e % + f | g h i j ] 6 d + ( - @ ~ i ",
"/ k l b m ; b n h o p $ # q e 0 r s t . ] % @ . g 4 @ u v w 2 x y 6 ~ > ( - 2 z $ ( A ",
"z u | B C D E ; q F G H I J K L M N O - P g Q , , R = S # O T O 5 U r c g 5 $ 5 A 1 ; ",
"z | V W X W D k ; a % Y A i Z `  .V 1 ..z $ +.@.g #.$.e . 1 } : D ] %.] q s m - u A &.",
"*.5 =.-.;.>.,.m X J + '.q ).!.~.{.* ].| ^.$ /.A P (._.:.8 = <.[.}.|.1.2.>.3.4.5.6.( '.",
"7.( J /.8.9.0.a.b.c.B '., d.e.f.g.@ - ] z ; / o h ~ h.i.r 1 t j.8.k.l.m.q 4 % n.h @ o.",
"p.q.j r.s.$ A 8.t.u.v.8.q.w.~.x.y.z.<.A.B.5.A n - Q h C.2.D.E.F.G.,.D.4.B @ H.e I.! # ",
"$ J.K.z L.: = %.M.- a.N.<.L O.~.f.h.P.$.j P.A C Q.R.S.T.U.3.V./ % Q.W - Q W.X.@ e Y.Z.",
"n.`.J.A 5 :.f. +e.i .+.+++_ 8 !.f.y.% K.{.@+# X.#+,.4 $ 1.> $+!.Q %+[.&+K.!.5 8.% 9 8 ",
"*+$.Y.8 d.=+-+;+>+Y ,+Y C.v % '+_.)+!+~+!.!+<.}.Q B ^ {+c ]+^+6 >.D.A /+^+(+:._+H.O.(.",
":+8 0 !+$+x.y.j h X l.u U P.$ (.~.<+[+d L '+I.b @ i j }+-+9 = n.l.t g g )+x.O.|+$.w.J.",
"v 6 1+2+w.|+3+!+@ | V 4 %.& q 4+i.5+=+|+0 Y.H./ $ J.Y.0 :.0 6+( C 5 , %.!.i.[+7+~.8+H.",
"9+( H.0+M.4+a+{.~+, . U ] ] q.M.i.5+5+b+!.;+! d k  .c+0+$.d+d+(.c 0 d.|+e+f+g+<+h.d.' ",
"h+i+V j+k+! g.y.l+! 6 q.d d %.H.|+5+5+5+i.0+c ! ' c+'+l+:.m+n+b+<+f.h.g.[+8+0 d ~+h j ",
"z p o+p+&+# q+M.<+!.M.e e e i d Z b+r+s+t+` !+M.(.u+|+v+h.x.r+x.:.! q., 6+w+J q h ; ! ",
"k % U.x+X.-...{.b+x.!.) j e 6 = d+b+5+y+z+-+:.d.0+d.$+'+=+y+A+` ] B+l ; ( > Q g ( J (.",
"> i C+b =.< %.!.b+5+~.;+e i %.U M.b+D+E+E+E+y+$+2+F+v+t+E+z+z+A+G+v+g 2 P A @ , 5.{ q ",
"i H+o.I+9.6+:.J+r+x.K+! ' d 6+u |+5+E+E+E+E+E+L+_.7+D+E+E+E+E+E+E+E+M+U 2 l | h W.% . ",
"_.1+}.x+- v+t+A+A+g. .r H.~ ] & )+y+E+E+E+E+E+E+E+E+E+E+A+A+E+E+E+E+A+i.+ n ; # / d J ",
"N+O+/.1.= 7+A+E+P+l+J.H+! ~ Q+! <+E+E+E+E+E+E+E+E+E+E+A+y+L+E+E+E+E+E+G+8+@ $ z - U k ",
"x.R+; ..! S+A+T+5+e.U+J.c I.V+|+b+P+E+E+E+E+E+E+E+E+W+P+P+G+E+E+E+E+E+E+X+) ; @ d Y.~+",
"` J+Q z 4+l+y+z+T+X+)+K+Y+..K.-+P+z+E+E+E+E+E+E+E+E+E+G+E+E+E+z+y+y+E+E+A+Z+. M. +K+`+",
"~+A.. . H.;+ @A+E+E+z+.@;+'.e (+A+E+E+E+E+E+E+E+E+E+E+E+E+G+D+r+5+5+E+E+s+'++@`.'+Y.p ",
"^. .[+Y.3 8 $.g+E+E+E+z+y.0 4 v+A+E+E+E+E+E+E+E+E+E+E+E+E+W+s+s+t+G+E+E+@@L #@Z+$@{.~ ",
"k H+`.M+;+K.e |+G+E+E+z+5+=+3+<+A+E+E+E+E+E+E+E+E+E+E+E+E+E+E+E+W+E+E+A+~.d.0+^+2+2+4+",
"~+= i '+O.! 3 i %@A+E+E+E+E+W+G+E+E+E+E+E+E+E+E+E+E+E+E+E+E+E+E+E+E+E+&@0 0+0+0 ) c d ",
"+ q.J ] 0+d.e ~+! (+E+E+E+E+P+3+m+R+*@=@=@@@A+E+E+E+E+E+E+E+E+E+E+s+-@(.M.0+d+;@K.' + ",
", %.J & J K.~ + 6+K+>@E+E+E+E+$@] 3 r (.d.,@G+E+E+E+E+E+E+E+E+E+G+~.0+J.Y.0+d.d+M.! 4 ",
"] e . g ^ U '@K.e c )@P+s+E+E+E+-@!@e+J+~@E+E+E+E+E+E+E+E+E+E+y+)@$.8 d.$.0+ .!+Y.0+= ",
"M U+;+c H+Y.O.v+`.8 0 i.b+s+E+E+E+E+E+E+E+E+E+E+E+E+E+E+E+E+g+` !+(.!+ + +c+d+d.u+2+~ ",
"^+{@{. + .{.e.f.3+{.).d.y.P+E+E+E+E+E+E+E+E+E+E+E+E+E+E+s+N+Z+ .J. .]@2+u+#.^+u+2+2+~ ",
"Y.l+u+ .) $+~.i.` v+d+e w.t+E+E+E+E+E+E+E+E+E+E+E+E+E+A+~.^@;+J.J.0 u+Y.d.$.2+2+2+2+~ ",
"j /@(@_@Y.:@<@[@- }@|@1@2@3@4@4@4@5@6@7@E+E+8@4@4@4@4@4@[@9@0@a@%.0+b@b c@d@d@d@d@e@+ ",
"f@g@h@i@t j@k@l@m@Y+n@o@p@q@r@n@s@t@u@v@w@E+x@n@y@z@A@n@|@B@C@D@/@J.5 E@F@G@H@I@J@-.] ",
":.[+P.K@L@M@5@:@2+Y+n@N@H.J.O@n@ +M+P@Q@a E+x@n@,.+ a.n@R@E+S@T@N@~ V n@U@M.d+(.d+'+e ",
" +|+U V@n@W@S@`.2+Y+n@X@'@z.Y@n@~+L Z@Q@`@-@ #n@t@- l.n@R@G+S@Q@.#%.P +#@###$#Y@%#| %.",
"u+K+g &#n@o@V 0 c+*#n@Y@3 H+Y@n@q+k O@=#m.8 -#n@.+g ;#n@R@t+1 >#.#e (.c.,#'#)#!#~#{#k ",
"d.;+]#^#/#(#_#a m@d+n@:#H.*#Y@n@, u <#r@a.% P@n@F.q.8.n@[#D+h i@.#e H.}#|#6 d 1#(#2## ",
") p 3#4#Q+j.~#5#0+f@n@:#J.j 6#n@, + 7#~#u.J Z@n@8#j O n@9#f+].i@0#3 A a#Y@b#c#d#e#f#& ",
"!+l 8#$ d+%.g#-.;@h#i#2 j#Z V i#H.j -.k#s , g#l#^.L ! i#1 -+m@[./ $.4 v.,+R.R.m#3.Z.r ",
"v+` L $.d.]@^+{@-@T+R+n#P+N+` ,@!.9 J.j r ) 4+o#M p#q#r# @T+s#*@&@@@g.w.$@{.:.t#v+7+$+",
" +{.r 3 ~ M.0+]@^+^+^+^+^+ +0 $.$.Y.d.d+)  .0+d.0+]@^+^+ +^+^+^+^+^+ +$.$.$. +^+ +]@Y."};
