/* XPM */
static char *xmms-liknockzr7[] = {
/* columns rows colors chars-per-pixel */
"43 43 203 2",
"   c #000000",
".  c #0B0900",
"X  c #150000",
"o  c #100D00",
"O  c #1A0000",
"+  c #141400",
"@  c #1B1B00",
"#  c #220100",
"$  c #240900",
"%  c #2A0000",
"&  c #2B1B00",
"*  c #350000",
"=  c #3A0000",
"-  c #212200",
";  c #282600",
":  c #2E2D00",
">  c #353300",
",  c #393600",
"<  c #3C3C00",
"1  c #400300",
"2  c #461E01",
"3  c #560000",
"4  c #5C0000",
"5  c #531D00",
"6  c #660000",
"7  c #6B0000",
"8  c #740000",
"9  c #444200",
"0  c #494500",
"q  c #484800",
"w  c #774300",
"e  c #724A00",
"r  c #7C5200",
"t  c #7A5A00",
"y  c #646000",
"u  c #737100",
"i  c #787400",
"p  c #800000",
"a  c #8B0300",
"s  c #940000",
"d  c #930900",
"f  c #9A0000",
"g  c #A30000",
"h  c #AC0100",
"j  c #AE0B00",
"k  c #A81B00",
"l  c #B30000",
"z  c #BC0100",
"x  c #BC0C00",
"c  c #B41400",
"v  c #B41B00",
"b  c #BB1600",
"n  c #BE1C01",
"m  c #AA2700",
"M  c #B72700",
"N  c #B42D00",
"B  c #BA2B00",
"V  c #806500",
"C  c #8E6E00",
"Z  c #8B7E00",
"A  c #936F00",
"S  c #917300",
"D  c #BD4300",
"F  c #A47A00",
"G  c #C30000",
"H  c #C40A00",
"J  c #CB0100",
"K  c #CA0F00",
"L  c #CD1100",
"P  c #C81A00",
"I  c #D30000",
"U  c #D60C00",
"Y  c #DC0000",
"T  c #DA0900",
"R  c #D61000",
"E  c #D71900",
"W  c #DD1300",
"Q  c #DB1900",
"!  c #C62400",
"~  c #C92500",
"^  c #C73100",
"/  c #C73A00",
"(  c #D72900",
")  c #D13900",
"_  c #E30100",
"`  c #E60C00",
"'  c #E90100",
"]  c #E80900",
"[  c #E21000",
"{  c #E71E00",
"}  c #EA1600",
"|  c #EE1A00",
" . c #E12300",
".. c #E52C00",
"X. c #ED2400",
"o. c #EA2C00",
"O. c #E53600",
"+. c #E53D00",
"@. c #EA3300",
"#. c #EC3C01",
"$. c #F22A00",
"%. c #C54A00",
"&. c #CB4E00",
"*. c #C45400",
"=. c #CD5900",
"-. c #D24500",
";. c #D64D02",
":. c #DD4C00",
">. c #D05600",
",. c #D75800",
"<. c #DA5500",
"1. c #DC5F00",
"2. c #CD6900",
"3. c #DF7600",
"4. c #DE7D00",
"5. c #E34700",
"6. c #EC5C00",
"7. c #F24100",
"8. c #F44900",
"9. c #F35301",
"0. c #F35B00",
"q. c #FD5300",
"w. c #FE5D00",
"e. c #E26200",
"r. c #E46D00",
"t. c #E96B00",
"y. c #E47500",
"u. c #F46300",
"i. c #F16801",
"p. c #FE6600",
"a. c #FE6C01",
"s. c #F27C00",
"d. c #FE7300",
"f. c #FE7B00",
"g. c #9B8F00",
"h. c #9F9100",
"j. c #A78F00",
"k. c #A19200",
"l. c #A49E00",
"z. c #AC9E00",
"x. c #A2A300",
"c. c #ACA100",
"v. c #B3A700",
"b. c #B4AB00",
"n. c #BCA200",
"m. c #B8AF00",
"M. c #B6B200",
"N. c #BCB400",
"B. c #BCBA00",
"V. c #CC8500",
"C. c #C99F00",
"Z. c #D48400",
"A. c #D48F01",
"S. c #D29000",
"D. c #D3BE00",
"F. c #DFB200",
"G. c #E48300",
"H. c #EB8200",
"J. c #EC8900",
"K. c #EA9400",
"L. c #EF9901",
"P. c #F18600",
"I. c #F38800",
"U. c #FE8300",
"Y. c #FE8B00",
"T. c #F29400",
"R. c #F29D00",
"E. c #FE9300",
"W. c #FE9C00",
"Q. c #E4A900",
"!. c #EFA400",
"~. c #E9AF00",
"^. c #E0B300",
"/. c #F3A100",
"(. c #F1A900",
"). c #FEA300",
"_. c #FEAB00",
"`. c #F5B700",
"'. c #FEB400",
"]. c #FEBB00",
"[. c #C3C200",
"{. c #E3CF00",
"}. c #E5D300",
"|. c #EBD700",
" X c #EFDC00",
".X c #FEC400",
"XX c #FECB00",
"oX c #F1D100",
"OX c #FED400",
"+X c #FEDC00",
"@X c #E5E200",
"#X c #EDE700",
"$X c #FEE400",
"%X c #FEEC00",
"&X c #F3F100",
"*X c #FEF300",
"=X c #FEFC00",
"-X c #FFF1DF",
";X c #F7E7E7",
":X c #FEEFE5",
">X c #FEF2E6",
",X c #FFF1E8",
"<X c #FFFDFC",
/* pixels */
"<X>X,X,X,X,X,X,X,X,X,X,X>X>X,X,X>X:X-X-X>X:X-X-X-X-X>X>X>X>X>X;X;X;X,X,X,X,X,X,X,X,X<X",
":Xp.a.p.p.p.p.p.p.p.a.d.f.f.U.U.Y.Y.E.E.E.E.E.E.E.E.Y.U.d.p.w.n g l 9.p.p.p.p.p.p.p.,X",
",Xp.a.a.a.a.d.a.d.d.f.U.U.E.E.W.W.).)._._._._.)._.).W.Y.d.U.;.g l z 7.p.p.a.a.a.a.p.,X",
",Xp.a.a.a.a.a.d.f.f.U.Y.E.W.).)._.'.'.'.'.].].].'.'.).E.Y.H.v h z G ( p.a.a.d.a.a.p.,X",
">Xp.a.a.a.a.d.f.U.U.E.W.)._.'.'.].]..XXXXXXX.XXX.X]._.E.).>.g l z J Q a.d.d.a.a.a.a.,X",
">Xp.a.a.d.d.d.U.Y.E.W.)._.'.].XXXXOXOX+X+X+X+X+XOX.X_.'.K.j l G J I @.f.f.f.d.a.a.p.,X",
">Xp.a.a.d.d.U.Y.E.W.)._.].].XXOX+X$X$X$X$X%X%X%X+XXX'.].%.h z G I W d.U.U.f.f.a.a.a.,X",
">Xp.a.d.f.U.Y.E.W.)._.'.].XXOX+X%X%X%X=X*X*X*X%X+X].+XQ.h z G J I u.Y.Y.E.Y.U.d.d.p.,X",
":Xp.d.d.f.Y.E.W.).).).,.v K.OX$X%X=X=X=X=X=X=X%X+XXX+XM l G J I #.W.W.).W.E.Y.f.f.a.,X",
"-Xp.d.f.U.E.W.).W.).I.l l l G.%X%X=X=X=X=X=X*X$XXX$XZ.h z G I I T._._._._.W.Y.U.f.a.,X",
">Xp.f.U.Y.W.).).W.'.H.z H z x /.%X=X=X=X=X=X%XXXXXoXj z G J I u.'.'..X.X'.).W.Y.U.a.,X",
">Xd.f.U.E.)._._.).].e.J J G G ~ `.%X%X*X%X%X+X].%X*.h z J I ( _.XXXXOX.X]._.).E.U.f.,X",
":Xd.U.Y.W._.'.'._.XXr.I I I J G ) .X+X%X+X+X].XXQ.j l G J I s.OXOX+X+XOX.X'._.W.E.f.,X",
">Xd.U.E.).'.].]._.OXOX..Y Y I I G <.XXXXXX'._.XXN h z G J +..XOX%X%X%X+XOX]._.W.Y.U.,X",
">Xf.Y.W.).]..X.X]..X=X'.} _ Y I J z 1.]._.W..X2.g h z J U I.OX+X*X*X%X$XOX.X'._.W.Y.,X",
":Xf.E.W._.].XXOXOX].+X=XI.] _ Y J G x r.W.).L.k g z G J 5.XXOX%X=X=X*X%X+XXX]._.W.Y.,X",
",XU.E.)._..XXX+X+XoXXX%X%X0._ _ I J z c H._.D s h z G E )..X+X*X=X=X&X%X$XOX].'.).Y.,X",
",XU.W.).]..X+X$X%X$XXXXX%X+X7._ Y J G g B =.d f l G J 6.'..X$X*X=X=X=X*X$XOX.X'.).E.,X",
",XU.W.).'.XX%X*X=X=X*X+X+X%X].X.Y I J G h s s l G I E W._.OX$X=X=X=X=X*X%X+X.X'._.E.,X",
",XU.W._..XF.n.z.x.M.M.j.F F.+XE.` I g 8 6 3 6 8 8 s i.W.'.OX*X@Xb.x.B.=X%X+XXX'._.W.,X",
",XU.W.(.XXV   ; 0   . 9 - & C..Xp.J O   % O   O * . w T.].+X}.0 @ 9   y  X+XXX'._.E.,X",
",XY.W.).XXS   m.=X< ; =XN.  e ].'.5.# O l 7   6 ` 5 . V..X%XZ   B.=X[.i }.+XXX]._.E.,X",
",XU.W.)..XC   g.&X: @ #Xv.  t _.'.I.$ O s 4   3 K 2 o A.XX+X}.9 + < u =X*X+XXX]._.E.,X",
",XY.W.).XXC   k.*X: @ &Xm.  t _.].T.$ O f 4   3 J = . S.XX+X*X&XB.x.+ , {.+X.X'._.E.,X",
",XU.W.)..XC   h.*X: @ &XM.  t _..Xt.O O f 4   3 J = . S.XX%Xc.@ M.=Xq o [.+X.X'._.E.,X",
",XU.E.R.].A   k.%X> - &XM.  t ]..XL # O s 4   4 J = X &.XX X*Xi . + + N.+XXX.X'.W.E.,X",
",XU.Y.)._.].XX+X%X*X=X=X*X$X].+Xi.J z h s a d l z I Y ] U.+X%X=X=X&X*X%X+XXX]._.W.Y.,X",
",Xf.Y.W._.'.XX+X%X%X=X=X%XXXXXXXR J z h a *.>.g z J Y _ { _.%X*X=X=X%X$X+XXX'.).W.Y.,X",
",Xd.Y.E.).'.].OX+X%X*X%X+X.X%X5.J G z g m L._./ l J I _ ' $..X%X%X*X%X+XXX.X_.W.E.U.,X",
",Xd.U.Y.W._.]..X+X+X%X+X.X%X/.T J G l g 4.%XoX`.! G I Y _ ' 8.+X%X%X+X+X.X]._.W.Y.U.,X",
">Xa.f.Y.E.).'.].XXOX+XXX.X+X+.I J z h D $X+X$X%X(.H J I _ _ _ 0.OX+XOXXX]._.W.E.Y.f.,X",
">Xp.f.U.E.W.).'..XXX.X'.+XP.Y I J z c ~.XX.XXX$X*XK.G J I Y Y [ (.+XXX.X'._.W.Y.U.a.,X",
">Xp.d.f.U.E.W._.'.]._.].'.{ Y I G l =.+XXX+XOXXX%X*Xy.G J I I R ).XX].'._.W.Y.U.f.d.,X",
">Xp.a.f.f.Y.E.).).).W.].6.Y Y J z P .XXX%X%X%XOXXX%X$X<.G H G :._.].'._.).E.Y.f.d.p.,X",
",Xp.a.d.f.U.Y.E.E.Y.).Y.' Y I G z Z..XOX%X%X%X+XXX.X+X+Xy.~ <.W._._._.).E.Y.f.f.d.p.,X",
">Xp.a.a.d.f.U.U.U.U.E.@.Y I J G ^ '..X+X$X%X%X+XOX].'..X].'.).W.).).).E.Y.U.f.d.a.p.,X",
">Xp.d.p.d.d.d.f.d.U.d.Y Y I G z J._..XOX+X+X+X+XXX.X'.).W.E.W.).W.W.E.Y.U.d.d.a.d.p.,X",
",Xp.a.a.a.a.d.p.p.d.o.I J J z -.E._.'..XXXXXXXXX.X].]._.).).W.W.E.E.Y.U.f.d.a.a.a.p.,X",
",Xp.d.a.a.a.p.p.p.p.W I J G b s.E.W.'.'.'.].].'.].'._._.).W.W.E.Y.U.U.d.d.a.a.a.a.p.,X",
",Xp.a.a.a.a.p.p.q.a.O.G H l :.f.Y.W.)._._._._._._.).).W.W.E.Y.U.U.f.d.d.a.a.a.a.a.p.,X",
",Xp.d.a.a.a.p.w.q.a.9.z l n u.f.Y.E.E.W.W.W.W.W.W.E.E.E.Y.Y.U.f.f.d.a.a.a.a.a.a.d.a.,X",
",Xp.a.p.p.p.p.w.q.q.w.( P 9.w.a.f.U.U.U.U.Y.Y.Y.U.U.U.f.f.f.a.a.p.a.p.a.p.p.p.p.p.p.,X",
"<X,X,X,X,X,X,X,X,X,X,X:X,X,X,X,X,X,X,X,X,X,X,X,X,X,X,X,X,X,X,X,X,X,X,X,X,X,X,X,X,X,X<X"
};
