/* XPM */
static char * xmms_icon9_xpm[] = {
"43 43 297 2",
"  	c None",
". 	c #9D9D9D",
"+ 	c #A8A8A8",
"@ 	c #9B9B9B",
"# 	c #A6A6A6",
"$ 	c #8D8D8D",
"% 	c #7D7D7D",
"& 	c #7F7F7F",
"* 	c #7C7C7C",
"= 	c #767676",
"- 	c #727272",
"; 	c #888888",
"> 	c #9E9E9E",
", 	c #8B8B8B",
"' 	c #7E7E7E",
") 	c #828282",
"! 	c #717171",
"~ 	c #989898",
"{ 	c #9F9F9F",
"] 	c #8C8C8C",
"^ 	c #818181",
"/ 	c #ACACAC",
"( 	c #ADADAD",
"_ 	c #868686",
": 	c #858585",
"< 	c #777777",
"[ 	c #797979",
"} 	c #999999",
"| 	c #878787",
"1 	c #5B5B5B",
"2 	c #696969",
"3 	c #6E6E6E",
"4 	c #5F5F5F",
"5 	c #979797",
"6 	c #919191",
"7 	c #4F4F4F",
"8 	c #393939",
"9 	c #5D5D5D",
"0 	c #787878",
"a 	c #7B7B7B",
"b 	c #8A8A8A",
"c 	c #909090",
"d 	c #838383",
"e 	c #939393",
"f 	c #A3A3A3",
"g 	c #949494",
"h 	c #898989",
"i 	c #646464",
"j 	c #4E4E4E",
"k 	c #555555",
"l 	c #565555",
"m 	c #3B3A3A",
"n 	c #434343",
"o 	c #494848",
"p 	c #494949",
"q 	c #424141",
"r 	c #313131",
"s 	c #656565",
"t 	c #6C6B6B",
"u 	c #585757",
"v 	c #706F6F",
"w 	c #A19F9F",
"x 	c #B2B0B0",
"y 	c #565656",
"z 	c #747474",
"A 	c #959595",
"B 	c #504F4F",
"C 	c #747272",
"D 	c #838181",
"E 	c #8E8D8D",
"F 	c #9D9C9C",
"G 	c #ACAAAA",
"H 	c #B7B5B5",
"I 	c #6B6A6A",
"J 	c #727171",
"K 	c #8A8989",
"L 	c #ABAAAA",
"M 	c #747373",
"N 	c #6C6C6C",
"O 	c #757575",
"P 	c #6F6F6F",
"Q 	c #9D9B9B",
"R 	c #6A6A6A",
"S 	c #636363",
"T 	c #B6B4B4",
"U 	c #A7A6A6",
"V 	c #7A7A7A",
"W 	c #848484",
"X 	c #676767",
"Y 	c #929292",
"Z 	c #8F8F8F",
"` 	c #9F9E9E",
" .	c #474747",
"..	c #8B8A8A",
"+.	c #B1AFAF",
"@.	c #A5A4A4",
"#.	c #B0AEAE",
"$.	c #969494",
"%.	c #9A9A9A",
"&.	c #6F6E6E",
"*.	c #908F8F",
"=.	c #B3B1B1",
"-.	c #A1A0A0",
";.	c #B4B2B2",
">.	c #7D7C7C",
",.	c #737373",
"'.	c #8E8E8E",
").	c #6D6D6D",
"!.	c #A8A7A7",
"~.	c #898787",
"{.	c #525151",
"].	c #3F3E3E",
"^.	c #AFADAD",
"/.	c #7B7A7A",
"(.	c #9B9A9A",
"_.	c #737272",
":.	c #585858",
"<.	c #686868",
"[.	c #2F2F2F",
"}.	c #B5B3B3",
"|.	c #848282",
"1.	c #868585",
"2.	c #807F7F",
"3.	c #9C9C9C",
"4.	c #5D5C5C",
"5.	c #7A7979",
"6.	c #B6B5B5",
"7.	c #AFAEAE",
"8.	c #7C7B7B",
"9.	c #818080",
"0.	c #545353",
"a.	c #ADABAB",
"b.	c #A2A2A2",
"c.	c #626161",
"d.	c #484848",
"e.	c #626262",
"f.	c #929191",
"g.	c #AEACAC",
"h.	c #6D6C6C",
"i.	c #5A5A5A",
"j.	c #B4B4B4",
"k.	c #8E8C8C",
"l.	c #787676",
"m.	c #5E5E5E",
"n.	c #888787",
"o.	c #666565",
"p.	c #A4A4A4",
"q.	c #B1B1B1",
"r.	c #838282",
"s.	c #817F7F",
"t.	c #3B3B3B",
"u.	c #828181",
"v.	c #636262",
"w.	c #5B5A5A",
"x.	c #A5A5A5",
"y.	c #A7A7A7",
"z.	c #8D8B8B",
"A.	c #8F8D8D",
"B.	c #A1A1A1",
"C.	c #595959",
"D.	c #A6A5A5",
"E.	c #969696",
"F.	c #999898",
"G.	c #9C9B9B",
"H.	c #9E9D9D",
"I.	c #ABA9A9",
"J.	c #B5B5B5",
"K.	c #A0A0A0",
"L.	c #2A2929",
"M.	c #A4A3A3",
"N.	c #A9A8A8",
"O.	c #8C8B8B",
"P.	c #959494",
"Q.	c #666666",
"R.	c #757474",
"S.	c #545454",
"T.	c #808080",
"U.	c #AAAAAA",
"V.	c #ABABAB",
"W.	c #262626",
"X.	c #777676",
"Y.	c #898888",
"Z.	c #A5A3A3",
"`.	c #B3B2B2",
" +	c #A3A1A1",
".+	c #A09F9F",
"++	c #3D3C3C",
"@+	c #B0AFAF",
"#+	c #4A4A4A",
"$+	c #595858",
"%+	c #848383",
"&+	c #464646",
"*+	c #333333",
"=+	c #606060",
"-+	c #949393",
";+	c #ACABAB",
">+	c #AAA9A9",
",+	c #767575",
"'+	c #646262",
")+	c #A09E9E",
"!+	c #989797",
"~+	c #999797",
"{+	c #9B9999",
"]+	c #8D8C8C",
"^+	c #ADACAC",
"/+	c #757373",
"(+	c #828080",
"_+	c #5F5D5D",
":+	c #3C3C3C",
"<+	c #222222",
"[+	c #707070",
"}+	c #767474",
"|+	c #4E4D4D",
"1+	c #7F7E7E",
"2+	c #424242",
"3+	c #3F3F3F",
"4+	c #6E6D6D",
"5+	c #4B4A4A",
"6+	c #333232",
"7+	c #575656",
"8+	c #A2A0A0",
"9+	c #858484",
"0+	c #717070",
"a+	c #919090",
"b+	c #3A3939",
"c+	c #878686",
"d+	c #8C8A8A",
"e+	c #2C2B2B",
"f+	c #5C5C5C",
"g+	c #A3A2A2",
"h+	c #A9A7A7",
"i+	c #7B7979",
"j+	c #2C2C2C",
"k+	c #4B4B4B",
"l+	c #535353",
"m+	c #515151",
"n+	c #5E5D5D",
"o+	c #3E3E3E",
"p+	c #0E0E0E",
"q+	c #202020",
"r+	c #282828",
"s+	c #0F0F0F",
"t+	c #171717",
"u+	c #121212",
"v+	c #131313",
"w+	c #212121",
"x+	c #605F5F",
"y+	c #A4A2A2",
"z+	c #272727",
"A+	c #9F9D9D",
"B+	c #242323",
"C+	c #161616",
"D+	c #101010",
"E+	c #616161",
"F+	c #080808",
"G+	c #090909",
"H+	c #2E2E2E",
"I+	c #505050",
"J+	c #454444",
"K+	c #191919",
"L+	c #6A6969",
"M+	c #363636",
"N+	c #070707",
"O+	c #252525",
"P+	c #383838",
"Q+	c #111111",
"R+	c #404040",
"S+	c #1E1E1E",
"T+	c #1A1A1A",
"U+	c #979696",
"V+	c #5A5959",
"W+	c #0C0C0C",
"X+	c #4D4D4D",
"Y+	c #1F1F1F",
"Z+	c #151515",
"`+	c #1B1B1B",
" @	c #0B0B0B",
".@	c #0A0A0A",
"+@	c #2E2D2D",
"@@	c #7D7B7B",
"#@	c #9C9A9A",
"$@	c #141414",
"%@	c #292929",
"&@	c #353535",
"*@	c #A9A9A9",
"=@	c #1D1D1D",
"-@	c #2D2D2D",
";@	c #575757",
">@	c #232323",
",@	c #2B2B2B",
"'@	c #2A2A2A",
")@	c #242424",
"!@	c #414141",
"~@	c #303030",
"{@	c #343434",
"]@	c #3A3A3A",
"^@	c #232222",
". . + @ # $ % & % & * = - ; > , & ' ) ! ; ~ { ] ^ , / ( $ _ ] : < & [ } | 1 2 3 4 * 5 ",
", $ ] [ 6 - 7 8 9 2 * 0 ' _ a ^ ; b a ] c _ & d , e f } g h & i j k l j m n o p q r ^ ",
"c c a s t u v w x y z , ] * 0 ; d < % e , : ) ! ] A e ^ h $ z B C D E F G H H H H I 0 ",
"$ d J v K H H H H L M 5 $ ^ [ ' , ) , % N = $ g e c d O ] ^ P Q H H H H H H H H H H R ",
") S E H H H H T H H U V W $ | % $ 6 $ O X a Y ~ Z ; V ; A ) ` H H H H H H H H H H H - ",
" ...+.@.#.H H T H H $.7 W A 5 : c 6 Z h ] e ; 2 ' _ Z %.z &.H H H H H H H H H H H t % ",
"*.=.` -.;.H H H H H G >.,.e e ; , , _ %.%.| & * d '.@ = >.F H T T T T T T H H H ` ).Z ",
"!.F > ;.H H H H H H H ~.{.a ) 6 b h . ~ a ,.% ] '.5 V ].^.H H T T T T T T T H H /.| 5 ",
"(.!.;.H H H H H H H H ;._.:.Z %.%.%.% ! & , 6 e 6 <.[.^.H H H H T T T T T H }.|.' e . ",
"1.H H H H H H H H H H H H 2.E %.A h P < d W 3._ 4.5.H H H T T T T 6.H T H 7.8.! , $ $ ",
"N Q H H T H H H H H H H H H 9.% N _ , e , < < 0.w H H H T T T T H H H H a._.i h h : b.",
"e c.H H H H H H H H H H H H &.d.e.b g Y R 0.f.H H H H T T T T T H H H g.h.i., | ] 5 j.",
"6 ^ k.H H H H H H H H H H H H l.7 = 2 m.v n.H H H T T T T T T T H H x o.y ; 3.~ . p.q.",
") & 1 r.H H T H H H H H H T H H s.t.r.u.H H H T T ;.}.T H T T T H H v.y Y 6 Y 5 { / b.",
", | % >.H H T T H H H H H T T H H |.H H H T T T =.;.T H H H T H H w.m._ x.@ '.Z 6 y.@ ",
"; % } * z.H H T H H }.#.^.g.g.^.^.^.^.#.}.T T x ;.T H T H T H H A.S B.A { . Y A W 5 { ",
"_ '.Y ] C.~.H =.D.E.F.G.G.G.G.G.F F F } g ~ H.I.}.H H H H H H 4 9 W J.K.@ 5 e . B.%.Z ",
", f e & d 8 L.: M.+.}.}.}.}.}.}.}.T T T x N.@.(.(.` ;.}.H x <.m.'.A '.Z . e c E.f # . ",
"h ; ; ' a 1 O.;.H H T T T T T T T T H H H H H T x . P.F H._.Q.E.= '.%.Y ^ , { q.$ ~ @ ",
"i - I 1 k K T H H H T T T T T T T T T H H H H }.H H g.R.S.).| b T.b Z c } @ U.V.. @ Z ",
"W.j X.u.-.B.M.I.L 7.7.^.#.;.T T T T T T H H H }...Y.K y | A g '.e ) < ) 5 K.f K.B.A , ",
"0.Z.`.#.a.!.-. +.+M.M.M.D.+.T T T T T T T H H H s.++Q.[ '.} E.E.Y ; - z ^ Z 3.{ K.E.g ",
"t T T T T T }.=.@+7.7.7.+.;.T T T T H H H H H H H u.#+2 b c A p.5 [ - ,.,.: { 3.K.p.g ",
"$+T }.;.T T T T H H H H H T T T T T H H H H H T H T %+&+d W : @ E.) '.* z ] , W g } Y ",
"++#.T T T T T H T T T T H H H T T H H H H H H H H H ;.2.*+=+: & % Y K.; 6 | ' T.] ) T.",
"r ) -+-.;+=.T T T ^.;.T H H H H }.T H H H H H H H H H ;.>+,+#+O c Y % 6 A ] g 6 ; & b ",
"'+,+#.@.)+~ !+!+~+.+x ;.g.{+]+^+H }.H H H H H H H H H H H H &.:.' h _ P = } e { f b '.",
"/+#+T T T T H H H H g.(+_+:+<+X.x H T H H H H H H H H H H H H ` - 0 O h W d $ + - 9 [+",
"}+|+H H H H H H 1+1+n.2+S.= V 3+5.T H H H H H H H H H H H H H H H 4+=+Z ~ h Z N 5+2+6+",
"7+|+;.8+w 9+0+a+b+&+& Y } } 5 ' y ~.H H H T T H H H H H H T T T H H v c+9 Q.j t.d+O.e+",
"f+*+I 4.v.m.d.T.W ; $ : c %.e b W - 1.H H H T T T T H T T T T }.T H H >+4+&.v.V g+h+<+",
"E.N [ z <.d d h 6 E.Y $ $ 6 , , d 6 | [ i+H H H T T T T T T T T T T }.H H ^.3.b.`.H j+",
", ] ! k+ .l+R ).] E.O l+7 k 2 l+d.m+a $ 4 1.Z.v m.n+D ^.2.7 7+k+h.^+T T ;+(.M.;.H H o+",
"} b * :+p+q+S [ ; & r+s+*+3 , Q.t+u+j @ E.' :+v+s+t I.9+w+x+y+,+z+A+}.@.@ h+}.H H H B+",
"K.K.h  .C+D+E+- ; 2 z+F+#+3.> R r G+H+~ } : I+v+F+Q I.J+K+0+}.;.{.8+.+> L T T H H H L+",
"b 5 [ d.M+N+N T.T.O+P+Q+f+%.{ I+z G+w+Z * n R+S+T+O+U+o+N+].F.+.{+.+!+x T T T T H H V+",
"E.'.R 7 k W+m+c X+f+Y+K+m.'.K.8 > Z+`+* [ k 3+Q+P+) E+&. @.@+@@@#@. +.T T T T T H H S+",
"; c m.k R T+3+i.:+3 $@%@a e : t.Y &@t+i 4 <.&+W+=+, *@0 *+`+N+S+M #.T T T T T H H H *+",
"^ ' #+N P =@w+-@2 ;@N+8 %.g X X+g X+p+H+:.^ *+N+= y.N : V 1 >@F+q h+H H T T T T H i+r ",
"= N  .= < z+s+I+) d.p+I+%.A =+1 3.:.G+,@V a r+`+a g H+T.Y '.#+D+'@k =.H H H T T H M+r+",
"- E+r [ [ H+)@[ , j+t+=+'.6 !@S ~ z s+k+'.Q.T+~@^ % T+k+_ %  .t+:.0 U+&.~.H H H G r z ",
"z 3+r  .f+X+4 h X+j+'@7 a i {@3+N b S.b z o+~@&@Q.A m.t.]@t.8 :.5 U.# g K 7+W.W.^@]@f ",
"$ ^ N Q.Q.[+W _ O ^ [+6 . %.@ | 4 %.V A U., _ ' %.g < z Z : a $ > b + } | E.'.' ,.' 5 "};
