/* XPM */
static char * xmms_icon16_xpm[] = {
"43 43 240 2",
"  	c #000000",
". 	c #070808",
"+ 	c #1A1C1D",
"@ 	c #262A2D",
"# 	c #1B1F24",
"$ 	c #232629",
"% 	c #0A0B0B",
"& 	c #4B5156",
"* 	c #5E686F",
"= 	c #6D787F",
"- 	c #7A818E",
"; 	c #6C7882",
"> 	c #4F585D",
", 	c #31363B",
"' 	c #04060C",
") 	c #454C52",
"! 	c #626C74",
"~ 	c #677087",
"{ 	c #5F6970",
"] 	c #7D859B",
"^ 	c #7F8BAB",
"/ 	c #7581A3",
"( 	c #677597",
"_ 	c #66718E",
": 	c #57606C",
"< 	c #576067",
"[ 	c #1E2123",
"} 	c #2E3234",
"| 	c #555D63",
"1 	c #6F7B89",
"2 	c #7C8394",
"3 	c #7D87A3",
"4 	c #8A95B3",
"5 	c #8E98B6",
"6 	c #7A86A8",
"7 	c #6F7CA2",
"8 	c #54638C",
"9 	c #49567B",
"0 	c #4A5674",
"a 	c #4D5666",
"b 	c #2F3338",
"c 	c #393E43",
"d 	c #5B656C",
"e 	c #828A9C",
"f 	c #8A91A5",
"g 	c #888FA4",
"h 	c #929BB3",
"i 	c #9FA8C0",
"j 	c #9CA5BE",
"k 	c #9DA6C0",
"l 	c #97A1BC",
"m 	c #949DB9",
"n 	c #8A95B4",
"o 	c #5A678A",
"p 	c #59637E",
"q 	c #425076",
"r 	c #45516C",
"s 	c #4D545C",
"t 	c #3E4044",
"u 	c #0F1113",
"v 	c #0D0F12",
"w 	c #9097A4",
"x 	c #949AAD",
"y 	c #8D94AA",
"z 	c #778099",
"A 	c #5E698A",
"B 	c #556184",
"C 	c #44527A",
"D 	c #3C4A74",
"E 	c #3C496D",
"F 	c #47505C",
"G 	c #667179",
"H 	c #9DA3B3",
"I 	c #A5AAB9",
"J 	c #626C8C",
"K 	c #384568",
"L 	c #363A42",
"M 	c #A2A6B5",
"N 	c #989EAF",
"O 	c #8792AF",
"P 	c #6B7592",
"Q 	c #4D5A80",
"R 	c #384771",
"S 	c #B7BDD1",
"T 	c #B5BBCD",
"U 	c #A6ABB8",
"V 	c #9197AA",
"W 	c #7F88A1",
"X 	c #6F7894",
"Y 	c #5A6585",
"Z 	c #3A4B7D",
"` 	c #37497E",
" .	c #727C8A",
"..	c #ABB3C8",
"+.	c #BCC2D3",
"@.	c #B1B7C9",
"#.	c #505F89",
"$.	c #4C597D",
"%.	c #4C5C8B",
"&.	c #3F5083",
"*.	c #32457B",
"=.	c #3E434B",
"-.	c #222526",
";.	c #838CA2",
">.	c #445485",
",.	c #2D4075",
"'.	c #3F4655",
").	c #44484B",
"!.	c #A1A9C2",
"~.	c #737D98",
"{.	c #525D7B",
"].	c #536391",
"^.	c #737C94",
"/.	c #6E768A",
"(.	c #636D82",
"_.	c #5E6985",
":.	c #525E81",
"<.	c #253973",
"[.	c #34436D",
"}.	c #323334",
"|.	c #131516",
"1.	c #414652",
"2.	c #8B8E91",
"3.	c #A4A5A5",
"4.	c #90908F",
"5.	c #5A5D66",
"6.	c #5B6374",
"7.	c #AEB0B0",
"8.	c #979BA1",
"9.	c #A4A6A9",
"0.	c #B5B7B8",
"a.	c #B3B4B4",
"b.	c #818692",
"c.	c #AAABAC",
"d.	c #9D9FA1",
"e.	c #6D7584",
"f.	c #9A9B9B",
"g.	c #9FA09F",
"h.	c #96989A",
"i.	c #696E78",
"j.	c #8D9094",
"k.	c #76787B",
"l.	c #404E76",
"m.	c #4C546B",
"n.	c #737474",
"o.	c #7B7D81",
"p.	c #7B7C7C",
"q.	c #636465",
"r.	c #B7B8B8",
"s.	c #757779",
"t.	c #8F949E",
"u.	c #C4C5C5",
"v.	c #BFC0C0",
"w.	c #BDBFC0",
"x.	c #D7D8D8",
"y.	c #D9DADA",
"z.	c #CCCDCD",
"A.	c #BABBBB",
"B.	c #86888B",
"C.	c #A7A8A9",
"D.	c #838384",
"E.	c #8B8C8D",
"F.	c #7F8080",
"G.	c #838689",
"H.	c #585F70",
"I.	c #939494",
"J.	c #333C54",
"K.	c #3A3C3D",
"L.	c #636A7C",
"M.	c #535A6D",
"N.	c #303F6A",
"O.	c #44474B",
"P.	c #4B4E53",
"Q.	c #838EAF",
"R.	c #6C6C6C",
"S.	c #535455",
"T.	c #29365A",
"U.	c #56585B",
"V.	c #5A5B5C",
"W.	c #1C294C",
"X.	c #676867",
"Y.	c #5E6162",
"Z.	c #676A71",
"`.	c #727FA1",
" +	c #505562",
".+	c #222D4B",
"++	c #0D1E4C",
"@+	c #16191A",
"#+	c #292A2A",
"$+	c #646668",
"%+	c #454D62",
"&+	c #33394B",
"*+	c #2E3549",
"=+	c #1B2A55",
"-+	c #686867",
";+	c #2B2F32",
">+	c #454C5C",
",+	c #70706F",
"'+	c #40475D",
")+	c #3D455B",
"!+	c #313642",
"~+	c #222E50",
"{+	c #242A3A",
"]+	c #1A2B5D",
"^+	c #152B69",
"/+	c #11214E",
"(+	c #586793",
"_+	c #2B3B66",
":+	c #233463",
"<+	c #1C2E62",
"[+	c #1E3064",
"}+	c #112664",
"|+	c #596894",
"1+	c #2C3C6A",
"2+	c #192E6A",
"3+	c #0E1835",
"4+	c #3E4863",
"5+	c #16285C",
"6+	c #132865",
"7+	c #102257",
"8+	c #2A3D75",
"9+	c #27396C",
"0+	c #0E2159",
"a+	c #070E24",
"b+	c #282F42",
"c+	c #0E2156",
"d+	c #091435",
"e+	c #2E4178",
"f+	c #13255A",
"g+	c #1B243D",
"h+	c #223671",
"i+	c #0D1F53",
"j+	c #151C2C",
"k+	c #1C316D",
"l+	c #0A1226",
"m+	c #20346F",
"n+	c #09163C",
"o+	c #050A18",
"p+	c #101E47",
"q+	c #0B1942",
"                                                                                      ",
"                                                                                      ",
"                                  . + @ # @ $ $ + %                                   ",
"                            . $ & * = - - ; - - = * > , %                             ",
"                        ' $ ) ! - ; - - - = ; ~ = = = ! ) @ %                         ",
"                      + ) * { ! - ] ^ ^ / / / / ( _ ~ : < < ) [                       ",
"                  . } | * ! 1 2 3 4 5 5 ^ ^ ^ 6 7 ( 8 9 0 a | > b .                   ",
"                . c d * ; e f g g h i j k l m n ^ / o p 9 q r s s t u                 ",
"              v & d * - w x x x x y j i j l m n ^ z _ A B C D E F & ) +               ",
"            % s G G 2 H H H H x x y x I j l m n 6 ( _ J o p C D K F | ) u             ",
"            L ! G H I H M H H N x x y h k l m O z P _ J o B Q C R D a > c .           ",
"          [ d ! f S T U U M H N x V y f m l m W X P _ J Y B Q 9 Z ` R s & [           ",
"        . ) {  ...T +.@.I H H N x V y g f m 4 z X P _ A o #.$.$.%.&.*.K & =.u         ",
"        -.< { x ..T +.+.I H H H x V f g ;.O 3 X X _ _ A Y p Q %.%.>.*.,.'.).@         ",
"        ).< 1 !...@.+.+.@.H H x V y f ;.;.] z ~.X ( _ o Y {.#.].%.>.` ,.K =.L .       ",
"} , , , > < ;.x H H H H I w e V y e 2 2  .^.X /.~ (._.o B $.B :.$.&.` <.[.=.).}.|..   ",
"1.2.3.4.5.6.e 3.7.8.2 9.0.a.2.g g b.c.c.d./.e.f.g.h.(.Y {.i.j.2.k.l.` m.n.o.p.k.q.}.. ",
"v q.a.r.s.6.t.u.v.w y w.x.y.c.] e 8.z.z.r././.a.A.r.o.{.{.B.C.3.B.D l.D.E.D.k.F.D.q.# ",
"  [ D.A.C.e.a.u.8.h y w.x.x.w.2 ^.c.z.z.r.e.e.a.r.r.2.{.{.h.3.g.G.R H.I.k.J., ) p.p.K.",
"    K.g.r.7.A.3.W l ;.7.u.w.v.2  .0.A.A.7.(.i.c.c.C.f.{.L.g.I.f.D.K M.4.D.s c } K.}.-.",
"    % q.C.a.C.- O 5 ] 3.a.I.A.G.o.0.I.C.C.L.L.3.f.E.g.H.i.f.n.I.o.N.K n.E.D.p.q.O.+   ",
"    . P.g.3.f./.Q.n ^.h.3.R.C.B.k.c.R.h.f.H.H.f.E.q.g.q.p.4.S.4.n.N.<.T.U.R.s.p.k.V.+ ",
"    + p.h.h.f.p.X Q.X E.h.S.E.I.4.I.P.E.4.M.M.4.F.O.E.F.D.n.t D.R.T.T.T.W.W.}.O.X.R.K.",
"  . S.B.D.Y.B.B.Z.`.~ F.E. +n.4.I.k.O.F.D.m.m.D.k., n.B.D.U.L p.q..+P.R.1.++# @+O.X.K.",
"  #+n.p.S.'.$+D.n.6._.n.F. +5.D.D.Y.1.s.n.%+%+n.R.&+U.p.n.1.*+R.V.=+&+-+V., #+}.S.V.-.",
"|.S.n.V.;+1.m.q.n.V.>+q.,+>+P.,+n.>+'+-+-+'+)+-+Y.&+=.R.q.*+*+q.P.=+=+O.V.V.S.S.S.}.. ",
"|.}.}.-.;+!+:.>+>+1.!+1.1.'+%+O.O.)+'+t =.)+J.t L J.J.L !+~+.+!+{+]+^+/+{+;+}.#+|..   ",
"      . $ ;+r (+o ].o o $.$.Q 9 9 9 9 q l.l.l.l.N.N.N._+T.:+<+[+<+^+^+}+++|.% .       ",
"        @+@ !+8 |+|+|+:.9 Q 9 9 9 9 C l.l.>.l.N.N.N.1+_+:+:+<+<+2+^+}+}+3+u %         ",
"        . -.[ 4+#.#.%.>.C C C >.l.l.l.l.>.>.` N.N.N.:+:+:+[+]+5+6+}+}+7+v . .         ",
"          |.[ {+>.%.l.l.l.l.l.l.l.D R D >.` >.8+N.9+:+:+[+]+5+7+0+}+}+a+. .           ",
"          . @++ b+D D D D D D D N.N.N.>.>.>.8+8+9+:+:+<+5+5+7+7+c+0+d+. .             ",
"            . @+@+{+[.R [.[.[.[.[.[.*.` *.*.e+8+<.:+]+]+f+7+0+0+0+d+                  ",
"              . v u g+_+[.N.1+[.1+N.*.*.e+8+8+<.h+]+5+5+}+i+0+i+d+                    ",
"                . % v j+T._+1+9+9+8+8+8+8+<.h+h+k+2+f+7+i+i+i+l+                      ",
"                    . . v /+T.:+9+8+<.<.m+m+m+2+2+^+}+0+i+n+o+                        ",
"                            o+/+]+m+h+m+k+k+2+^+6+}+0+n+o+                            ",
"                                ' a+3+p+/+++++q+d+a+'                                 ",
"                                                                                      ",
"                                                                                      ",
"                                                                                      ",
"                                                                                      ",
"                                                                                      "};
