/* XPM */
static char *xmms-liknockzr5[] = {
/* columns rows colors chars-per-pixel */
"43 43 255 2",
"   c #6B6C7F",
".  c #767676",
"X  c #7C7D8A",
"o  c #7E80A2",
"O  c #860000",
"+  c #8B0200",
"@  c #960100",
"#  c #950901",
"$  c #9B0303",
"%  c #862C2C",
"&  c #8A2222",
"*  c #912D2D",
"=  c #992727",
"-  c #963435",
";  c #993939",
":  c #A30000",
">  c #AB0100",
",  c #AE0B00",
"<  c #A81B00",
"1  c #B30000",
"2  c #BC0100",
"3  c #BC0C00",
"4  c #B41400",
"5  c #B41B00",
"6  c #BB1600",
"7  c #BE1C01",
"8  c #B91D1C",
"9  c #AA2700",
"0  c #B72700",
"q  c #B42D00",
"w  c #BB2C02",
"e  c #A72727",
"r  c #A32C2C",
"t  c #A13A3A",
"y  c #B32223",
"u  c #BD4300",
"i  c #8E5457",
"p  c #8E6363",
"a  c #857473",
"s  c #897271",
"d  c #A24B4C",
"f  c #A84D4D",
"g  c #A95151",
"h  c #A87358",
"j  c #A56364",
"k  c #A36469",
"l  c #A66D66",
"z  c #C30000",
"x  c #C50B00",
"c  c #CB0100",
"v  c #C81A00",
"b  c #D30000",
"n  c #D60C00",
"m  c #DC0000",
"M  c #DA0900",
"N  c #D51403",
"B  c #D71900",
"V  c #DD1300",
"C  c #DB1800",
"Z  c #C62400",
"A  c #C92500",
"S  c #C73100",
"D  c #C73A00",
"F  c #D72900",
"G  c #D13900",
"H  c #E30100",
"J  c #E50D00",
"K  c #E90100",
"L  c #E80900",
"P  c #E21000",
"I  c #E71E00",
"U  c #EA1600",
"Y  c #EE1A00",
"T  c #E12300",
"R  c #E52C00",
"E  c #ED2400",
"W  c #EA2C00",
"Q  c #E53600",
"!  c #E53D00",
"~  c #EA3300",
"^  c #EC3C01",
"/  c #F22A00",
"(  c #C54A00",
")  c #C45400",
"_  c #CB5900",
"`  c #D24500",
"'  c #D64D02",
"]  c #DD4C00",
"[  c #D05600",
"{  c #D35901",
"}  c #DA5500",
"|  c #DC5F00",
" . c #CD6900",
".. c #DF7600",
"X. c #DE7D00",
"o. c #E34700",
"O. c #EB4C05",
"+. c #EC5C00",
"@. c #F24100",
"#. c #F44900",
"$. c #F35301",
"%. c #F35B00",
"&. c #FD5300",
"*. c #FE5D00",
"=. c #E26200",
"-. c #E46D00",
";. c #EA6A00",
":. c #E5671A",
">. c #E47500",
",. c #EE7307",
"<. c #F56400",
"1. c #F16801",
"2. c #FE6600",
"3. c #FE6C01",
"4. c #F27C00",
"5. c #FE7300",
"6. c #FE7B00",
"7. c #B5B13D",
"8. c #95925B",
"9. c #9B9A59",
"0. c #8E8E6D",
"q. c #878770",
"w. c #818079",
"e. c #888775",
"r. c #8A8A71",
"t. c #95866A",
"y. c #90907D",
"u. c #9C9978",
"i. c #A19E59",
"p. c #BB8744",
"a. c #BC9752",
"s. c #A98164",
"d. c #AAA646",
"f. c #A3A15C",
"g. c #B7B644",
"h. c #A1A162",
"j. c #AAA760",
"k. c #A3A27A",
"l. c #B1B073",
"z. c #D48400",
"x. c #D0A62C",
"c. c #D2BA2B",
"v. c #E48300",
"b. c #EB8200",
"n. c #EC8900",
"m. c #EA9400",
"M. c #EF9901",
"N. c #F18600",
"B. c #F28800",
"V. c #FE8300",
"C. c #FE8B00",
"Z. c #F29D00",
"A. c #FE9300",
"S. c #FE9C00",
"D. c #F89B08",
"F. c #E4A900",
"G. c #EFA400",
"H. c #E9AF00",
"J. c #E8A11C",
"K. c #EDAB1B",
"L. c #E5BC1C",
"P. c #F3A100",
"I. c #F1A900",
"U. c #FEA300",
"Y. c #FEAB00",
"T. c #F5B700",
"R. c #FEB400",
"E. c #FEBB00",
"W. c #CBA04E",
"Q. c #C9AE45",
"!. c #CCAD53",
"~. c #D8BA45",
"^. c #DEBD4C",
"/. c #DDD01D",
"(. c #DCDB1D",
"). c #CDCE2B",
"_. c #DFC623",
"`. c #D8CB2C",
"'. c #D4CE30",
"]. c #D6D426",
"[. c #D3D32F",
"{. c #DBD424",
"}. c #DED12A",
"|. c #DEDC24",
" X c #EEC20E",
".X c #E7D213",
"XX c #FEC400",
"oX c #FECB00",
"OX c #F0C310",
"+X c #F1D100",
"@X c #F0DD0B",
"#X c #FED400",
"$X c #FEDC00",
"%X c #E1D322",
"&X c #E0DE26",
"*X c #E4DB2C",
"=X c #E4D938",
"-X c #F6E306",
";X c #F7E30C",
":X c #F1EB0C",
">X c #FEE400",
",X c #FEEC00",
"<X c #F6F009",
"1X c #FEF300",
"2X c #FEFB00",
"3X c #E2E12C",
"4X c #CFC242",
"5X c #CCCA58",
"6X c #DFD343",
"7X c #E0C14F",
"8X c #E0C051",
"9X c #E4D543",
"0X c #84868A",
"qX c #848690",
"wX c #849596",
"eX c #8C9797",
"rX c #968284",
"tX c #979185",
"yX c #98968C",
"uX c #989881",
"iX c #98988E",
"pX c #919597",
"aX c #95989E",
"sX c #999A90",
"dX c #9A9C9C",
"fX c #8388A0",
"gX c #979AA3",
"hX c #9FA8A7",
"jX c #A78584",
"kX c #AA8588",
"lX c #B29898",
"zX c #B89395",
"xX c #BA9F95",
"cX c #BA9D9F",
"vX c #A6A68B",
"bX c #AEAE91",
"nX c #B5B486",
"mX c #B1B28F",
"MX c #BDBC8B",
"NX c #B0B197",
"BX c #BFBE91",
"VX c #A1A2A8",
"CX c #A8ABAD",
"ZX c #AEAFB9",
"AX c #AAB4B4",
"SX c #BAA4A3",
"DX c #B5B5B9",
"FX c #B7B9C4",
"GX c #C0A39C",
"HX c #FFF1DF",
"JX c #F7E7E7",
"KX c #FEEFE5",
"LX c #FEF2E6",
"PX c #FFF1E8",
"IX c #FFFDFC",
/* pixels */
"IXLXPXPXPXPXPXPXPXPXPXLXLXLXPXPXLXKXHXHXLXKXHXHXHXHXLXLXLXLXLXJXJXJXPXPXPXPXPXPXPXPXIX",
"KX2.3.2.2.2.2.2.2.2.3.5.6.6.V.V.C.C.A.A.A.A.S.A.A.A.C.V.5.2.2.7 : 1 &.2.2.2.2.2.3.2.KX",
"PX2.3.3.3.3.5.3.5.5.6.V.V.A.A.S.S.U.U.Y.Y.Y.Y.U.U.U.S.C.5.6.' : 1 2 @.2.3.3.3.3.3.2.PX",
"PX2.3.3.3.3.3.5.6.6.V.C.A.S.U.U.Y.R.R.R.R.E.E.E.R.R.U.A.C.N.5 > 2 z F 2.3.3.3.3.3.2.PX",
"LX2.3.3.3.3.5.6.V.V.A.S.U.Y.R.R.E.E.XXoXoXoXoXXXXXE.Y.C.U.[ : 1 2 c C 3.5.5.3.3.3.3.PX",
"LX2.3.3.5.5.5.V.C.A.S.U.Y.R.E.oXoX#X#X$X$X$X$X$X#XXXY.R.m., 1 z c b ~ 6.5.6.5.3.3.3.PX",
"LX2.3.3.5.5.V.C.A.S.U.Y.R.XXoX#X$X>X>X,X>X,X,X,X$XoXR.XX( > 2 z b V 5.V.V.V.6.3.3.2.PX",
"LX2.3.5.6.V.C.A.S.U.Y.R.E.oX#X$X,X,X,X1X1X1X1X,X>XE.#XH.> 2 z c b <.C.A.C.C.V.5.5.2.PX",
"KX2.5.5.6.C.A.S.U.U.U.{ 5 m.#X>X1X1X2X2X2X2X1X,X#XoX$X0 1 2 c b Q A.S.U.S.A.C.6.5.2.PX",
"HX2.5.6.V.A.S.U.S.U.B.1 1 1 v.,X,X2X2X2X2X2X1X,XoX>Xz.> 2 c b m C.R.R.Y.Y.S.C.V.6.5.PX",
"LX3.6.V.C.S.U.U.U.Y.n.2 x 2 3 P.1X1X2X2X2X1X,XoX#X+X, 1 z c b +.R.E.E.E.R.U.S.C.V.5.PX",
"LX3.6.V.A.U.Y.Y.U.E.=.c c z z A T.,X,X1X1X,X$XE.>X) > 2 z b T Y.oX#X#XoXE.Y.U.A.V.5.PX",
"KX5.V.C.S.Y.R.R.Y.XX;.b b b c z G XX$X>X>X#XE.oXF., 1 z c m 4.#X#X>X>X#XXXE.Y.S.A.6.PX",
"LX5.V.A.U.R.E.E.R.#X#XR m M b b z { #XoXoXR.Y.oXq > 2 z c o.XX#X,X,X>X$XoXE.Y.S.D.6.PX",
"LX6.C.S.U.E.XXXXE.E.2XR.U H m b c 2 | E.Y.S.XX .: 1 2 c n B.#X$X1X1X,X>X#XXXR.Y.S.C.PX",
"KX6.A.S.Y.E.oX#X#XE.>X2XB.K H m b z 3 -.S.U.M.< : 1 z c o.oX#X,X1X2X1X,X$XoXE.Y.S.C.LX",
"LX6.A.U.R.E.#X$X$X#XXX,X1X%.H H b c 1 4 b.R.w $ > 2 z B U.E.>X1X2X2X2X,X$X#XE.R.U.C.PX",
"LXV.S.U.E.XX#X>X-X>X#XoX,X$X@.H m b z : w _ # $ 1 x c +.R.XX>X1X2X2X2X1X>X#XXXR.U.A.PX",
"LXV.D.U.E.oX>X,X2X2X,X#X#X>XE.E m b c 1 : O + > 2 c B S.Y.#X,X1X2X2X2X1X,X#XXXE.Y.A.PX",
"LXC.S.Y.E.OX_.`.'.|.{.c.x.OX#XA.J b 8 e - % & = r y 1.S.R.#X,X:X).).(.1X,X$XoXT.Y.S.LX",
"LXV.S.Y.E.Q.fXu.j.0XX i.0.t.L.oX<.M rXeXp s wXa i a p.D.E.#X;Xh.r.9.X d.-X$XoXE.Y.A.PX",
"LXC.S.Y.E.~.hX*X2Xl.k.2X%X0Xa.E.Y.O.kXjX: * pX; c h 0XJ.XX>X4Xo |.2X(.7.@X$XoXE.Y.A.PX",
"PXV.S.Y.E.7XZX6X1XnXvX<X`.pXW.R.R.C.cXlX$ - hXd x s.tXK.oX$X;Xl.uXh.g.1X,X$XoXR.Y.D.PX",
"PXV.D.U.E.7XFX9X1XMXNX<X*XaX!.Y.E.D.SXcX$ ; AXf z l iXK.oX$X1X2X|.[.q.8.@X$XoXE.U.A.PX",
"LXV.A.U.R.8XFX9X1XBXNX<X3XgX!.Y.E.,.cXSX$ ; AXg z k sXK.oX>X=XNX3X2Xf.. .X$XXXR.U.A.PX",
"LXV.D.U.R.^.DX9X,XMXmX2X*XdX!.E.XXN zXlX$ - CXf z k rX:.oX$X1X5XsXy.e./.$X#XE.R.U.D.PX",
"PXV.A.S.Y.E.oX$X,X1X2X2X1X>XE.$X;.c 2 > @ + @ > 2 c m L 6.>X,X2X2X2X1X,X$XoXE.Y.S.C.PX",
"LX6.C.S.Y.E.XX$X,X1X1X2X,X#XoXXXN c 2 > + ) [ : 2 c m H I Y.,X1X2X2X,X>X#XoXR.U.S.V.PX",
"PX5.C.A.U.R.E.#X$X,X,X,X>XXX,Xo.b z 2 : 9 Z.Y.D 1 z b H K / E.,X,X1X,X$XoXE.Y.U.D.6.PX",
"LX5.V.C.S.Y.E.XX#X>X,X>XXX,XP.M c z 1 : z.,X#XT.Z z b m H K #.$X,X,X>X#XoXE.Y.S.C.6.PX",
"LX3.6.C.A.U.Y.E.oX$X$XXXXX$XQ b c 2 > u >X#X>X,XI.x c b m H H <.#X$X$XoXE.Y.S.A.C.6.PX",
"LX2.6.V.C.S.Y.E.E.oXXXR.>XN.H c c 2 4 H.oXXXoX>X1Xm.z b b m m P Y.#XoXE.R.Y.S.C.V.5.PX",
"LX2.5.6.V.A.S.Y.R.E.Y.E.R.I m b z 2 _ $XoX$X#XXX,X1X>.z c b b V Z.oXE.E.Y.S.A.V.6.3.PX",
"LX2.5.6.6.C.A.U.U.U.S.E.+.H b c 2 6 XXoX,X,X,X#XoX,X>X{ z x z o.Y.E.R.Y.S.A.C.6.6.2.PX",
"PX2.3.3.6.V.C.A.A.C.U.B.H m b c 2 X.XX#X,X,X,X$XoXE.>X$X..A } S.Y.Y.Y.U.A.C.V.5.5.2.PX",
"LX2.3.3.5.6.V.V.V.V.A.^ m m c 2 S E.E.$X>X,X,X>X#XE.R.E.E.R.U.S.U.U.U.A.C.V.6.5.3.2.PX",
"LX2.5.3.3.5.5.6.5.V.5.H m b z 2 n.Y.E.#X$X$X$X$X#XE.R.U.S.S.S.U.S.S.A.C.V.5.5.3.5.2.PX",
"PX2.3.3.3.3.5.2.2.5.R b b z 2 ` A.U.E.oXoXoXoXoXoXE.R.Y.U.U.S.S.A.A.C.V.6.5.3.3.3.2.PX",
"PX2.5.3.3.3.2.2.2.2.V b c z 6 4.C.U.R.R.E.R.E.E.E.R.R.Y.U.S.A.A.C.V.V.5.5.3.3.5.3.2.PX",
"PX2.3.3.3.3.2.2.&.3.Q z x 1 ] 6.C.S.U.Y.Y.Y.Y.Y.U.U.U.S.S.A.C.C.V.6.5.5.3.2.3.3.3.2.PX",
"PX2.3.3.3.3.3.*.&.3.$.2 > v <.6.C.A.D.A.S.S.S.S.A.D.D.A.C.V.V.6.6.3.3.3.3.3.3.3.5.3.PX",
"PX2.3.2.2.2.2.*.&.&.*.F v $.*.3.6.V.V.V.V.C.C.C.V.V.6.V.6.6.3.3.3.2.3.2.3.2.2.2.2.2.PX",
"IXPXPXPXPXPXPXPXPXKXPXPXPXPXPXPXLXLXLXPXPXPXPXPXPXPXPXPXPXPXPXPXPXPXPXPXPXPXPXPXPXPXIX"
};
