/* XPM */
static char *xmms-tony4[] = {
/* columns rows colors chars-per-pixel */
"43 43 234 2",
"   c #645BB9",
".  c #6D56B3",
"X  c #6C59B4",
"o  c #715EB7",
"O  c #6463BF",
"+  c #6C63BB",
"@  c #6E68BF",
"#  c #7169BF",
"$  c #577BCE",
"%  c #577ED0",
"&  c #6668C0",
"*  c #6868C0",
"=  c #6E74C5",
"-  c #6F7ACA",
";  c #716FC4",
":  c #7076C8",
">  c #777BC7",
",  c #777BC8",
"<  c #7E7AC5",
"1  c #5283D3",
"2  c #538AD7",
"3  c #568CD8",
"4  c #5A83D2",
"5  c #5D8BD6",
"6  c #5A8DD8",
"7  c #5E92D7",
"8  c #5B92DA",
"9  c #5A98DE",
"0  c #5E9DE0",
"q  c #6D81CD",
"w  c #6787D1",
"e  c #648BD6",
"r  c #6C86D1",
"t  c #6D8FD3",
"y  c #6492DA",
"u  c #649CDE",
"i  c #6C90D5",
"p  c #6C96D9",
"a  c #6D98D9",
"s  c #7483CE",
"d  c #7984CE",
"f  c #7B88CE",
"g  c #7387D0",
"h  c #748BD3",
"j  c #7C8AD0",
"k  c #7493D5",
"l  c #7196DA",
"z  c #719DDD",
"x  c #7A93D6",
"c  c #7C9ADA",
"v  c #629FE0",
"b  c #689FE0",
"n  c #73A2DE",
"m  c #7FA1DC",
"M  c #67A2E1",
"N  c #69A0E1",
"B  c #74A5E2",
"V  c #76A9E2",
"C  c #7BACE4",
"Z  c #8282C9",
"A  c #848CCF",
"S  c #828CD0",
"D  c #8492D4",
"F  c #8098D6",
"G  c #849DDB",
"H  c #8996D5",
"J  c #9190CF",
"K  c #9396D4",
"L  c #949CD6",
"P  c #969ED8",
"I  c #9B9FD5",
"U  c #84A2DD",
"Y  c #86AADD",
"T  c #8BA3DB",
"R  c #8CAFDF",
"E  c #8FB5DF",
"W  c #94A3DA",
"Q  c #95ABDE",
"!  c #99A1D7",
"~  c #9BA5DA",
"^  c #9AAADD",
"/  c #93BADF",
"(  c #9DB0DF",
")  c #98BCDB",
"_  c #83A7E1",
"`  c #82AFE4",
"'  c #8CACE1",
"]  c #85B3E6",
"[  c #8AB3E5",
"{  c #8EB7E8",
"}  c #8ABBE9",
"|  c #95AEE1",
" . c #9BACE0",
".. c #96B5E5",
"X. c #96BAE7",
"o. c #92BDE9",
"O. c #9EB2E1",
"+. c #9EBAE5",
"@. c #A1A4D9",
"#. c #A4ACDD",
"$. c #ACADDD",
"%. c #A4B3D3",
"&. c #A1B0DF",
"*. c #A6BAD5",
"=. c #A3BEDA",
"-. c #ABB1DF",
";. c #ADBBD4",
":. c #A9BDDC",
">. c #B3BCD5",
",. c #BBB3DD",
"<. c #BCBFD4",
"1. c #BFB9DE",
"2. c #A3B4E2",
"3. c #A4BAE4",
"4. c #ABB5E2",
"5. c #ABBCE4",
"6. c #B2B4E0",
"7. c #B6B9E1",
"8. c #B9B6E0",
"9. c #BABBE3",
"0. c #9FC3DE",
"q. c #95C3E6",
"w. c #93C0EA",
"e. c #9CC7EC",
"r. c #9DCCEE",
"t. c #ABC3DA",
"y. c #B5C2D9",
"u. c #B5C9DD",
"i. c #BDC2D5",
"p. c #BDC6D9",
"a. c #BCCBDD",
"s. c #A5C5E2",
"d. c #A3C2E8",
"f. c #A2C9ED",
"g. c #ACC4E5",
"h. c #ACC6E9",
"j. c #ABCBE5",
"k. c #ABCDEA",
"l. c #A6CFF0",
"z. c #A7D1E8",
"x. c #A2D8EF",
"c. c #ACD2EE",
"v. c #A6DBF0",
"b. c #AAD6F2",
"n. c #B4C3E6",
"m. c #B0C7E8",
"M. c #B2CDE5",
"N. c #B4CCEB",
"B. c #BDC5E7",
"V. c #BBCFE4",
"C. c #BACDEA",
"Z. c #B6D2E5",
"A. c #B2D3EC",
"S. c #BBD3E4",
"D. c #BAD4ED",
"F. c #BFD8E7",
"G. c #BBDAEC",
"H. c #B4DCF2",
"J. c #BDD5F0",
"K. c #BCDBF2",
"L. c #BDE4F5",
"P. c #BEE8F8",
"I. c #C6BDE1",
"U. c #C0C7DA",
"Y. c #C4CBDB",
"T. c #C9C6D5",
"R. c #CBC8D7",
"E. c #CBCDDB",
"W. c #C0D0DF",
"Q. c #CAD1DE",
"!. c #D4D2DE",
"~. c #C5C3E4",
"^. c #C2CDE5",
"/. c #C7CDEB",
"(. c #CEC6E5",
"). c #CDC9E7",
"_. c #CCCDEA",
"`. c #C4D4E2",
"'. c #C5D3ED",
"]. c #C6D8E5",
"[. c #C3DBEC",
"{. c #CBD5E2",
"}. c #CCD4ED",
"|. c #CFDBE6",
" X c #CBDCED",
".X c #C3D7F1",
"XX c #C3DDF2",
"oX c #CAD6F1",
"OX c #CCDDF2",
"+X c #D4D6E1",
"@X c #D0D5EE",
"#X c #D3DAE4",
"$X c #D3DFE9",
"%X c #D9D7E1",
"&X c #DCDDE6",
"*X c #DDDFE8",
"=X c #D1DBF0",
"-X c #C7E0ED",
";X c #CCE3ED",
":X c #C4E4F3",
">X c #C5E9F6",
",X c #C2EAF8",
"<X c #CBE4F4",
"1X c #CBE9F5",
"2X c #CCEDF9",
"3X c #CDF0FB",
"4X c #D4E2EB",
"5X c #DDE0E7",
"6X c #DCE3EA",
"7X c #DCE8EF",
"8X c #D0E5F5",
"9X c #D3EBF4",
"0X c #D0EDFA",
"qX c #DAE7F0",
"wX c #DBECF3",
"eX c #D2F2FB",
"rX c #DDF0F7",
"tX c #DDF2F8",
"yX c #E0DEE6",
"uX c #E0E0E7",
"iX c #E4E5EB",
"pX c #E6E9EE",
"aX c #E8E7ED",
"sX c #E9E9EE",
"dX c #E4EDF2",
"fX c #ECEDF1",
"gX c #E5F1F6",
"hX c #EEF1F4",
"jX c #F0EFF3",
"kX c #F3F3F6",
"lX c #F6F7F8",
"zX c #F7F8F9",
"xX c #F8F7F9",
"cX c #FDFDFD",
/* pixels */
"cXcXcXcXzXcXcXzXcXcXcXcXcXcXcXxXcXcXxXcXzXcXcXcXcXcXcXcXcXcXcXcXcXcXcXcXcXcXcXcXcXcXcX",
"cXcXzXzXzXzXzXzXxXxXzXxXzXzXxXxXxXxXzXxXzXzXzXcXcXcXcXcXcXcXcXcXcXcXcXcXcXcXcXcXcXcXcX",
"zXzXzXlXlXkXlXlXlXkXkXzXzXxXlXlXlXkXlXkXlXlXzXzXzXcXcXcXcXcXcXcXcXcXcXcXcXcXcXcXcXcXcX",
"zXlXlXkXhXhXfXsXfXfXkXkXfXkXfXjXjXfXjXjXhXkXkXlXzXzXcXcXcXcXcXcXcXcXcXcXcXcXcXcXcXcXcX",
"lXkXhXfXsXpXiX6XiXaXsXsXsXsXsXsXaXaXaXaXsXfXhXkXkXzXzXcXcXcXcXcXcXcXcXcXcXcXcXcXcXcXcX",
"kXhXsXpXiX6X&X!.+X5XuXuXiXuXiX5X*X*X5X6X6XpXsXfXhXlXzXcXcXcXcXcXcXcXcXcXcXcXcXcXcXcXcX",
"hXdXqX6X$X#X#X`.Q.#X!.!.!.&X!.#X#X#X#X|.4X4X7XgXkXkXlXzXcXcXcXcXcXcXcXcXcXcXcXcXcXcXcX",
"fXqX[.:.:.%.%.%.t.].!.E.E.Q.Q.].u.) 0.0.0.t.F.4XsXkXlXzXcXcXcXcXcXcXcXcXcXcXcXcXcXcXcX",
"dXwXA.s & O + + < n. Xp.i.i.a.Z.a 5 6 6 5 p k.9XdXjXkXzXxXcXcXcXcXcXcXcXcXcXcXcXcXcXcX",
"pX7XXXW &     X X ! -Xa.;.;.a./ y 3 8 3 4 U >X9XaXfXkXzXxXcXcXcXcXcXcXcXcXcXcXcXcXcXcX",
"aX6X4Xh.>     . . < M.G.*.t.c.V 9 6 5 5 g h.2X4XiXsXhXkXzXxXcXcXcXcXcXcXcXcXcXcXcXcXcX",
"iX*X4X-XW &   . X = Q L.c.Z.w.N 0 y e q W :X9X$XuXsXkXkXzXzXcXxXcXcXzXcXcXcXcXcXcXcXcX",
"aX*X#X;XN.>   o ; : x A.,XH.` N M a g A N.2X;X&XuXaXfXhXkXkXzXzXlXzXzXzXcXzXcXcXcXcXcX",
"aX*X#X{.-X! + @ : s j X.,Xr.B B n x A ( >X1X{.!.uXaXsXfXkXkXkXkXlXkXlXzXlXzXzXzXcXcXcX",
"+X%X+XE. XC.Z = g h x _ e.} C _ U H L G.1X].!.!.yXuXiXaXsXfXkXfXhXhXhXkXhXzXzXzXzXzXcX",
"6XQ.p.>.y.G.2.s g k c _ ] ] ' ' P P 5.2X].T.R.!.!.yXiXpXpXpXsXaXhXsXsXfXhXkXkXkXzXzXzX",
"fXaX%XR.;.Z.D.T h l U ` [ { .. .~ 4.XX[.u.<.T.E.+X!.&X6X5X6XuXiXqXiXiXpXdXsXkXhXkXlXzX",
"kXfXiX+XR.a.G.d.x x U ] { ..2.#.$.C.1XZ.i.p.E.{.{.$X X$X$X;X4X4X$X4X9XwX9X7XqXgXhXkXlX",
"kXfXiX+Xi.:.z.H.T c _ ] { 3.4.-.n.<X>XM.V.^.].<X-XD.].1XA.A.-X].j.M.>XXXj.:.h.>XtXgXkX",
"lXjXiX!.<.%.) z.l._ _ { { 2.6.7..X3XH.M.^.1.'.2X.X4.A.H.] w.>Xz.h | A.D W | ^ D.eXgXkX",
"lXjXaX+XE.<.:.z.XXo.C ] ..-.6.B.0X3Xz.n.'.~.'.2XN.5.XXb.] w.L.+.j 3.3.f h.1X0X0XrXfXkX",
"kXjXaX&X`.y.0.x.L.} B ]  .#.6.B.0X2XA.D.}.`..X.XJ.h.P.b.w.o.d.( H N.K.W H ! C.0XgXfXkX",
"lXjXaX%XY.t.q.v.e.B B ' ~ #.7.9.OX0XJ.XX=XOX.X.XK.A.L.l.l.| ( 2.P XXeX<XN.K J XXrXfXkX",
"kXfXaX%Xp.%.j.H.C b B G P #.6.9./.0X>X<X=X<X'.<XK.H.,Xf.c.| 5.:.^ J.A.:X.X@.! 2XtXhXlX",
"kXfXuXE.>.;.Z.w.v v z G L @.$.9.(.@X2X0X1X9X>X3XH.L.>Xc.:XG.XXm.n..X#.@.@.7.:X2XgXhXlX",
"jXaX%Xp.i.a.z.n 9 u l S K @.$.8.I._.8X2X3X>X:X1X2X2X3X2X2X9X9X<X2X2X2X<X1X3XeXgXhXkXlX",
"fXyX).R.U.S.E 8 6 y j S K @.$.8.I.(. X2X-XS.W.].-X<X4X8X4X4X6XqX9X9X9XwXtXtXdXgXkXlXzX",
"iX+X+XQ.W.j.a 3 e r g K 5.-.$.,.I.(.$X3X:Xa.Y.Q.$X$X6XuXiXiXiXaXaXpXfXsXdXhXhXkXlXzXcX",
"iX5X+XQ.[.E 4 2 e w f  .<XC.$.,.I.(.}.8X1XF.a.Q.#X6XuXaXaXfXfXfXfXjXjXkXkXkXlXzXzXzXcX",
"aX5X!.`.j.i 1 2 5 r D D.eXXX8.,.I.).}.=X2X-X`.{.&XiXaXfXfXkXjXfXkXlXkXkXlXlXzXzXzXzXcX",
"iX5X#XF.Y $ 2 8 e h O.2X,XK.^.8.~._.@X@X8X1X-X|.6XiXaXkXkXlXxXxXzXzXzXzXzXzXzXcXcXcXcX",
"iX5X;Xt.t 1 2 6 e F A.1XM.M.[.~.~._.=X@X X1X1X4X6XaXjXkXkXxXxXxXzXzXcXcXzXcXcXcXcXcXcX",
"iX6X-XY $ 1 2 8 i +.>X].y.y.[. X(./._.oXoX<X2X1X7XsXhXlXzXzXcXcXzXcXcXcXcXcXcXcXcXcXcX",
"iX7Xj.w $ 1 3 y m G.>XW.i.i.`.<X'./.}.}.oX.X1X3X7XfXhXzXzXcXcXcXcXcXcXcXcXcXcXcXcXcXcX",
"pXqXM.Q E [ { X.c.3X;XY.E.R.`.$X<X X<X-X<X:X1X3XdXfXkXzXzXcXcXcXcXcXcXcXcXcXcXcXcXcXcX",
"fXpX7X1X;X1X1X1X1X;X4X#X+X+X+X$X9X<X<X1X2X2X2XtXgXhXkXcXcXcXcXcXcXcXcXcXcXcXcXcXcXcXcX",
"kXsXsXiX6X4X4X4X4X6XuXuXuXuX*X*X4X4X6X4XqXqXdXsXkXhXzXcXcXcXcXcXcXcXcXcXcXcXcXcXcXcXcX",
"kXhXfXsXpXpXpXiXpXaXaXaXfXaXaXiXpXiXiXiXiXdXhXhXkXzXzXxXcXcXcXcXcXcXcXcXcXcXcXcXcXcXcX",
"zXkXkXfXfXfXfXfXfXjXjXfXjXjXjXjXfXfXsXfXfXhXhXkXzXzXzXcXcXcXcXcXcXcXcXcXcXcXcXcXcXcXcX",
"cXlXkXlXlXhXkXhXkXkXkXkXlXlXkXkXkXkXkXkXkXlXlXlXzXcXcXcXcXcXcXcXcXcXcXcXcXcXcXcXcXcXcX",
"cXxXxXzXzXzXxXzXzXzXzXxXxXzXxXxXzXzXxXzXzXzXzXcXcXcXcXcXcXcXcXcXcXcXcXcXcXcXcXcXcXcXcX",
"cXcXcXxXcXxXzXxXcXxXcXxXcXcXcXcXcXzXzXxXcXcXcXxXcXcXcXcXcXcXcXcXcXcXcXcXcXcXcXcXcXcXcX",
"cXcXcXcXcXcXcXcXcXcXcXcXcXcXcXcXcXcXcXcXcXcXcXcXcXcXcXcXcXcXcXcXcXcXcXcXcXcXcXcXcXcXcX"
};
