/* XPM */
static char * xmms_icon14_xpm[] = {
"43 43 787 2",
"  	c None",
". 	c #000000",
"+ 	c #010100",
"@ 	c #010200",
"# 	c #000100",
"$ 	c #010101",
"% 	c #040404",
"& 	c #060602",
"* 	c #0B0B04",
"= 	c #000001",
"- 	c #020302",
"; 	c #010300",
"> 	c #040401",
", 	c #030301",
"' 	c #020201",
") 	c #060F01",
"! 	c #010400",
"~ 	c #020202",
"{ 	c #0D0D0D",
"] 	c #070705",
"^ 	c #060907",
"/ 	c #030900",
"( 	c #0E0E05",
"_ 	c #030800",
": 	c #070B02",
"< 	c #070702",
"[ 	c #0D0D04",
"} 	c #090903",
"| 	c #030303",
"1 	c #0C0C0C",
"2 	c #0A0A03",
"3 	c #0A0A07",
"4 	c #020700",
"5 	c #0C0C04",
"6 	c #161911",
"7 	c #1C1D0E",
"8 	c #11170D",
"9 	c #131611",
"0 	c #151E11",
"a 	c #151B0C",
"b 	c #12130F",
"c 	c #050B02",
"d 	c #020203",
"e 	c #0A0A05",
"f 	c #060B01",
"g 	c #020500",
"h 	c #040C00",
"i 	c #0B0E09",
"j 	c #141E0D",
"k 	c #12190F",
"l 	c #11170B",
"m 	c #1E1E0E",
"n 	c #11180A",
"o 	c #11160C",
"p 	c #101010",
"q 	c #070707",
"r 	c #0A0A0A",
"s 	c #060D02",
"t 	c #2E3328",
"u 	c #394223",
"v 	c #465232",
"w 	c #4B573F",
"x 	c #4E573F",
"y 	c #4D5738",
"z 	c #3B4131",
"A 	c #151C0A",
"B 	c #030A00",
"C 	c #020204",
"D 	c #0B0B0B",
"E 	c #0B0E05",
"F 	c #2B3320",
"G 	c #455337",
"H 	c #48553A",
"I 	c #4B5A3A",
"J 	c #475032",
"K 	c #3D4928",
"L 	c #2E391D",
"M 	c #0F140C",
"N 	c #050505",
"O 	c #090909",
"P 	c #030901",
"Q 	c #141712",
"R 	c #3A4925",
"S 	c #5A6845",
"T 	c #758661",
"U 	c #85946C",
"V 	c #809064",
"W 	c #576142",
"X 	c #283217",
"Y 	c #0E0F05",
"Z 	c #010103",
"` 	c #030306",
" .	c #080808",
"..	c #080F02",
"+.	c #1A1F0D",
"@.	c #404E30",
"#.	c #70805F",
"$.	c #81926A",
"%.	c #7C8765",
"&.	c #677753",
"*.	c #475333",
"=.	c #1E260F",
"-.	c #020600",
";.	c #050502",
">.	c #0D0D0B",
",.	c #101005",
"'.	c #05050A",
").	c #071401",
"!.	c #192810",
"~.	c #404A35",
"{.	c #778462",
"].	c #9AAB87",
"^.	c #98A985",
"/.	c #75845D",
"(.	c #3B4C2A",
"_.	c #171712",
":.	c #050609",
"<.	c #0E120B",
"[.	c #313B27",
"}.	c #5F6C4B",
"|.	c #8D9B7E",
"1.	c #99AA8D",
"2.	c #96A585",
"3.	c #434D2D",
"4.	c #2B2F1C",
"5.	c #050702",
"6.	c #010102",
"7.	c #0B0E07",
"8.	c #303621",
"9.	c #667255",
"0.	c #9DA789",
"a.	c #A4AD95",
"b.	c #98A889",
"c.	c #5D6E4C",
"d.	c #2C3224",
"e.	c #121206",
"f.	c #060604",
"g.	c #1F2512",
"h.	c #485836",
"i.	c #7E8E69",
"j.	c #9FAB94",
"k.	c #A4AD91",
"l.	c #687251",
"m.	c #2C391A",
"n.	c #161614",
"o.	c #06060A",
"p.	c #0F0F05",
"q.	c #10160A",
"r.	c #3A4929",
"s.	c #7D8870",
"t.	c #A9B69B",
"u.	c #A7B19B",
"v.	c #949D7E",
"w.	c #495838",
"x.	c #212D13",
"y.	c #010201",
"z.	c #030406",
"A.	c #040407",
"B.	c #030403",
"C.	c #1B1E17",
"D.	c #374426",
"E.	c #757E62",
"F.	c #A7B393",
"G.	c #A8B392",
"H.	c #A2AB8A",
"I.	c #49583E",
"J.	c #181B0A",
"K.	c #060606",
"L.	c #050F00",
"M.	c #212516",
"N.	c #4A523D",
"O.	c #929F81",
"P.	c #AFBC9E",
"Q.	c #B3BD9C",
"R.	c #75855D",
"S.	c #343C21",
"T.	c #1E1E1D",
"U.	c #0F0F0F",
"V.	c #0A1603",
"W.	c #282C1F",
"X.	c #60704A",
"Y.	c #A2AC91",
"Z.	c #B1B6A4",
"`.	c #A4B095",
" +	c #5D6C4D",
".+	c #2B2D27",
"++	c #081402",
"@+	c #060802",
"#+	c #0F140E",
"$+	c #2F3722",
"%+	c #758067",
"&+	c #B0B6A1",
"*+	c #B2BDA1",
"=+	c #9FAC8F",
"-+	c #5C6A4F",
";+	c #2A2C23",
">+	c #111307",
",+	c #13160B",
"'+	c #505B3A",
")+	c #889776",
"!+	c #AEBA9A",
"~+	c #B7BDA7",
"{+	c #7E836A",
"]+	c #373F2A",
"^+	c #171C0A",
"/+	c #040D00",
"(+	c #030602",
"_+	c #040A03",
":+	c #151D0A",
"<+	c #3F4D30",
"[+	c #99A687",
"}+	c #BBBDAB",
"|+	c #BAC0AA",
"1+	c #889479",
"2+	c #445034",
"3+	c #1E2812",
"4+	c #0E0E08",
"5+	c #394524",
"6+	c #6F7C5C",
"7+	c #AFB89F",
"8+	c #BBC0AA",
"9+	c #A7AD97",
"0+	c #5B6352",
"a+	c #202713",
"b+	c #081201",
"c+	c #070706",
"d+	c #0F1104",
"e+	c #24291D",
"f+	c #707A5F",
"g+	c #AFB79E",
"h+	c #BCC5B3",
"i+	c #A7B399",
"j+	c #6E7B55",
"k+	c #353E24",
"l+	c #121410",
"m+	c #0A0B03",
"n+	c #2A2E1E",
"o+	c #526241",
"p+	c #A0A98B",
"q+	c #BDC3AD",
"r+	c #B9C7A9",
"s+	c #7B886B",
"t+	c #353E2A",
"u+	c #14150C",
"v+	c #0D0D05",
"w+	c #15150F",
"x+	c #828E6E",
"y+	c #BBC4B2",
"z+	c #9FAA89",
"A+	c #5A6247",
"B+	c #272D1B",
"C+	c #090F02",
"D+	c #1B1B0E",
"E+	c #3E4931",
"F+	c #869776",
"G+	c #B8C4A9",
"H+	c #BDC3B3",
"I+	c #A1AE90",
"J+	c #535B42",
"K+	c #1D1F12",
"L+	c #040403",
"M+	c #1F260F",
"N+	c #485535",
"O+	c #BBC1AB",
"P+	c #BFC9B8",
"Q+	c #BCC4AD",
"R+	c #838E73",
"S+	c #485031",
"T+	c #16190C",
"U+	c #0B1308",
"V+	c #2D381F",
"W+	c #686D57",
"X+	c #B5BAAE",
"Y+	c #C7CDB6",
"Z+	c #AFB89E",
"`+	c #627056",
" @	c #28301C",
".@	c #0B0D05",
"+@	c #141610",
"@@	c #303926",
"#@	c #71775A",
"$@	c #C3CEB0",
"%@	c #C3CDBB",
"&@	c #AEB6A3",
"*@	c #6C7753",
"=@	c #3E4528",
"-@	c #37402B",
";@	c #53623F",
">@	c #97A380",
",@	c #BFCBB9",
"'@	c #CBCEC3",
")@	c #96A687",
"!@	c #38432D",
"~@	c #16180E",
"{@	c #020301",
"]@	c #050E00",
"^@	c #181917",
"/@	c #415131",
"(@	c #CCCEBD",
"_@	c #CBCCBB",
":@	c #ADB69B",
"<@	c #899877",
"[@	c #839272",
"}@	c #9EAD8C",
"|@	c #C6C9B4",
"1@	c #CACEBC",
"2@	c #A9B7A0",
"3@	c #4E593E",
"4@	c #242D14",
"5@	c #0C0C05",
"6@	c #2A3819",
"7@	c #606D50",
"8@	c #C8C9B7",
"9@	c #CDCEC2",
"0@	c #CDCECC",
"a@	c #CDCDC3",
"b@	c #CDCDBD",
"c@	c #CDCEC9",
"d@	c #CECEBF",
"e@	c #C4CCB2",
"f@	c #707A5A",
"g@	c #2D381E",
"h@	c #0A0A04",
"i@	c #061100",
"j@	c #212121",
"k@	c #1E1E1E",
"l@	c #242424",
"m@	c #222222",
"n@	c #202020",
"o@	c #181818",
"p@	c #121212",
"q@	c #2D2D2D",
"r@	c #444538",
"s@	c #5A6154",
"t@	c #87937A",
"u@	c #A9B39F",
"v@	c #B0B6A4",
"w@	c #B0B2AD",
"x@	c #B0AFB2",
"y@	c #AFB4A7",
"z@	c #AFB0B1",
"A@	c #B5B5AB",
"B@	c #525C4B",
"C@	c #282C28",
"D@	c #757575",
"E@	c #B6B6B6",
"F@	c #909090",
"G@	c #727272",
"H@	c #858585",
"I@	c #C3C3C3",
"J@	c #999999",
"K@	c #747474",
"L@	c #7F7F7F",
"M@	c #A4A4A4",
"N@	c #969696",
"O@	c #3D3D3D",
"P@	c #5F5F5F",
"Q@	c #EEEEEE",
"R@	c #FBFAFB",
"S@	c #C1BCC6",
"T@	c #77757C",
"U@	c #3C3648",
"V@	c #35323B",
"W@	c #2C2733",
"X@	c #2D2939",
"Y@	c #33353B",
"Z@	c #45494C",
"`@	c #6D687F",
" #	c #868294",
".#	c #818181",
"+#	c #484848",
"@#	c #0E0E0E",
"##	c #1A1A1A",
"$#	c #777777",
"%#	c #828282",
"&#	c #939393",
"*#	c #626262",
"=#	c #141414",
"-#	c #040409",
";#	c #131313",
">#	c #BCBCBC",
",#	c #BFBFBF",
"'#	c #3F3F3F",
")#	c #1D1D1D",
"!#	c #9A9A9A",
"~#	c #CBCBCB",
"{#	c #4E4E4E",
"]#	c #C5C5C5",
"^#	c #646464",
"/#	c #5F5F62",
"(#	c #EEEEEF",
"_#	c #A5A5A5",
":#	c #4B4C4A",
"<#	c #292C23",
"[#	c #60625A",
"}#	c #7E7E72",
"|#	c #3A3738",
"1#	c #211C29",
"2#	c #71746A",
"3#	c #A1AD96",
"4#	c #262C20",
"5#	c #8E8E8E",
"6#	c #B7B7B7",
"7#	c #515153",
"8#	c #040405",
"9#	c #232323",
"0#	c #868686",
"a#	c #A8A8A8",
"b#	c #5D5D5D",
"c#	c #363636",
"d#	c #303030",
"e#	c #464646",
"f#	c #414141",
"g#	c #111111",
"h#	c #BDBDBD",
"i#	c #1B1B1B",
"j#	c #989898",
"k#	c #C8C8C8",
"l#	c #4A4A4A",
"m#	c #161616",
"n#	c #7B7B7B",
"o#	c #C4C4C4",
"p#	c #040601",
"q#	c #2A3318",
"r#	c #82876D",
"s#	c #CACCBD",
"t#	c #5B5D55",
"u#	c #10100C",
"v#	c #AAAEA3",
"w#	c #CBD3CA",
"x#	c #37422B",
"y#	c #9E9E9E",
"z#	c #8F8F92",
"A#	c #111113",
"B#	c #272727",
"C#	c #494949",
"D#	c #595959",
"E#	c #636363",
"F#	c #666666",
"G#	c #424242",
"H#	c #5F5F63",
"I#	c #13160F",
"J#	c #3C4726",
"K#	c #8D9379",
"L#	c #C8D1BE",
"M#	c #5C6553",
"N#	c #151807",
"O#	c #ACB2A3",
"P#	c #CBD3C1",
"Q#	c #424F34",
"R#	c #1A220E",
"S#	c #151613",
"T#	c #939590",
"U#	c #929297",
"V#	c #131317",
"W#	c #383838",
"X#	c #252525",
"Y#	c #535353",
"Z#	c #A9A9A9",
"`#	c #A6A6A6",
" $	c #2C2C2C",
".$	c #353535",
"+$	c #171717",
"@$	c #B0B0B0",
"#$	c #404040",
"$$	c #6C6C6C",
"%$	c #ACACAC",
"&$	c #575757",
"*$	c #5F5F61",
"=$	c #070807",
"-$	c #202D18",
";$	c #5C6948",
">$	c #AEB69C",
",$	c #D2DCC9",
"'$	c #565C52",
")$	c #0A1302",
"!$	c #AEB7A8",
"~$	c #CCD5BC",
"{$	c #657555",
"]$	c #28301D",
"^$	c #1D1C17",
"/$	c #8E8C90",
"($	c #959894",
"_$	c #151714",
":$	c #505050",
"<$	c #878787",
"[$	c #737373",
"}$	c #8A8A8A",
"|$	c #AAAAAA",
"1$	c #7C7C7C",
"2$	c #1F1F1F",
"3$	c #4C4C4C",
"4$	c #171F0B",
"5$	c #868D76",
"6$	c #C2CBB1",
"7$	c #D3D8C7",
"8$	c #B1B5AE",
"9$	c #9B9D90",
"0$	c #C6C7B7",
"a$	c #D3DAC8",
"b$	c #949E7E",
"c$	c #48543C",
"d$	c #1C1C1B",
"e$	c #2E2E2F",
"f$	c #323331",
"g$	c #040504",
"h$	c #1C1C1C",
"i$	c #111108",
"j$	c #2A391A",
"k$	c #5C6B51",
"l$	c #B4C0A3",
"m$	c #CDD2BC",
"n$	c #D1D5C4",
"o$	c #CED6C2",
"p$	c #CBCDC5",
"q$	c #CDD3C0",
"r$	c #CFD0BF",
"s$	c #C8D0BC",
"t$	c #737B5E",
"u$	c #353C28",
"v$	c #131807",
"w$	c #061300",
"x$	c #425131",
"y$	c #969D82",
"z$	c #CED0CC",
"A$	c #CBD3C3",
"B$	c #A1AA8C",
"C$	c #717958",
"D$	c #7B885E",
"E$	c #B5B9AC",
"F$	c #CDD3BD",
"G$	c #CCCDBD",
"H$	c #A9AC96",
"I$	c #4F5839",
"J$	c #23291B",
"K$	c #0B0C04",
"L$	c #060607",
"M$	c #050903",
"N$	c #2F3624",
"O$	c #667055",
"P$	c #B9C3A8",
"Q$	c #CECFBE",
"R$	c #AEB59F",
"S$	c #5D6D48",
"T$	c #2B311A",
"U$	c #2F3820",
"V$	c #53623D",
"W$	c #B3B8A2",
"X$	c #CED5C9",
"Y$	c #C1C4B3",
"Z$	c #7B8A68",
"`$	c #364526",
" %	c #1A2713",
".%	c #455031",
"+%	c #9AA989",
"@%	c #CECFBD",
"#%	c #C6C9B8",
"$%	c #87907D",
"%%	c #344123",
"&%	c #101707",
"*%	c #14160B",
"=%	c #2B361B",
"-%	c #687857",
";%	c #CED3BE",
">%	c #C9CCC1",
",%	c #A1AD90",
"'%	c #5A634C",
")%	c #2A321C",
"!%	c #0B0C05",
"~%	c #090B02",
"{%	c #070C05",
"]%	c #0D130C",
"^%	c #303924",
"/%	c #737F5F",
"(%	c #BCC4B1",
"_%	c #CED0BD",
":%	c #AFB69D",
"<%	c #4C573B",
"[%	c #1C2511",
"}%	c #080E02",
"|%	c #0B0F04",
"1%	c #334226",
"2%	c #989F84",
"3%	c #CED2BD",
"4%	c #C3C8B5",
"5%	c #939B85",
"6%	c #505F3C",
"7%	c #1E2617",
"8%	c #080F04",
"9%	c #0A0B09",
"0%	c #080803",
"a%	c #0C0C07",
"b%	c #23281D",
"c%	c #4E5D3D",
"d%	c #A3AC8B",
"e%	c #BCC6AF",
"f%	c #7B8969",
"g%	c #29361B",
"h%	c #0C100A",
"i%	c #171E13",
"j%	c #41502D",
"k%	c #A3AE93",
"l%	c #C8CEBD",
"m%	c #C0C3B0",
"n%	c #7F8C69",
"o%	c #3D4732",
"p%	c #15170D",
"q%	c #0B0B0A",
"r%	c #050509",
"s%	c #14140A",
"t%	c #3B4028",
"u%	c #7B8A6A",
"v%	c #B4C2A6",
"w%	c #C3CEB8",
"x%	c #B0B9A2",
"y%	c #3E4B2D",
"z%	c #242B13",
"A%	c #677658",
"B%	c #C6CEB9",
"C%	c #BFCBB3",
"D%	c #A0B091",
"E%	c #5F6A4C",
"F%	c #2C2E1B",
"G%	c #050503",
"H%	c #0C0C09",
"I%	c #222915",
"J%	c #53603E",
"K%	c #A2B392",
"L%	c #BCC2AE",
"M%	c #C2C6B3",
"N%	c #646A54",
"O%	c #272A16",
"P%	c #1B1B0B",
"Q%	c #3D412C",
"R%	c #8F947F",
"S%	c #C4C8B6",
"T%	c #B9C4A9",
"U%	c #81906F",
"V%	c #3C4926",
"W%	c #161813",
"X%	c #060603",
"Y%	c #06060C",
"Z%	c #111106",
"`%	c #121512",
" &	c #3C442E",
".&	c #828B6A",
"+&	c #B6BAA4",
"@&	c #BDCAB3",
"#&	c #829172",
"$&	c #364329",
"%&	c #141411",
"&&	c #22261D",
"*&	c #556545",
"=&	c #9FAD92",
"-&	c #BDC5B0",
";&	c #A8AF93",
">&	c #616A48",
",&	c #2C3329",
"'&	c #07090C",
")&	c #051000",
"!&	c #090D03",
"~&	c #283418",
"{&	c #5F6F4F",
"]&	c #9DAC8C",
"^&	c #B9BDA9",
"/&	c #B9C7AF",
"(&	c #4F5838",
"_&	c #1B2208",
":&	c #040B00",
"<&	c #080A03",
"[&	c #313A1A",
"}&	c #7E8A6D",
"|&	c #BAC2AE",
"1&	c #B3BDA2",
"2&	c #889877",
"3&	c #435433",
"4&	c #18210A",
"5&	c #061200",
"6&	c #171C0E",
"7&	c #46532C",
"8&	c #818F6E",
"9&	c #B1B9A2",
"0&	c #B2BDA8",
"a&	c #757E5F",
"b&	c #292F25",
"c&	c #101605",
"d&	c #050602",
"e&	c #1B2211",
"f&	c #464E3A",
"g&	c #919C81",
"h&	c #B7BDAA",
"i&	c #A6B397",
"j&	c #65704D",
"k&	c #33411B",
"l&	c #0F100C",
"m&	c #34382B",
"n&	c #69754E",
"o&	c #A3B191",
"p&	c #AEBDA6",
"q&	c #A5AA93",
"r&	c #4D5C3C",
"s&	c #1C1D11",
"t&	c #0B0E06",
"u&	c #2D341F",
"v&	c #767E63",
"w&	c #A9B49D",
"x&	c #B0BDA7",
"y&	c #95A57B",
"z&	c #4A5230",
"A&	c #232523",
"B&	c #040502",
"C&	c #232A15",
"D&	c #475037",
"E&	c #84906F",
"F&	c #ABB39E",
"G&	c #AFBBA6",
"H&	c #63704D",
"I&	c #2B3816",
"J&	c #111608",
"K&	c #3B4824",
"L&	c #8B9A7D",
"M&	c #B2B9A6",
"N&	c #A2AE95",
"O&	c #6B7752",
"P&	c #2F3724",
"Q&	c #161B0A",
"R&	c #11130F",
"S&	c #3A4928",
"T&	c #6C7958",
"U&	c #9CA88F",
"V&	c #A5AF98",
"W&	c #8D9980",
"X&	c #444D3B",
"Y&	c #192409",
"Z&	c #090E02",
"`&	c #242F18",
" *	c #65705A",
".*	c #9CA88D",
"+*	c #A5AE9B",
"@*	c #91A080",
"#*	c #4F5C3B",
"$*	c #27331B",
"%*	c #2F3A24",
"&*	c #505D3C",
"**	c #778665",
"=*	c #909A7C",
"-*	c #8C9676",
";*	c #5E6747",
">*	c #293220",
",*	c #070E03",
"'*	c #121B0E",
")*	c #3A432B",
"!*	c #788360",
"~*	c #90997D",
"{*	c #8C9877",
"]*	c #657453",
"^*	c #404B2E",
"/*	c #1D2615",
"(*	c #05050B",
"_*	c #1E2310",
":*	c #3A4B2A",
"<*	c #445231",
"[*	c #4F5B3A",
"}*	c #535F3E",
"|*	c #505C3B",
"1*	c #3D472E",
"2*	c #12180D",
"3*	c #090907",
"4*	c #0E0E06",
"5*	c #040703",
"6*	c #262D1C",
"7*	c #465334",
"8*	c #555E3D",
"9*	c #515E3D",
"0*	c #4C5837",
"a*	c #3F4E2D",
"b*	c #2F3C20",
"c*	c #101309",
"d*	c #080805",
"e*	c #0C0F09",
"f*	c #0D0F09",
"g*	c #0B0D09",
"h*	c #131306",
"i*	c #070806",
"j*	c #0B0F09",
"k*	c #0B0D07",
"l*	c #0F1304",
". . + + . . . . . . . . . . . . . . . . . . . . . . . . . . . . . . . . . . . . @ # . ",
"$ % & * . . . . . . = - ; . . . > . . . . @ @ . . . + > . . , ' . . . $ % . . , ) ! . ",
"~ { . . . . . & . + ] ^ / ! @ . ( + & . . _ : ' . < ' [ @ ! } : @ . < | 1 | % 2 3 ~ . ",
". @ 4 . . . . 5 ' 6 7 8 9 0 a b c + * , & d e f @ [ . . g h i j k l m n o p q . r | } ",
"# h _ . . . } ' s t u v w x y z A @ B , < C d _ @ . D . . E F G H I J K L M . < > . 2 ",
"# 4 N O . . < ' P Q R S T U V W X Y 4 Z ` < & . 1 $  .; ..+.@.#.$.%.&.*.=.-.. ;.>.| . ",
",.. ~ % . . . '.$ ).!.~.{.].^./.(._.. $ Z , , . N $ $ :.<.[.}.|.1.2.3.4.5.q O . % $ . ",
"> . . . . . . 6.. ! 7.8.9.0.a.b.c.d.,.-.h . 5 & . e.. f.g.h.i.j.k.l.m.n.C o.~ . . ,.' ",
". > p.$ . . ,.> . . + q.r.s.t.u.v.w.x.y.z.A.+ $ . + B.C.D.E.F.G.H.I.J.$ . $ 2 } . + . ",
". , K.1 . . . . , ; L.< M.N.O.P.Q.R.S.T.' @ # U.% B.V.W.X.Y.Z.`. +.+++# @+[ . . . , . ",
"' ( . . . . . . ,.. . @ #+$+%+&+*+=+-+;+>+/ 4 . . p ,+'+)+!+~+{+]+^++ ; /+~ | , ' ( ' ",
". . | N . . & + . q . (+_+:+<+[+}+|+1+2+3+% . -.@ 4+5+6+7+8+9+0+a+b++ < . K. .} ;.. . ",
". . %  .. . } ' $ D . d c+d+e+f+g+h+i+j+k+l+4 h m+n+o+p+q+r+s+t+u+' + v+ .. . .  .~ . ",
"1 . . . . . . D $ . , } ;.;.w+t+x+h+y+z+A+B+C+; D+E+F+G+H+I+J+K+L+h # ~  .. & & q ~ . ",
"q . . . . . . q $ 5 ' ;.. / : M+N+O+P+Q+R+S+T+U+V+W+X+Y+Z+`+ @.@. 4 $ r . . > , * , . ",
". . . . . . . . . > . . . ; @ +@@@#@$@%@&@*@=@-@;@>@,@'@)@!@~@{@]@; . | . . . . > + . ",
". . . . . . . . . . . < 2 5 < ~ ^@/@O.(@_@:@<@[@}@|@1@2@3@4@5@. @ . . . . . . . ( > . ",
". . . . . . . . . . . . . . p.;.. 6@7@8@9@0@a@b@c@d@e@f@g@[ $ h@> . . . . . . . . i@@ ",
"$ p j@j@k@j@l@l@m@k@n@j@o@ .$ p@q@r@s@t@u@v@w@x@y@z@A@B@C@% D q | p@j@j@k@j@n@p@| 6.. ",
"r D@E@F@G@H@E@I@J@K@L@M@N@O@q P@Q@R@S@T@U@V@W@X@Y@Z@`@ #.#+#@#. ##$#E@F@$#%#&#*#=#-#q ",
";#>#,#'#. )#!#~#{#~ o@L@]#^#1 /#(#_#:#<#[#}#|#1#2#3#4#O@5#6#7#8#9#0#a#b#c#d#e#f#g#. { ",
";#>#h#O@. i#j#k#l#~ m#n#o#^#1 /#(#o@p#q#r#s#t#u#v#w#x#} i#y#z#A#O B#C#D#E#F#*#G#U.. . ",
";#>#h#O@. i#j#k#l#~ m#n#o#^#1 H#(#q I#J#K#L#M#N#O#P#Q#R#S#T#U#V#U.W#f#m@X#Y#Z#`# $* ' ",
"p _#_#.$. +$H@@$#$~ ;#$$%$&$r *$(#=$-$;$>$,$'$)$!$~${$]$^$/$($_$U.:$<$n#[$}$|$1$i#& + ",
"| )#)#O . % +$2$D . | ;#k@U.~ j@3$4$<+5$6$7$8$9$0$a$b$c$d$e$f$g$~ @#h$2$k@n@2$p@i$> . ",
"@ i@. . . . . . . . . . . . . ~ % j$k$l$m$n$o$p$q$r$s$t$u$v$~ . . . . . . . . . + . w$",
". + ' . . . $ . . . ' . $ $ ]@g ^@x$y$z$A$B$C$D$E$F$G$H$I$J$K$. . . . . . . . . . . . ",
";.> [ . . . -#L$. , ( .  . .! M$N$O$P$Q$R$S$T$U$V$W$X$Y$Z$`$l ' . . . . . . . . . > + ",
"( . @ g . . . { $ . ' ;.. ! /+ %.%+%@%#%$%%%&%*%=%-%;%>%,%'%)%!%-.# . ' . . . . . [ ' ",
". ' ~%_ . . . . } . , } N {%]%^%/%(%_%:%<%[%}%! |%1%2%3%4%5%6%7%8%9%$ > . . . . . . . ",
". ' 0%. . . . . 2 ' 2 . N a%b%c%d%a@e%f%g%h%. . . i%j%k%l%m%n%o%p%q%. ' } . . . . . 5 ",
". . g / . . * , r%+ & ;.0%s%t%u%v%w%x%y%T+% O U.|  .z%A%B%C%D%E%F%G%( + & . . . . . 0%",
"' ( @ ! . . > + C '.. ' H%I%J%K%L%M%N%O%( . % K.$ . P%Q%R%S%T%U%V%W%X%. . . . . . . . ",
"Y%, . . . . . Z%$ 6.g /+`% &.&+&@&#&$&%&' B _ . i@@ f.&&*&=&-&;&>&,&- i@. . . . . . . ",
"y.> p.. . . $ $ = '&)&!&~&{&]&^&/&(&_&$ / :&. . # w$. <&[&}&|&1&2&3&4&! )&. . . . . w$",
"5&6.. . . . U.| . . ~ 6&7&8&9&0&a&b&c&. ~ ~ . . . % . d&e&f&g&h&i&j&k&K.. . . . . , . ",
"$ o.> . . . . . & + l&m&n&o&p&q&r&s&g . q O . . . p . # t&u&v&w&x&y&z&A&;.' , . . ( ' ",
". , 2 . . . . q ( B&C&D&E&F&G&H&I&@ h , ;.. . . . . 0%; B J&K&L&M&N&O&P&Q&& a%% . . . ",
"+ } . . . . . r $ R&S&T&U&V&W&X&Y&# . > 5 & . . . * * . . Z&`& *.*+*@*#*$*q K.N . . . ",
"+ 0%. . . . r ~ ) %*&***=*-*;*>*,*$ D . > ;.. . . } . | O ! '*)*!*~*{*]*^*/*4  .% . . ",
". 6.(*` . . N $ _*:*<*[*}*|*1*2*y.$ 3*5 . . . . . . ' 4*N . 5*6*7*8*9*0*a*b*c*% ~ . . ",
". = d 6.. 5 )$; d*e*e*f*f*f*g*- Z%. + > . . * h*> . + > . 0%} i*j*f*e*f*e*k*L+:&l*> Z%",
"h*. q { . ' ; . + e.. . . . . . ' . . . } * ' , . . h*;.( + + ( ;.. . . & [ . # {@+ ' "};
