/* XPM */
static char *xmms-liknockzr1[] = {
/* columns rows colors chars-per-pixel */
"43 43 256 2",
"   c #2A6F9E",
".  c #2A76AA",
"X  c #517E98",
"o  c #467898",
"O  c #457EA7",
"+  c #2D81BB",
"@  c #1C8DF9",
"#  c #2888CB",
"$  c #3A95D4",
"%  c #398CC6",
"&  c #2B98FD",
"*  c #3A9BEC",
"=  c #399DF3",
"-  c #278FEF",
";  c #3CA0FD",
":  c #5A829D",
">  c #518BB3",
",  c #53A0BF",
"<  c #718C97",
"1  c #7A9296",
"2  c #628598",
"3  c #688EAA",
"4  c #7796A8",
"5  c #6A96B5",
"6  c #75AB99",
"7  c #79B19A",
"8  c #6DABB1",
"9  c #4893C8",
"0  c #5A9BC9",
"q  c #499CD5",
"w  c #469FE8",
"e  c #4AA1DB",
"r  c #54A5CD",
"t  c #58A5D8",
"y  c #4CA4E8",
"u  c #5FB0F4",
"i  c #52A7ED",
"p  c #659DC6",
"a  c #62A9C6",
"s  c #78ABCA",
"d  c #71ADD9",
"f  c #79B4CA",
"g  c #7AB8D9",
"h  c #67A7D6",
"j  c #62AEE7",
"k  c #64B3F6",
"l  c #79B8E6",
"z  c #70B7EF",
"x  c #B33700",
"c  c #B43105",
"v  c #8D6700",
"b  c #936A01",
"n  c #9C6B00",
"m  c #936905",
"M  c #9A7612",
"N  c #9D7709",
"B  c #9F7E22",
"V  c #B64704",
"C  c #B94715",
"Z  c #B85707",
"A  c #BC5321",
"S  c #A57200",
"D  c #AB7602",
"F  c #BA6708",
"G  c #B37B00",
"H  c #BD7D0A",
"J  c #BC7508",
"K  c #BD7811",
"L  c #A06A00",
"P  c #A07F22",
"I  c #BE6B26",
"U  c #C15E32",
"Y  c #C46E3D",
"T  c #C7744F",
"R  c #C77E66",
"E  c #AD8207",
"W  c #BD8301",
"Q  c #BE840B",
"!  c #BF8B0B",
"~  c #BA8B01",
"^  c #BF8813",
"/  c #B78B13",
"(  c #AD9236",
")  c #B08E33",
"_  c #BDBC31",
"`  c #9DAB5E",
"'  c #9AB767",
"]  c #91B172",
"[  c #AF9142",
"{  c #B79A51",
"}  c #B6996E",
"|  c #A9B352",
" . c #A4BA65",
".. c #A0B478",
"X. c #BCC231",
"o. c #9CC07A",
"O. c #B9C845",
"+. c #B3C350",
"@. c #B1CB74",
"#. c #C68C02",
"$. c #C0940C",
"%. c #C99505",
"&. c #C39516",
"*. c #D19600",
"=. c #D49A01",
"-. c #D89E00",
";. c #C29628",
":. c #C49D38",
">. c #DBA406",
",. c #DEA913",
"<. c #DEA711",
"1. c #DDB504",
"2. c #C2A236",
"3. c #E1AC1A",
"4. c #E6B902",
"5. c #E1B51A",
"6. c #E2AD00",
"7. c #E2AF22",
"8. c #E4B32A",
"9. c #E6B838",
"0. c #C79C5A",
"q. c #C39A46",
"w. c #C3987A",
"e. c #D08D6F",
"r. c #C4A647",
"t. c #C8AB57",
"y. c #C9B769",
"u. c #C8BB77",
"i. c #C9AD6C",
"p. c #E8BD46",
"a. c #DBCB09",
"s. c #D6C914",
"d. c #CEC311",
"f. c #C3C932",
"g. c #D4CE2F",
"h. c #E7CA02",
"j. c #ECCB17",
"k. c #EAD404",
"l. c #E9D61A",
"z. c #F5CA02",
"x. c #F7D901",
"c. c #F2D417",
"v. c #E7D829",
"b. c #EBD734",
"n. c #F4DA25",
"m. c #EBCF2E",
"M. c #FAE300",
"N. c #EDE228",
"B. c #EDE138",
"V. c #F7E638",
"C. c #F5E627",
"Z. c #DBD942",
"A. c #D2C677",
"S. c #EBC248",
"D. c #EBC456",
"F. c #F0D94D",
"G. c #EDC965",
"H. c #EDDE77",
"J. c #F1D279",
"K. c #F0D26B",
"L. c #F7E856",
"P. c #F4E746",
"I. c #F9E777",
"U. c #F4E96C",
"Y. c #8D9B96",
"T. c #899CA1",
"R. c #97A59E",
"E. c #87B58F",
"W. c #91AFB1",
"Q. c #BF9D8A",
"!. c #A2AD9E",
"~. c #B3AF91",
"^. c #AAB6A7",
"/. c #ABB9B1",
"(. c #99B7C9",
"). c #8AB8D5",
"_. c #84BDE8",
"`. c #A6BECC",
"'. c #BFD285",
"]. c #ADC98F",
"[. c #A8C9B5",
"{. c #B6C5B3",
"}. c #B4C8AA",
"|. c #96C3D8",
" X c #9BCDF4",
".X c #93C6EB",
"XX c #ABC9C4",
"oX c #A9CADD",
"OX c #BAC9CC",
"+X c #ABD5F7",
"@X c #B7D6E9",
"#X c #B9DDF9",
"$X c #A8CDE9",
"%X c #BBE1FB",
"&X c #CE9A84",
"*X c #C6BC87",
"=X c #D0AF8E",
"-X c #C2D497",
";X c #D3CE8D",
":X c #C4C5A7",
">X c #C6CAB6",
",X c #D7CCA5",
"<X c #D8DAA8",
"1X c #D2D2BA",
"2X c #D9E185",
"3X c #DFE6A6",
"4X c #F2DA86",
"5X c #F3DB95",
"6X c #E8CEAD",
"7X c #F8E589",
"8X c #FEF48A",
"9X c #FEF497",
"0X c #EEE297",
"qX c #EBEAB5",
"wX c #FEF5A5",
"eX c #FEF5B5",
"rX c #F5E7AE",
"tX c #C6C9C7",
"yX c #CAD3C5",
"uX c #CCD3D5",
"iX c #D4D9C8",
"pX c #D8DADA",
"aX c #C4DCE8",
"sX c #D6DEE6",
"dX c #C0DFF9",
"fX c #DDE1DE",
"gX c #D1E1C6",
"hX c #C4E5FD",
"jX c #CCE9FD",
"kX c #CAE6FA",
"lX c #D4EDFD",
"zX c #DBECF9",
"xX c #DCF1FE",
"cX c #D5F3FE",
"vX c #D5E3EA",
"bX c #E2CDC4",
"nX c #EAE6D7",
"mX c #F2ECDC",
"MX c #FAF6CA",
"NX c #FBF8D9",
"BX c #EFECC8",
"VX c #E6E9E8",
"CX c #E5EEF4",
"ZX c #E4F4FE",
"AX c #EBF5FB",
"SX c #EDFAFE",
"DX c #EAF3F6",
"FX c #F2EEE5",
"GX c #F5F2E5",
"HX c #F9F5E6",
"JX c #FAF8EA",
"KX c #F4FBFE",
"LX c #FDFBF4",
"PX c #FCFEFD",
"IX c #F2F7F8",
"UX c #E3F0EB",
/* pixels */
"PXAXDXDXDXDXAXDXAXAXAXAXIXAXAXSXIXAXSXIXSXIXIXAXKXKXKXKXKXKXKXPXKXPXPXKXPXPXPXPXPXPXPX",
"AX# # # # # # # # $ $ $ q q e t j h j z l _..X.X X X+X+X#X#XhXjXjXcXxXZXZXSXSXKXKXPXPX",
"DX# $ # 9 9 q t t t t e t t h h d l _..X X X X X+X+X+X#X%XhXjXjXcXxXZXZXSXSXKXKXKXPXPX",
"CX. % 9 0 5 ).).).).).g h h h d ).`.oXoX@XaX@X#X#X#X#X%XhXjXlXlXxXZXZXSXSXKXKXPXPXPXPX",
"vX. > , f `.$X@X@X%X+X$X).s s ).(.@XaXcXcXcXcXcXhXhXhXhXjXlXlXxXZXZXSXSXKXKXKXIXPX,XLX",
"sX. > 4 Y.{ } } &Xw.Q.OXoX(.W.`.XX=Xw.&X&X&X&X&XsXlXhXjXlXlXxXZXSXSXSXKXKXPXPXPX,Xb FX",
"uX  X 4 } J K Z Z V x } aX/./.{.:XK Z Z V V c R zXlXjXlXcXxXZXZXSXSXKXKXPXPXPX;XM v FX",
"uX  X 1 ^.( J K F Z V I >XyX{.>Xq.F F Z V x A uXZXlXlXxXxXZXZXSXSXKXKXPXPXJXi.M v v FX",
"uX  o < !.~.;.H J F F Z 0.yX>X;X$.J F Z C c =XSXZXxXxXxXZXZXSXSXKXKXPXPXHX{ m v m m FX",
"sX. o 2 Y.{.t.! H J J J Q *X1X) J K Z Z x T AXAXZXxXxXZXZXSXSXKXKXPXPXGX{ m v b L L HX",
"CX. O X 1 R.:X:.Q Q H Q W r.i.^ J F Z V C bXSXZXxXxXZXZXSXKXKXKXPXPXFX{ m b b n L D HX",
"CX% > O 2 T.^.=X^ ! ! ! ! ^ ^ H F Z V x &XSXZXZXZXZXSXSXSXKXKXPXPXFX[ v m m n S G J HX",
"AX9 9 O X 1 R./.y.~ $.$.$.! Q J F V x T DXAXAXZXZXSXSXKXKXPXPXPXmX[ m b b n L G H #.HX",
"AXq 0 9 3 X Y.^.:X2.$.$.$.! H J Z V C 6XKXDXZXAXSXSXSXKXPXKXPXnX( v b m n S G W #.#.HX",
"AXt t 0 > X T.!.}.*X! $.$.! Q F Z V e.KXAXSXZXSXSXSXKXKXPXPXnX) v b b n L G J #.*.=.HX",
"SXt h 0 5 X Y.!.:X;X! $.$.! Q F Z x e.KXKXSXSXSXKXKXKXPXPXnX) v b b n S G W #.*.-.-.JX",
"SXh h p 3 < R.^.:X&.$.$.$.Q Q F Z V C 6XPXIXSXKXKXKXPXPXnX) v v b L S G #.#.*.-.-.-.HX",
"AXh p 5 3 T.^.:Xr.$.$.$.$.$.Q J F Z c A IXPXKXPXPXPXPXnXP v m b L D G H #.#.-.>.<.<.HX",
"DXh p 3 1 R./.*X$.$.$.Q $.$.Q H J Z C x e.PXKXPXKXPXnXB v m b L S G #.#.*.-.>.-.<.3.JX",
"VXp 5 4 R.^.:X;.W Q Q Q W :.r.Q J F Z V c 6XPXPXPXnX) v m b L S G H #.*.-.-.>.3.3.3.JX",
"sX5 4 T.!.>Xt.#.H H J J $.=X<X&.Q J F Z x T HXPXmX( b b b L D G #.#.*.-.-.>.<.3.3.7.JX",
"uX5 T.R./.u.#.H J F F Z 0.iXiXi.Q H J Z V c e.HXu.( M L L D G #.#.*.-.-.<.<.3.7.8.8.JX",
"uX5 T./.}.;.H K F Z V I 1XiX>X1X:.H J Z V x C i.A.2.P S D G H #.*.-.-.-.3.3.7.8.9.9.HX",
"tXT.T./.0.J J F Z Z V =XVXyX>X1X,XJ J Z Z V c A y.t.) D G #.#.*.-.-.3.3.3.3.8.9.p.p.JX",
"tXT.(.Q.Z F Z V V c T IXnXuX>XtXiX0.F Z V V x c :.q.;.J H #.=.-.>.<.<.3.7.8.9.p.S.S.JX",
"sX).`.tX>XbXpXnXFXVXVXDXUXpXuXyXiXpXBX6XA.A.A.y.t.:.;.#.#.=.-.>.>.3.3.3.8.9.p.p.D.D.LX",
"sXoXoX@XvXvXzXDXAXSXSXIXCXVXfXfXVXVX,Xu.y.y.y.t.r.;.&.*.-.-.>.<.3.3.7.8.9.9.p.p.G.G.LX",
"IX+X@XdXkXvXzXCXDXAXSXSXSXAXDXAXVXi.( ( ( q.:.) ;.%.=.-.-.-.>.3.3.7.8.9.p.p.D.G.G.K.LX",
"KX#XdXkXkXlXZXZXSXAXKXKXKXPXKXGX0.M N D E ! ! %.*.>.>.>.>.6.3.3.8.8.m.p.S.F.G.K.4XJ.IX",
"KXhXhXjXlXxXZXDXAXKXKXKXKXKXJXt.E E ~ %.>.>.1.4.4.4.4.4.,.5.5.m.m.V.F.F.F.K.K.J.4X4XIX",
"KXkXhXlXzXCXIXPXLXPXPXPXPXNXF.1.-.>.1.h.k.k.x.M.M.x.x.c.j.j.n.n.C.V.P.P.L.I.J.4X5X5XLX",
"KXhXhXjXzXIXkX#XdXdXdXdX@X'.| a.a.a.f.+.X.O.O.O.O.O.+.v.l.n.b.@.@.@.;X;X-X-X0X7X5X5XLX",
"SXhXhXjXCXPXz = = = = = = q = _ k.a.E.* * * * * * = e @.N.C.@.y * = = = * * [.8XrXrXPX",
"IXjXkXzXCXPXu u +X+X$X..| 6 & _ k.a.6 e ' +.| @.+...* o.C.C.].& E.].].}.}.[.3XwXrXqXLX",
"SXjXkXzXAXPXu _.PXFXm.1.4.` & _ k.h.7 r a.z.x.x.c.l.* @.B.V.].& A.U.U.8X8X9XwXeXeXMXPX",
"IXlXkXzXAXPXu z GXZ.| _ 4.` & _ k.a.7 r s.k.+.+.C.v.* o.B.P.].& W.].[.[.[.XXXXgXMXMXPX",
"SXlXjXzXDXLXu z v.d.q E.z.` & f.k.a.7 e a.l.r a v.N.= ].P.L.].i y y y y y * @ g MXNXPX",
"IXxXzXZXDXPXu 6 a.d.r E.z. .& f.M.k.7 r l.N.a 8 b.B.= ].P.U.U.2X2X3X<X3XqXgXy l NXNXPX",
"SXZXxXCXSXeXj 6 h.d.r ] x. .& f.M.k.7 r v.v., 8 B.P.= ].L.U.U.I.8X8X9XwXeXBXy _.HXJXPX",
"KXSXCXZXmXj., 6 k.s.e ] x.' @ f.M.l.7 e Z.N.r r P.L.- ].U.I.-Xg f g g l g z - l JXLXPX",
"PXDXSXnX_ >.E.' a.a.6 | M.O.8 g.M.l.o.E.b.B.E.[.F.U.f -XI.7X}.j j j j u u j j $XJXPXPX",
"KXPXfXB L ~ %.1.1.4.h.h.z.k.k.h.h.j.v.v.n.B.F.F.L.L.H.H.I.0X9X3XeXqXBXBXNXmXIXLXLXPXPX",
"PXPXIXmXFXFXGXGXGXHXNXHXJXHXNXJXJXJXJXJXLXJXLXJXJXJXJXJXIXIXJXLXLXLXLXLXPXPXPXPXPXPXPX"
};
