/* XPM */
static char *xmms-liknockzr6[] = {
/* columns rows colors chars-per-pixel */
"43 43 217 2",
"   c #7C0000",
".  c #830000",
"X  c #8B0300",
"o  c #950100",
"O  c #960B02",
"+  c #9D0304",
"@  c #A40000",
"#  c #A10C0C",
"$  c #AC0100",
"%  c #AE0B00",
"&  c #A81B00",
"*  c #B30100",
"=  c #BC0000",
"-  c #BC0C00",
";  c #B41400",
":  c #B41B00",
">  c #BB1600",
",  c #BE1C01",
"<  c #AA2700",
"1  c #B72700",
"2  c #B42D00",
"3  c #BD2E03",
"4  c #BD4300",
"5  c #A44A4A",
"6  c #AC4343",
"7  c #AD4D4E",
"8  c #AE5252",
"9  c #B25454",
"0  c #C30000",
"q  c #C50B00",
"w  c #CB0100",
"e  c #C81A00",
"r  c #D30000",
"t  c #D60C00",
"y  c #DC0000",
"u  c #DA0900",
"i  c #DA0B0C",
"p  c #D61000",
"a  c #D71900",
"s  c #D61A08",
"d  c #DD1300",
"f  c #DB1800",
"g  c #C62400",
"h  c #C92500",
"j  c #C73100",
"k  c #C73A00",
"l  c #D72900",
"z  c #D13900",
"x  c #D23635",
"c  c #E30100",
"v  c #E50D00",
"b  c #E90100",
"n  c #E80900",
"m  c #E21000",
"M  c #E71E00",
"N  c #EA1600",
"B  c #EE1A00",
"V  c #E12300",
"C  c #E52C00",
"Z  c #ED2400",
"A  c #EA2C00",
"S  c #E53600",
"D  c #E53D00",
"F  c #EA3300",
"G  c #EC3C01",
"H  c #F22A00",
"J  c #C54A00",
"K  c #C45400",
"L  c #CF5600",
"P  c #CB5900",
"I  c #D24500",
"U  c #D64D02",
"Y  c #DD4C00",
"T  c #D05600",
"R  c #D45A01",
"E  c #DA5500",
"W  c #DC5F00",
"Q  c #CD6900",
"!  c #DF7600",
"~  c #DE7D00",
"^  c #E34700",
"/  c #EE4F08",
"(  c #EC5C00",
")  c #F24100",
"_  c #F44900",
"`  c #F35301",
"'  c #F35B00",
"]  c #FD5300",
"[  c #FE5D00",
"{  c #E26200",
"}  c #E46D00",
"|  c #EA6A00",
" . c #E47500",
".. c #F46400",
"X. c #F26902",
"o. c #FE6600",
"O. c #FE6C01",
"+. c #F1760A",
"@. c #F27C00",
"#. c #FE7300",
"$. c #FE7B00",
"%. c #F6792B",
"&. c #C24F4F",
"*. c #C94848",
"=. c #C05959",
"-. c #D94949",
";. c #D25B5C",
":. c #CF6767",
">. c #D77C7C",
",. c #D87F81",
"<. c #D48400",
"1. c #E48300",
"2. c #EB8200",
"3. c #EC8900",
"4. c #EA9400",
"5. c #EF9901",
"6. c #F18600",
"7. c #F28800",
"8. c #FE8300",
"9. c #FE8B00",
"0. c #F29D00",
"q. c #FE9300",
"w. c #FD9209",
"e. c #FE9B00",
"r. c #FD9D09",
"t. c #E4A900",
"y. c #EFA400",
"u. c #E9AF00",
"i. c #F3A100",
"p. c #F1A900",
"a. c #FEA300",
"s. c #FEA10E",
"d. c #FEAB00",
"f. c #F5B700",
"g. c #FEB400",
"h. c #FEBB00",
"j. c #FEBC2C",
"k. c #FEB733",
"l. c #FEC400",
"z. c #FECB00",
"x. c #F1D100",
"c. c #FED400",
"v. c #FEDC00",
"b. c #FED21E",
"n. c #FED535",
"m. c #FEE400",
"M. c #FEEB00",
"N. c #FFEC0F",
"B. c #FFEB14",
"V. c #FFEB1A",
"C. c #FEF300",
"Z. c #FFF60B",
"A. c #FEFB00",
"S. c #FFFC0B",
"D. c #FFF519",
"F. c #FFF912",
"G. c #FFEA2B",
"H. c #FFF23F",
"J. c #FFFE3B",
"K. c #FFD55A",
"L. c #FFDD6C",
"P. c #FFDE70",
"I. c #FFE542",
"U. c #FFE657",
"Y. c #FFEE5C",
"T. c #FFF446",
"R. c #FFF24B",
"E. c #FFFB44",
"W. c #FFFC4A",
"Q. c #FFF252",
"!. c #FFF15F",
"~. c #FFFC5B",
"^. c #FFE16C",
"/. c #FFE47E",
"(. c #FFF363",
"). c #FFF172",
"_. c #EFAEAF",
"`. c #E4BAB9",
"'. c #EBB2B6",
"]. c #F0B1B5",
"[. c #F4BAB3",
"{. c #FFCB89",
"}. c #FED481",
"|. c #FFD68D",
" X c #FEDD84",
".X c #F7C4A8",
"XX c #FCD4B6",
"oX c #FFE186",
"OX c #FFFA86",
"+X c #FFFD8B",
"@X c #FFFA9A",
"#X c #FFFCB6",
"$X c #FFFCBA",
"%X c #EDD7D7",
"&X c #F1CDCC",
"*X c #F4CFD2",
"=X c #F3D3D4",
"-X c #F6D5D9",
";X c #F4DCDC",
":X c #FBDED7",
">X c #F8DEDE",
",X c #FCE0D7",
"<X c #FFEFD3",
"1X c #FFFDC3",
"2X c #FFFDCC",
"3X c #FFF1DF",
"4X c #FFFDD3",
"5X c #FFFEDD",
"6X c #F7E7E7",
"7X c #FEEFE5",
"8X c #FDEAEC",
"9X c #FEF2E6",
"0X c #FFF1E8",
"qX c #FFFEE3",
"wX c #FFFDEC",
"eX c #FFFDF4",
"rX c #FEFEFD",
/* pixels */
"rX9X8X7X7X8X0X0X0X0X0X0X9X9X7X7X9X7X3X7X9X7X3X3X3X3X9X9X9X7X7X6X6X6X7X8X7X0X7X0X0X8XrX",
"7Xo.O.o.O.O.o.o.o.o.O.#.$.$.8.8.9.q.q.q.q.q.q.q.q.q.9.8.#.o.o., @ * ] o.o.o.o.o.O.o.7X",
"7Xo.#.#.O.O.#.O.#.#.$.8.8.q.q.e.e.a.a.d.d.d.d.d.d.a.e.q.#.$.U @ * = ) o.O.O.#.O.#.O.0X",
"7Xo.O.O.O.O.O.#.$.$.8.9.q.e.a.a.d.g.g.g.h.g.h.g.g.g.a.9.9.6.: $ - 0 l o.O.O.O.O.O.o.0X",
"9Xo.O.O.O.O.#.$.8.8.q.e.a.d.g.g.h.l.l.z.z.z.z.z.l.h.d.9.a.L @ * 0 w f O.#.#.O.O.O.O.0X",
"9Xo.O.O.#.#.#.8.9.q.e.a.d.g.h.z.z.c.c.c.v.v.v.v.c.l.d.g.4.% * 0 0 r F $.$.#.#.O.O.o.0X",
"9Xo.O.O.#.#.8.9.q.e.a.d.g.l.z.c.v.v.m.M.M.M.M.m.v.z.g.l.J $ - 0 r d O.8.8.8.$.#.O.o.8X",
"9Xo.O.#.$.8.9.q.e.a.d.g.h.z.c.v.M.M.C.C.C.C.C.M.v.l.c.t.@ = 0 w r ..9.q.9.9.$.$.#.o.0X",
"7Xo.#.#.$.9.q.e.a.a.a.E : 4.c.m.C.C.A.A.A.A.A.M.c.z.v.1 * 0 w r D q.e.a.e.q.8.$.$.o.9X",
"3Xo.#.$.8.q.e.a.e.a.7.* * * 1.M.C.A.A.A.A.A.C.m.z.m.<.* = 0 r y 9.g.d.g.a.e.q.8.$.O.0X",
"9XO.$.8.9.e.a.a.a.d.3.* - = - i.M.C.A.A.A.A.M.z.z.x.% * 0 w r ..g.h.l.h.g.d.e.9.8.#.9X",
"7XO.$.8.q.a.d.d.a.h.{ w w w 0 h f.M.M.C.C.M.v.h.M.K $ = w r V p.z.z.c.z.h.d.e.q.9.#.9X",
"9X#.8.9.e.d.g.g.d.z.| r r r w 0 z l.m.m.v.v.h.z.t.% * 0 w r @.c.c.v.v.c.l.h.a.e.9.$.8X",
"9X#.8.q.a.g.h.h.d.c.c.C y u r r 0 E c.l.z.h.d.z.1 $ * 0 w ^ l.c.m.M.M.v.z.h.d.a.q.8.0X",
"9X$.9.e.a.h.l.l.h.l.C.g.N c y r w 0 W h.d.e.l.Q @ $ 0 w t 7.c.v.C.C.C.v.c.z.g.d.e.8.0X",
"7X$.q.e.d.h.z.c.c.l.v.A.7.b c y r 0 % } e.e.0.& @ * 0 w ^ c.z.M.A.A.C.M.v.z.h.d.e.q.0X",
"7X$.q.a.g.l.c.v.v.c.l.M.C...b c r w * > 2.g.3 o * - w a i.h.v.C.A.A.S.M.v.c.l.d.a.9.0X",
"0X8.e.a.g.l.c.m.M.N.z.z.M.v.) y r r 0 @ 3 R O + * 0 w ( h.l.m.A.A.A.A.C.m.c.l.g.a.q.0X",
"9X9.e.a.h.l.c.m.C.C.m.z.l.v.h.Z y r 0 $ +   . + * 0 a r.d.z.m.C.A.A.A.C.M.c.z.g.d.q.0X",
"9X8.r.d.h.b.I.Q.~.W.W.U.K.b.c.q.v r x *.9 8 6 &.;.-.| e.h.c.M.D.W.~.E.C.M.v.z.g.d.e.0X",
"9X9.e.d.g./.rX4X#XrXeX$X5X<Xn.l...i >XrX`.%XrX%X'.rX{.r.h.c.V.$XqX$XrX@XN.v.z.h.d.q.wX",
"9X9.e.d.h.^.rXT.C.1X5XM.I.rX|.h.d./ *X&Xo 5 eX&.* .XeXk.l.v.).rXE.A.J.OXV.v.z.h.d.q.0X",
"0X9.e.s.h.P.rX(.C.4XqXF.R.rX}.d.g.w.,X;X# 9 rX_.q XXeXj.z.v.B.$XwX$X+XC.m.v.z.h.d.q.8X",
"9X8.r.d.g.^.rX!.C.2XqXS.T.rX Xd.g.r.,X;X+ 7 rX>.0 [.eXj.z.v.M.Z.E.~.wX1XV.c.l.g.d.q.0X",
"7X8.e.s.g.L.rX(.C.4XqXS.E.rX Xd.h.+.-X;X+ 8 rX>.= ].eXj.z.v.Q.qXW.A.#XwXG.c.l.g.a.q.0X",
"9X8.q.a.d.L.rXY.M.2X5XS.E.rX Xh.l.s =X=X+ 7 rX>.0 _.8X%.z.v.C.+XeXwXwXH.v.c.l.g.a.q.wX",
"9X8.q.e.d.h.z.v.M.C.A.A.C.v.h.v.| w = * o X o $ = r r n 8.v.M.A.A.S.C.M.v.z.h.d.e.9.0X",
"9X$.9.e.d.h.l.v.m.C.A.A.M.z.c.l.t 0 * $ X K L @ = w y c B d.M.C.A.A.C.m.v.l.g.d.e.8.0X",
"7X#.9.q.a.g.h.c.v.M.C.C.v.l.M.^ r 0 = @ < 5.d.k * w r y c H l.M.C.C.M.v.z.h.d.a.q.8.0X",
"7X#.8.9.e.d.h.l.c.m.M.v.l.M.i.u w 0 * @ <.M.c.f.h 0 r y c b _ v.M.M.v.c.z.h.d.e.9.$.0X",
"7X#.$.9.q.a.d.l.z.c.v.z.l.v.D r w 0 $ 4 m.c.v.C.p.q w r y c c ' c.v.v.z.h.d.e.q.9.$.0X",
"9Xo.$.8.q.e.a.g.l.z.l.g.v.6.y r w * ; u.z.l.z.v.A.4.0 r r y y m d.c.z.h.g.d.e.9.8.#.0X",
"9Xo.#.$.9.q.e.d.g.g.d.h.g.M r r 0 * P v.z.v.c.z.M.C. .0 w r r t i.z.l.g.d.e.q.9.$.O.0X",
"9Xo.#.$.$.9.q.a.a.a.e.l.` y u w 0 > l.z.m.C.M.c.z.M.m.E 0 q 0 Y d.h.g.d.a.q.8.$.$.o.8X",
"0Xo.O.#.#.8.9.q.q.9.a.7.b y r w *  .l.c.M.C.M.v.z.l.v.m. .h E a.d.d.d.a.q.9.8.$.#.o.7X",
"7Xo.O.o.#.$.8.8.8.8.q.G y r w = j h.l.v.M.M.m.v.c.h.g.h.h.g.a.e.a.a.e.q.9.$.$.#.O.o.0X",
"0Xo.O.O.O.#.$.$.#.8.#.y y r 0 * 3.d.h.c.v.v.v.v.z.l.g.a.e.e.e.e.a.e.q.9.8.$.#.O.#.o.0X",
"0Xo.O.O.O.O.O.o.o.#.A r r w = I q.d.h.l.z.z.z.z.l.h.h.d.a.e.a.e.q.q.8.8.$.#.O.O.O.O.0X",
"0XO.O.O.O.O.O.o.o.o.m r w 0 > @.9.a.g.g.h.h.h.h.h.g.d.d.a.e.e.q.9.8.$.$.O.O.O.O.O.o.0X",
"0Xo.#.O.O.O.o.o.[ O.S 0 0 * Y $.9.e.a.a.d.d.d.d.d.a.a.e.e.q.9.8.8.$.#.#.O.O.O.O.#.o.0X",
"8XO.#.#.O.O.O.[ ] o.` = * , ..$.9.q.q.e.r.e.e.e.r.q.q.q.9.9.8.$.$.#.O.#.O.O.O.#.O.O.0X",
"7X[ O.o.o.o.o.o.] ] o.l e ` [ O.$.8.8.8.9.8.9.9.8.8.8.8.$.#.#.#.O.o.o.o.O.o.O.o.o.o.7X",
"rX7X0X0X8X0X0X0X7X7X8X0X7X0X8X0X0X0X0X0X7X0X0X0X0X0X0X0X8X0X0X0X8X0X0X0X8X0X0X0X8X7XrX"
};
