/* XPM */
static char *xmms-tony2[] = {
/* columns rows colors chars-per-pixel */
"43 43 203 2",
"   c #5F64BF",
".  c #674EAE",
"X  c #694EAD",
"o  c #684FB0",
"O  c #6750AF",
"+  c #6B51AF",
"@  c #6654B3",
"#  c #6557B8",
"$  c #6459B7",
"%  c #635CBA",
"&  c #6B55B3",
"*  c #6B59B5",
"=  c #695DB9",
"-  c #715EB7",
";  c #6162BE",
":  c #6A63BC",
">  c #6E68BF",
",  c #7467BD",
"<  c #7169BF",
"1  c #5F66C1",
"2  c #5D6BC4",
"3  c #5C6EC8",
"4  c #5776CC",
"5  c #567ACE",
"6  c #5B70C7",
"7  c #5A73CA",
"8  c #5C7BCD",
"9  c #547DD1",
"0  c #5A7FD0",
"q  c #6066C0",
"w  c #636BC3",
"e  c #6B6EC3",
"r  c #6271C7",
"t  c #6275C9",
"y  c #617CCE",
"u  c #6D73C6",
"i  c #6A75C8",
"p  c #6B7BCB",
"a  c #607ED0",
"s  c #716DC2",
"d  c #7677C6",
"f  c #7076C8",
"g  c #757DCA",
"h  c #7A71C2",
"j  c #7D79C5",
"k  c #4E86D6",
"l  c #4F87D8",
"z  c #4D89D7",
"x  c #4C8BD9",
"c  c #4A90DC",
"v  c #5183D4",
"b  c #558AD7",
"n  c #558CD8",
"m  c #5B83D2",
"M  c #5D8AD6",
"N  c #5A8DD8",
"B  c #5492DC",
"V  c #5B93DB",
"C  c #5B98DE",
"Z  c #5E9DE0",
"A  c #6C81CE",
"S  c #6582D0",
"D  c #648BD5",
"F  c #6B85D1",
"G  c #6C8CD4",
"H  c #6592D9",
"J  c #649BDE",
"K  c #6C90D7",
"L  c #6C94D9",
"P  c #6B9ADC",
"I  c #7382CD",
"U  c #7C84CD",
"Y  c #7B88CE",
"T  c #7286D1",
"R  c #748BD3",
"E  c #7A8DD2",
"W  c #7592D7",
"Q  c #7195D9",
"!  c #709DDD",
"~  c #7B94D6",
"^  c #7A97D9",
"/  c #7C9ADA",
"(  c #639FE1",
")  c #689FE0",
"_  c #74A0DF",
"`  c #7FA2DE",
"'  c #64A1E1",
"]  c #6CA4E2",
"[  c #74A4E1",
"{  c #74A9E3",
"}  c #7FA7E0",
"|  c #7BACE4",
" . c #7EB4E7",
".. c #7FB5E8",
"X. c #847BC4",
"o. c #807EC8",
"O. c #8283CB",
"+. c #838ACF",
"@. c #818CD1",
"#. c #8293D4",
"$. c #829CDA",
"%. c #8B95D4",
"&. c #8C99D6",
"*. c #9190CF",
"=. c #9396D4",
"-. c #949CD6",
";. c #949ED8",
":. c #9A9ED6",
">. c #82A2DD",
",. c #87A9DF",
"<. c #8CA2DC",
"1. c #8BA9DF",
"2. c #93A4DB",
"3. c #95ABDF",
"4. c #9BA5DA",
"5. c #9BABDE",
"6. c #82A7E1",
"7. c #84AAE1",
"8. c #8BACE1",
"9. c #84B2E6",
"0. c #80B4E8",
"q. c #80B8E9",
"w. c #8AB3E5",
"e. c #8EB7E8",
"r. c #8EB9E7",
"t. c #8ABCEA",
"y. c #94AEE1",
"u. c #9BADE0",
"i. c #95B4E4",
"p. c #95B8E6",
"a. c #92BCE9",
"s. c #9CB3E2",
"d. c #9CBAE6",
"f. c #A1A4D9",
"g. c #A4ACDD",
"h. c #ACADDD",
"j. c #AFB1DF",
"k. c #BBB3DD",
"l. c #A1AFE0",
"z. c #A2B4E2",
"x. c #A3BBE5",
"c. c #AAB4E1",
"v. c #ACBCE5",
"b. c #B2B4E0",
"n. c #B6B9E1",
"m. c #B9B6E0",
"M. c #BABBE3",
"N. c #93C1EC",
"B. c #94CAEE",
"V. c #9BC4EC",
"C. c #9DC9EE",
"Z. c #9CCEF0",
"A. c #A4C3EA",
"S. c #A4CBEE",
"D. c #ADC1E7",
"F. c #ABC5EA",
"G. c #ABCAEC",
"H. c #AFD0EF",
"J. c #A3D2F1",
"K. c #AAD7F3",
"L. c #AEDAF4",
"P. c #B3C2E6",
"I. c #B1C5E9",
"U. c #B3CBEC",
"Y. c #BCC3E6",
"T. c #BFC6E8",
"R. c #BBCCEC",
"E. c #B5D1EF",
"W. c #BCD2EF",
"Q. c #B4D4F1",
"!. c #B5DAF4",
"~. c #BCD5F0",
"^. c #BCDBF3",
"/. c #B6E2F7",
"(. c #BCE1F6",
"). c #BCE6F8",
"_. c #BFE9F9",
"`. c #C5BDE1",
"'. c #C5C4E5",
"]. c #C7CEEB",
"[. c #CEC6E5",
"{. c #CDC9E7",
"}. c #CCCDEA",
"|. c #C6D2ED",
" X c #CCD4EE",
".X c #CFD9EF",
"XX c #C3D7F0",
"oX c #C4DDF3",
"OX c #CAD6F1",
"+X c #CCDCF2",
"@X c #D0D5EE",
"#X c #D1DBF1",
"$X c #C4E3F6",
"%X c #C1E5F8",
"&X c #C3EAF9",
"*X c #CBE4F6",
"=X c #CAE7F8",
"-X c #CBEBFA",
";X c #CFF1FC",
":X c #D0E3F5",
">X c #D0E7F8",
",X c #D1ECFA",
"<X c #D0F2FD",
/* pixels */
"5 4 5 k x x z 5 1 1 1 2 2 1 $ # # # # ; 2 2 7 4 4 4 v l x x l 5 4 4 7 1 $ $ ; 1 3 6 3 ",
"5 5 5 k x x k 4 q q 1 1 1 ; @ @ @ $ ; 2 2 3 5 5 5 v l l x x 9 5 7 7 1 ; # % ; 1 1 1 ; ",
"5 5 v k z k 5 6 q ; 1 1 1 ; @ X $   2 2 3 4 5 k l l l k z 9 7 2 3 1 1 % # % ;   1 ; $ ",
"v v v v k k 7 2 ; q 1 1 1 % @ @ 1 6 2 2 3 9 k x x k k v 9 7 2 2 1 1 ; % # $ % ; $ $ @ ",
"k v v 5 9 5 2 2 ; ; q % % # $ q 1 7 7 7 7 k x x l v 9 7 2 1 1 1 1 1 % % # @ @ # @ @ @ ",
"z v v 5 7 2 2 2 q ; # # # q 2 w 2 7 7 5 v x x l v 7 2 2 1 1 1 2   ; $ @ @ @ @ @ @ $ $ ",
"z m L ^ Y g g I g e # @ $ 2 4 t A G K P J ( C b 7 2 1 1 q q 1 1 $ % @ O @ @ # % % ; 1 ",
"m P p.y.<.=.%.&.2.-.h $ 1 7 0 / 1.7.9. .....9.K 2 1 q 1 ; ; ; % $ @ @ @ $ $ % ; 1 1 2 ",
"8 ,.A.I w : : : j v.g.u 2 7 Q a.L M B B N L V.s.i 2     ; % $ $ @ $ % 1 2 1 ; ;   6 6 ",
"8 ^ F.2.: % $ = - :.U.#.t S w.w.V N N n m <.^.d.u ;   % $ @ @ $ % 1 1 1 2 1 1 1 2 6 4 ",
"6 p 3.D.g % = + * X.U.A.W 6.V.{ C V N S F F.(.;.w   % # @ @ % ; 3 2 2 2 2 3 3 3 4 5 5 ",
"2 ; +.U.2.w = & - u 2.(.C.S.N.] C H D A 2.$XD.I : % # O @ $ 2 7 4 7 6 6 7 5 5 4 5 k 5 ",
"    f g.F.g = : < f E Q.&X!.| ] ] L T #.U.$X3.u $ @ o @ $ 1 7 4 4 7 4 9 9 k 9 9 5 9 5 ",
"    w Y D.4.: > p I R d.&XZ.| [ _ ^ +.g.=XG.U % @ . @ % 1 7 4 9 9 9 k z l k k 5 5 4 3 ",
"2 2   u 4.D.O.f T R ~ 7.Z.t.| 6.>.%.2.W.$X;.: o . o % 2 3 4 9 9 k x x x x k 9 4 3 1 1 ",
"2 2 2 w +.U.g.I T W / 6.9.w.8.8.2.-.D.$Xz.f @ . o $ 2 3 7 7 9 k c c x k k 9 4 3 1 1 1 ",
"1 1 q ; s l.~.6.R ^ >.9.w.e.i.u.f.c.oXU.+.: X * : ; 6 7 y m k x c x n M m 7 r w ;     ",
"3 1 ; # & g G.x.E W >.9.e.d.z.l.c.R.$X5.O.O.X., I ~ E ` >.! C B ' ] ,.,.>.~ #.~ I >   ",
"q ; % # # i w.!.8.^ 6.w.e.x.c.b.M.=X^.5.g.k.P.D.F.A.G.!.S.B.N. .9.V.(.E.x.y.z.U.s.g ; ",
"1 ; # o % t Q C.G.6.| w.i.z.c.n.oX-XQ.s.Y.`.|.-X~.j.E.!.9.r./.B.W y.E.#.<.5.y.E.I.U = ",
"1 % # @ ; 3 8 e.%Xa.| w.u.c.b.Y.,X-XV.c.}.'.XX-XR.v.(.L.9.N.!.d.Y x.x.Y D.-X-XoX4., @ ",
"; # o # w t H B.).t.{ 8.u.l.b.'.,X-Xd.n.|.].|.oXW.G.&XK.N.p.A.s.%.U.^.2.%.4.I.W.*.:   ",
"% # @ % w 0 { Z.Z.[ [ 6.4.l.b.M.*X,XU.R.+X+X|.XX^.H._.J.S.y.s.g.2.oX;X$XU.-.*.~.3.i 2 ",
"% @ @ % 3 a | K.| ) [ <.:.g.b.M.}.*X$X+X:X*X|.*X^.!._.A.H.3.D.D.5.W.E.oX|.4.4.$Xy.y 6 ",
"$ @ # 1 3 F a.N.' J ! $.-.f.h.M.'.#X<X>X>X-X%X;X!.).&XH.%XW.(.D.D.~.l.f.g.n.oXE./ 7 7 ",
"@ @ % 3 7 Q N.{ B J Q #.=.f.c.m.`.{.>X-X-X^.S.L.)._.).(.W.F.F.R.$X*XoXoXoX%XQ.8.S 7 4 ",
"$ % 1 3 y w.w.V N H R @.=.4.h.m.`.[.#X-XH.,.L ] ..t.w.<.#.I I #.4.4.4.u.s.y.^ a 4 5 4 ",
"% % 2 4 / d.L M M G U =.n.c.h.k.`.[.@X-XE.! b c c N 8 w ; ; ; ; q : : r 8 8 4 9 5 5 5 ",
"= ; 3 S p.,.M b M G U g.-XR.h.k.`.{.@X:X$Xw.B c x v 6 2 w ; ; ; # $ 1 3 7 7 4 4 v 9 5 ",
"$ ; 6 ^ p.K v n D F #.E.;X$Xk.k.`.{.@X#X=XS.' x k 5 2     2 ; ; # 1 2 7 7 7 9 9 9 9 4 ",
"%   A i.$.m b N D G s.-X!.E.'.k.`.{.@X#X*X(...V k 6 2 2 2   ; = $ 1 3 7 4 4 9 9 9 7 3 ",
"% 6 $.p.K v z N D $.E.(.3.3.W.'.'. X@X@X#X&XJ.] v 6 2 2 2   ; $ 1 3 3 7 7 9 9 9 7 7 1 ",
": I p.,.m k b N K d.$Xd.I Y D.|.[.]. XOXOX*X%XC.D 2 ; 2 2 ; $ % 1 2 6 7 4 9 4 4 6 1 2 ",
"w ~ p.D 8 v b H >.^.^./ 6 u :.XX|.|.|. XOXOX&X(.$.w 2 1   ; $ % 2 2 2 7 4 9 4 7 2 1 % ",
"; W i.1.8.9.w.r.H.).A.A   : , P.oXXXoX+X$X$X%X(.$.w ; 2 ; $ @ % 2 2 3 7 4 4 7 7 1 1 % ",
"; u &.x.A.S.S.S.C.i.R 6   ; : O.s.F.G.S.J.J.J.r.I q q q ; $ @ % 2 2 6 7 4 4 7 1 % % 1 ",
"= ; u p T K L P K A 7 1 2   @ : i T G K J ' J M w q ; 1 ; @ @ ; 2 2 6 6 4 7 7 1 % 1 1 ",
"@ % ; ; 6 5 v v 7 2 2 2 2   @ $ 2 6 4 m x x k 9 1 ; ; ; % O O % 2 2 1 6 6 6 2 1 1 2 2 ",
"@ ; ; 3 6 m 5 5 7 1 2 1 1   $ $ 2 2 6 5 k x z 9 3 2 2 q % . O ; 2 1 1 6 4 4 7 1 2 2 3 ",
"$ ; 2 2 6 5 5 5 2 2 1 1 2 % @ @   6 7 4 k x z 5 6 2 2 q ; O @ ; 2 2 1 7 9 9 4 6 6 3 6 ",
"$ ;   2 6 4 5 4 2 2 2 2 2 % O O 1 2 7 4 k x x k 6 2 2 2 ; $ $ 1 2 2 2 4 9 9 5 6 7 7 7 ",
";       2 7 7 6 7 2 2 6 2 $ O O 1 2 6 7 v x x v 7 2 2 2   $ $   2 6 6 5 k k 5 4 4 5 5 ",
";   2   2 2 4 4 5 2 2 2   % O @ 2 2 6 7 5 x x k 6 1 2 2 2 $ $   6 6 6 9 k k k 9 5 9 9 "
};
