/* XPM */
static char * xmms_icon32_xpm[] = {
"43 43 246 2",
"  	c #E3E2E8",
". 	c #F0EFF3",
"+ 	c #EEECF4",
"@ 	c #F1F1F2",
"# 	c #ACABB1",
"$ 	c #9C96B5",
"% 	c #9187BB",
"& 	c #8E82C5",
"* 	c #8D84B7",
"= 	c #897DBC",
"- 	c #8B7DB5",
"; 	c #9D9BAB",
"> 	c #A4A4A4",
", 	c #A09EAA",
"' 	c #9995A9",
") 	c #ADA698",
"! 	c #B9A888",
"~ 	c #B4A48A",
"{ 	c #9D9AA5",
"] 	c #9A96AA",
"^ 	c #9581AB",
"/ 	c #867BB3",
"( 	c #928CAE",
"_ 	c #A497DA",
": 	c #A195D6",
"< 	c #9588CB",
"[ 	c #897DC1",
"} 	c #8477BA",
"| 	c #867ABD",
"1 	c #8376B4",
"2 	c #8C82BA",
"3 	c #BDA47C",
"4 	c #DEB454",
"5 	c #D4A858",
"6 	c #937EAB",
"7 	c #9A91C0",
"8 	c #AA9DE0",
"9 	c #9D91D3",
"0 	c #6D62A5",
"a 	c #796DB1",
"b 	c #7E72B3",
"c 	c #A68D95",
"d 	c #A58C95",
"e 	c #A99CDE",
"f 	c #A69ADC",
"g 	c #9A8ED0",
"h 	c #B2A895",
"i 	c #BA9268",
"j 	c #9E8070",
"k 	c #887493",
"l 	c #998898",
"m 	c #B19285",
"n 	c #A79798",
"o 	c #AC9088",
"p 	c #928AB4",
"q 	c #BAAC8C",
"r 	c #F7B92D",
"s 	c #DAA548",
"t 	c #8C7175",
"u 	c #94776E",
"v 	c #C8955B",
"w 	c #C49969",
"x 	c #907EB2",
"y 	c #C1A373",
"z 	c #CBA465",
"A 	c #BE9F79",
"B 	c #9185C8",
"C 	c #ACA9A1",
"D 	c #BBA683",
"E 	c #695F94",
"F 	c #655987",
"G 	c #625C7C",
"H 	c #735C80",
"I 	c #655999",
"J 	c #988CCD",
"K 	c #A3A2A9",
"L 	c #AD8A6D",
"M 	c #AC8357",
"N 	c #857AC0",
"O 	c #B9957B",
"P 	c #C09E9F",
"Q 	c #D6A876",
"R 	c #D0A883",
"S 	c #EFB335",
"T 	c #F2B431",
"U 	c #A4795D",
"V 	c #685682",
"W 	c #B98A68",
"X 	c #AB8A8B",
"Y 	c #C19C72",
"Z 	c #BA9893",
"` 	c #CDA78B",
" .	c #A79BE0",
"..	c #AAA59D",
"+.	c #BEA87F",
"@.	c #987C86",
"#.	c #785C74",
"$.	c #5C518B",
"%.	c #6D577E",
"&.	c #725B7B",
"*.	c #8677AA",
"=.	c #987FA2",
"-.	c #977FA5",
";.	c #9982A3",
">.	c #B099B9",
",.	c #B49FC2",
"'.	c #AC9CD3",
").	c #A79CCA",
"!.	c #FFAE0B",
"~.	c #CEA45C",
"{.	c #FAAA16",
"].	c #C5893E",
"^.	c #B98546",
"/.	c #A07B6D",
"(.	c #CF9957",
"_.	c #C18C69",
":.	c #A08598",
"<.	c #B48877",
"[.	c #D9A964",
"}.	c #D29956",
"|.	c #BD9472",
"1.	c #9087B6",
"2.	c #6B6194",
"3.	c #87666A",
"4.	c #766588",
"5.	c #AC8785",
"6.	c #A38594",
"7.	c #B798A0",
"8.	c #C29FA0",
"9.	c #A18AA8",
"0.	c #9D829B",
"a.	c #D5A453",
"b.	c #959594",
"c.	c #926E69",
"d.	c #A27E7C",
"e.	c #AC8886",
"f.	c #B28F96",
"g.	c #A6848D",
"h.	c #FFA200",
"i.	c #FBA30B",
"j.	c #DC9632",
"k.	c #956C5E",
"l.	c #C38747",
"m.	c #CF9250",
"n.	c #C18B63",
"o.	c #D99F62",
"p.	c #A9A9A9",
"q.	c #A8A6A3",
"r.	c #8B7787",
"s.	c #A68EB2",
"t.	c #F29D1B",
"u.	c #EB9B24",
"v.	c #AB7348",
"w.	c #C58B5C",
"x.	c #CC8E4D",
"y.	c #D79B47",
"z.	c #F69B11",
"A.	c #F79B0F",
"B.	c #F89E12",
"C.	c #E49932",
"D.	c #B0ADA7",
"E.	c #9C9A97",
"F.	c #7A7A7A",
"G.	c #84827D",
"H.	c #878497",
"I.	c #7A709F",
"J.	c #665B93",
"K.	c #5B4E8D",
"L.	c #5D5192",
"M.	c #796DAC",
"N.	c #867CAF",
"O.	c #848382",
"P.	c #BEBEBE",
"Q.	c #8D8D8D",
"R.	c #4F4F4F",
"S.	c #010101",
"T.	c #060509",
"U.	c #6C6C6C",
"V.	c #353144",
"W.	c #494366",
"X.	c #463D6A",
"Y.	c #4D437C",
"Z.	c #544889",
"`.	c #4D466C",
" +	c #413B5C",
".+	c #474063",
"++	c #5D5583",
"@+	c #59517D",
"#+	c #564D7D",
"$+	c #70669E",
"%+	c #47425D",
"&+	c #2A2A2A",
"*+	c #A6A8AB",
"=+	c #1B1924",
"-+	c #2F2B3E",
";+	c #242132",
">+	c #110F16",
",+	c #231F34",
"'+	c #332C53",
")+	c #14121C",
"!+	c #1B1826",
"~+	c #0A090D",
"{+	c #211F2C",
"]+	c #141514",
"^+	c #747474",
"/+	c #252526",
"(+	c #656565",
"_+	c #5C5C5C",
":+	c #7D75A2",
"<+	c #0E0D14",
"[+	c #7469A7",
"}+	c #2F2B43",
"|+	c #3C3654",
"1+	c #453E61",
"2+	c #3E3958",
"3+	c #08070B",
"4+	c #565656",
"5+	c #CBCACD",
"6+	c #524D69",
"7+	c #ADA1E3",
"8+	c #575073",
"9+	c #434343",
"0+	c #E2E2E2",
"a+	c #D4D4D4",
"b+	c #625A80",
"c+	c #DADADA",
"d+	c #B2B2B2",
"e+	c #757184",
"f+	c #3E3954",
"g+	c #35333F",
"h+	c #6A618C",
"i+	c #1F1F1F",
"j+	c #9186C4",
"k+	c #7B70AD",
"l+	c #6D639A",
"m+	c #CCC9DA",
"n+	c #B1A7DD",
"o+	c #BAB2DE",
"p+	c #AEA3DF",
"q+	c #B5ACDE",
"r+	c #C2BCDC",
"s+	c #5B4F91",
"t+	c #756794",
"u+	c #D3D1DB",
"v+	c #B7B6BE",
"w+	c #9E93CD",
"                                              . + + + + + + + + . + + . @             ",
"                                            # $ % & * = = = = = = = - % ; ; >         ",
"@ , ;   ' ) ! ~ { ' ] ^ / ( { >             # _ : < & [ } | 1 } } } } } / = ( { ] ;   ",
". 2 / = } 3 4 5 6 = = } } } = ( ' ' >     ; 7 _ 8 8 _ 9 < & = } } } } } | } } } = 2 + ",
". ( 0 a b ^ c d = } } } } } } } b 2 ( ;   $ : e e f e e e _ 9 g & | | | | | | | } 2 + ",
"  h i j k l m n - } } } } } } } c o c / p $ e e f e f e e e 8 8 g = | | | | | | | % + ",
"  q r s t u v w x | } } } | | } y z A | | B _ e f f f f e e 8 _ & | | | | | | | = ;   ",
"  C D n E F G H I 1 - = | = | | ^ ^ ^ | | = g e f e e f e e 8 J | | | | | [ | | * K   ",
"  q r r L u M M G L w m N N | = O w O | N } B P Q R e f f 8 _ & | | | | | | | = ;     ",
"  h S T 3 o M U V U W X N [ N = O Y m N N | | Z R ` f  .8  .g = | | | N N | [ *       ",
"  ..+.+.h ..@.#.$.%.&.*.% =.-.- 6 ;.^ 2 ;.;.x ^ >.,.'.,.,.).B | | | ;.;.^ | = ]       ",
"  ! !.!.~.s {.].%.^.]./.@.(.(.-._.(._.;.(.(.:.<.5 Q ,.[.[.Z [ | | - w }.|.N 1.        ",
"  h 5 5 D +.5 A 2.3.3.#.4.5.X x 6.X 6.6 X X 6 :.X 7.'.8.8.9.} = | | 6.X 0.* ;         ",
"  h a.a.+.y a.5 b.c.3.#.H d.5.x 6.e.6.6 e.e.6 :.5.f.'.8.P =.| | | = g.e.:.n a.s ~     ",
"  ! h.h.~.s h.i.! j.].k.3.].l.-._.m.W ;.m.m.6.<.m.n.>.o.}.5.N | | - v m.w Y h.h.y     ",
"  p.+.+.h ~ 3 3 q.Z r.V $.%.H *.^ ;.^ - =.-.x 6 =.=.x s.=.6 | = = | 6 ;.c ) 3 3 )     ",
"  ~ t.t.z a.t.u.~ u.u.U #.v.v.4.W w.<.=.n.n.0.5.W W 6 _.n.g.g.n.n.6 W x.y.y t.t.3     ",
"  ! z.A.z a.B.t.~ t.z.x.@.v.v.&./.w.<.=.w.w.0.<.w._.-.n.w.g.g.w.n.^ _.C.s y z.z.3     ",
"  p.D.E.F.G.G.G.> ..t H.I.J.K.K.L.M.= } / 1 } = | = } 1 1 } [ x - = N.O.t b.q.....    ",
"  P.Q.R.S.S.S.T.F.U.S.T.V.W.X.Y.Z.K.F `. + +.+++E @+ + + +#+$+} } 2.%+S.T.&+Q.        ",
"  *+S.S.S.S.S.S.S.S.S.=+-+;+>+,+K.'+>+)+;+;+!+)+)+~+!+,+{+>+{+J.E =+S.S.S.]+^+        ",
"  E.S./+(+_+_+_+~+S.=+:+J %  +T.E )+<+Z.M.M.[+}+T.|+[+[+[+1+T.1+2+3+~+4+4+F.          ",
"  p.S.4+      5+]+T.6+7+8 7+8+~+G 3+=+M.M.N [  +3+++[ [ [ ++~+ +@+<+T.9+9+9+9+9+9+9+0+",
"  p.S.4+      a+]+]+:+8 8 7+8+~+%.3+!+_ & = =  +3+@+} } [ V 3+ +M.b+|+<+S.S.S.S.S.T.c+",
"  E.S.R.      d+]+)+N.e e 8 8+~+G ~+!+7+: = N  +3+@+| | = ++~+2+b 2 b $+e+O.O.O.&+S.c+",
"  *+S.4+      5+]+]+N.e 8 7+8+~+b+~+;+e < | = 2+3+@+| | [ ++~+2+0 F ++++f+>+]+]+T.T.c+",
"  > S.4+    a+5+g+;+- 8 8 7+F =+h+=+-+g [ | [ W.)+++| | [ F !+X.`.!+)+)+>+T.S.S.]+i+0+",
"  > &+U.    P.).j+2 8 e 8 8 J - : % & & } | [ k+l+1 [ | N 1 l+M.M.2.2.2.2.W./+i+F.> @ ",
"            m+n+8 e e e 8 8 8 8 8 7+g = | | | | | | | | | N N = = N = N N = p         ",
"            o+p+8 8 e 8 8 8 8 8 8 _ & | | [ | | N | } 0 b = = N | N | | | | = ]       ",
"          m+q+e 8 e e 8 e 8 8 8 8 g | | | | | | | | 0 L.0 | = N = | | | | | | p >     ",
"          r+8 8 8  .8 8  .8 8 8 _ [ | [ | | | | | } I K.s+M.N = | N = N = | | | p     ",
"        m+n+8 8 8 8  .8 8 8 8 8 < N = N | = = N | = :+I s+L.b N N = N = | | | = = K   ",
"        r+e 8 8 8 8 8 8 8 f 8 : = | N = N | | | = , ; N.l+L.0 N = N | | | | | N = % + ",
"      m+p+8 e 8 8 f 8 8 8 8 8 < | | | = | = N | 2 >   , H.J.L.a = N N = | | } 2 * p + ",
"      r+8 8 8 8 8 8 8 8 8 8 _ = | | | N | | | = 1.      Q.e+h+E k+= = = * p p ' > > @ ",
"    m+p+8 8 8 8 8 8 8 8 8 _ < | | N | | | | | * ;         ^+  G t+% p ] *+> > >       ",
"    u+o+8 8 e 8 8 8 8 8 8 9 = | = | = | = N = p                                       ",
"      u+q+8 8 e e 8 8 8 _ & N | = N | N N = p K                                       ",
"        u+o+7+e 8 8 8 8 9 [ | | | | | | | = ]                                         ",
"          v+w+_ 8 8 8 _ B | | | | | | 2 | 2 ]                                         ",
"            { 7 _ 8 e J = | N = 2 = = p , ;                                           ",
"            ..{ w+7+_ & | | = 2 1., K >                                               "};
