/* XPM */
static char *xmms-otto_n[] = {
/* columns rows colors chars-per-pixel */
"43 43 221 2",
"   c #00C900C900C9",
".  c #03E703E703E7",
"X  c #06D806D806D8",
"o  c #074307430743",
"O  c #09A709A709A7",
"+  c #0A230A230A23",
"@  c #0CDC0CDC0CDC",
"#  c #0FE40FE40FE4",
"$  c #109710971097",
"%  c #12C712C712C7",
"&  c #15E015E015E0",
"*  c #162416241624",
"=  c #18D918D918D9",
"-  c #193F193F193F",
";  c #1AD11AD11AD1",
":  c #1B8D1B8D1B8D",
">  c #1CB41CB41CB4",
",  c #1DA61DA61DA6",
"<  c #1EC41EC41EC4",
"1  c #1F7F1F7F1F7F",
"2  c #208F208F208F",
"3  c #21AE21AE21AE",
"4  c #22B722B722B7",
"5  c #239723972397",
"6  c #249C249C249C",
"7  c #257C257C257C",
"8  c #26D026D026D0",
"9  c #27DF27DF27DF",
"0  c #28C628C628C6",
"q  c #29BB29BB29BB",
"w  c #2AA12AA12AA1",
"e  c #2B712B712B71",
"r  c #2CC32CC32CC3",
"t  c #2DEA2DEA2DEA",
"y  c #2E9E2E9E2E9E",
"u  c #2FC32FC32FC3",
"i  c #310731073107",
"p  c #318F318F318F",
"a  c #32CC32CC32CC",
"s  c #339133913391",
"d  c #346634663466",
"f  c #35A135A135A1",
"g  c #36BF36BF36BF",
"h  c #379937993799",
"j  c #38DB38DB38DB",
"k  c #39E139E139E1",
"l  c #3AC03AC03AC0",
"z  c #3BB63BB63BB6",
"x  c #3CEB3CEB3CEB",
"c  c #3DB23DB23DB2",
"v  c #3E913E913E91",
"b  c #3FC83FC83FC8",
"n  c #40A740A740A7",
"m  c #41AB41AB41AB",
"M  c #429D429D429D",
"N  c #43A443A443A4",
"B  c #44AD44AD44AD",
"V  c #45BE45BE45BE",
"C  c #46D946D946D9",
"Z  c #47D547D547D5",
"A  c #48C948C948C9",
"S  c #49C349C349C3",
"D  c #4AB84AB84AB8",
"F  c #4BB74BB74BB7",
"G  c #4CB74CB74CB7",
"H  c #4DF14DF14DF1",
"J  c #4EC44EC44EC4",
"K  c #4FD44FD44FD4",
"L  c #50D550D550D5",
"P  c #51B951B951B9",
"I  c #52D152D152D1",
"U  c #53DF53DF53DF",
"Y  c #54FA54FA54FA",
"T  c #55D255D255D2",
"R  c #56FC56FC56FC",
"E  c #57E957E957E9",
"W  c #58E258E258E2",
"Q  c #59D559D559D5",
"!  c #5AE05AE05AE0",
"~  c #5BE45BE45BE4",
"^  c #5CE75CE75CE7",
"/  c #5DD25DD25DD2",
"(  c #5EAF5EAF5EAF",
")  c #5FC75FC75FC7",
"_  c #60BA60BA60BA",
"`  c #61E061E061E0",
"'  c #62CB62CB62CB",
"]  c #63B663B663B6",
"[  c #64D664D664D6",
"{  c #65FC65FC65FC",
"}  c #66EB66EB66EB",
"|  c #67DE67DE67DE",
" . c #68E768E768E7",
".. c #69C269C269C2",
"X. c #6B0D6B0D6B0D",
"o. c #6BF36BF36BF3",
"O. c #6CA86CA86CA8",
"+. c #6DC96DC96DC9",
"@. c #6F076F076F07",
"#. c #6FE66FE66FE6",
"$. c #70CD70CD70CD",
"%. c #720D720D720D",
"&. c #72EF72EF72EF",
"*. c #73D773D773D7",
"=. c #74EA74EA74EA",
"-. c #761D761D761D",
";. c #771C771C771C",
":. c #77E177E177E1",
">. c #78E578E578E5",
",. c #7A197A197A19",
"<. c #7AF07AF07AF0",
"1. c #7BEA7BEA7BEA",
"2. c #7CF77CF77CF7",
"3. c #7E047E047E04",
"4. c #7F097F097F09",
"5. c #800180018001",
"6. c #80F680F680F6",
"7. c #822D822D822D",
"8. c #831383138313",
"9. c #840884088408",
"0. c #84F184F184F1",
"q. c #860286028602",
"w. c #870D870D870D",
"e. c #87F687F687F6",
"r. c #890D890D890D",
"t. c #8A0C8A0C8A0C",
"y. c #8ADA8ADA8ADA",
"u. c #8C1C8C1C8C1C",
"i. c #8D288D288D28",
"p. c #8E1E8E1E8E1E",
"a. c #8EE98EE98EE9",
"s. c #900D900D900D",
"d. c #90A990A990A9",
"f. c #922592259225",
"g. c #930E930E930E",
"h. c #940594059405",
"j. c #954295429542",
"k. c #964B964B964B",
"l. c #96FD96FD96FD",
"z. c #981F981F981F",
"x. c #994199419941",
"c. c #9A109A109A10",
"v. c #9B1F9B1F9B1F",
"b. c #9C299C299C29",
"n. c #9CCD9CCD9CCD",
"m. c #9E4A9E4A9E4A",
"M. c #9F4E9F4E9F4E",
"N. c #A00FA00FA00F",
"B. c #A15CA15CA15C",
"V. c #A23DA23DA23D",
"C. c #A2DFA2DFA2DF",
"Z. c #A40FA40FA40F",
"A. c #A524A524A524",
"S. c #A603A603A603",
"D. c #A753A753A753",
"F. c #A856A856A856",
"G. c #A949A949A949",
"H. c #AA83AA83AA83",
"J. c #AB32AB32AB32",
"K. c #ABE4ABE4ABE4",
"L. c #AD5FAD5FAD5F",
"P. c #AE3BAE3BAE3B",
"I. c #AEE4AEE4AEE4",
"U. c #B01DB01DB01D",
"Y. c #B175B175B175",
"T. c #B252B252B252",
"R. c #B43FB43FB43F",
"E. c #B502B502B502",
"W. c #B5D2B5D2B5D2",
"Q. c #B73EB73EB73E",
"!. c #B7D7B7D7B7D7",
"~. c #BA45BA45BA45",
"^. c #BAECBAECBAEC",
"/. c #BC91BC91BC91",
"(. c #BD37BD37BD37",
"). c #BE68BE68BE68",
"_. c #BFB0BFB0BFB0",
"`. c #C00EC00EC00E",
"'. c #C125C125C125",
"]. c #C267C267C267",
"[. c #C305C305C305",
"{. c #C444C444C444",
"}. c #C4D0C4D0C4D0",
"|. c #C61BC61BC61B",
" X c #C6E0C6E0C6E0",
".X c #C89EC89EC89E",
"XX c #C9A4C9A4C9A4",
"oX c #CBA2CBA2CBA2",
"OX c #CC5BCC5BCC5B",
"+X c #CD5CCD5CCD5C",
"@X c #CDDCCDDCCDDC",
"#X c #CF07CF07CF07",
"$X c #D0B0D0B0D0B0",
"%X c #D194D194D194",
"&X c #D238D238D238",
"*X c #D34DD34DD34D",
"=X c #D486D486D486",
"-X c #D62CD62CD62C",
";X c #D814D814D814",
":X c #DA4EDA4EDA4E",
">X c #DC1ADC1ADC1A",
",X c #DD99DD99DD99",
"<X c #DDDFDDDFDDDF",
"1X c #DF93DF93DF93",
"2X c #E0D2E0D2E0D2",
"3X c #E10EE10EE10E",
"4X c #E2DCE2DCE2DC",
"5X c #E3A2E3A2E3A2",
"6X c #E68AE68AE68A",
"7X c #E6E9E6E9E6E9",
"8X c #E85FE85FE85F",
"9X c #EA43EA43EA43",
"0X c #ED4DED4DED4D",
"qX c #EE96EE96EE96",
"wX c #EF8FEF8FEF8F",
"eX c #F114F114F114",
"rX c #F332F332F332",
"tX c #F5F8F5F8F5F8",
"yX c #F76FF76FF76F",
"uX c #F8E6F8E6F8E6",
"iX c #FC15FC15FC15",
/* pixels */
"3.<.;.;.%.O.X.X.' ' / / E Y L H F F B M M v z g g u u e 6 6 5 5 1 ; * * % % + + X     ",
"5.3.<.;.;.%.O.X.| | ' ' / ' ' E E E Y L B v v B F F F B M v u 5 1 ; ; * * % # # + X   ",
"5.5.3.3.;.;.%.O.O.X.' X.5.d.k.k.x.x.n.x.%.M L e.S.G.L.Y.Y.L.e.z 1 1 1 ; * * % # + + + ",
"e.0.5.3.<.;.;.%.O.X.| ;.x.n.n.S.S.G.G.Y.n.L ;.E.(.(.{.{.XX@X@X' 1 1 1 1 ; ; * % # # + ",
"e.e.0.5.3.<.;.;.%.O.X.<.x.x.x.C.C.S.G.L.x.H %.E.^.(.(.].{.XX@X' 1 1 1 1 1 ; * * % # + ",
"s.e.0.0.5.3.<.;.%.%.X.O.0.d.x.x.n.C.S.n.O.e B s.Y.^.(.].].(.x.z * 1 5 5 1 1 1 * * % # ",
"d.s.e.e.0.5.3.<.;.;.O.| ' Y %.k.n.n.C.;.e 1 e Y C.^.^.E.;.z u ; 1 5 6 6 5 5 1 ; ; * % ",
"d.s.s.e.e.5.5.3.<.;.;.X./ H F 3.x.n.n.s.M 5 s ;.G.E.E.e.5 # ; 1 5 e u e 6 5 5 1 ; ; * ",
"k.d.d.s.e.0.0.5.5.3.;.%.X./ L / s.x.n.n.3.v E n.L.Y.n.z * ; 6 e u u u e e 6 5 5 1 ; ; ",
"x.k.d.s.s.e.0.0.5.3.<.;.%.X.' Y X.d.x.n.x.3.e.G.L.S.Y ; 5 e s g g g s u u e e 6 5 1 ; ",
"n.x.k.d.d.s.e.0.0.5.3.<.;.%.O.' E <.k.x.x.n.C.C.S.%.5 5 e s z z z g g s u u e 6 5 5 1 ",
"n.n.x.k.d.s.s.e.0.0.5.3.<.<.%.X.' / 0.x.x.n.C.C.5.s 1 e g v M v v z z g s s e e 6 5 5 ",
"C.n.n.x.k.d.d.s.e.e.0.5.3.3.;.%.X./ | e.k.x.x.x.F 1 6 g M B B B B v v z g s u u e 6 6 ",
"S.C.n.n.x.x.k.d.s.s.0.0.5.3.<.<.O.| | 0.k.k.x.x.E 6 s M B H F F B M v v z g s u u e e ",
"G.S.C.n.n.x.k.d.s.s.e.0.0.5.5.<.;.O.<.e.d.k.k.x.s.H g B H H H F B B M v z z g s s e e ",
"G.G.S.C.n.n.x.k.d.d.s.e.0.0.5.3.<.<.0.s.e.s.k.k.x.0.B M H H H H F F B M v z z g s s u ",
"L.L.G.S.C.n.n.x.k.k.d.s.s.e.0.3.<.3.5.e.<.| 5.d.k.x.<.M B H L L H H F B B M v z g s u ",
"Y.L.G.G.S.C.C.x.x.k.d.d.s.e.0.3.<.3.5.5.L 6 / s.k.k.d.| M F L L L L F B B M v v z g s ",
"E.Y.L.L.G.S.C.n.x.x.k.d.s.e.5.<.;.<.3.| u e M ;.d.k.k.s.E M H L L L H F F B M M z z g ",
"^.Y.Y.L.G.S.S.C.C.n.x.k.d.e.<.;.;.<.O.z e z M / 0.d.d.x.5.H F L L L L H F B B M v v z ",
"^.E.E.Y.L.G.G.S.C.n.x.d.<.;.O.O.%.%.X.B v B E X.5.s.s.k.k.5.%.' L L L L H F F M M M v ",
"^.^.E.E.Y.L.L.G.S.C.x.3.' | X.X.%.%.;.%.Y F X.0.0.e.s.d.k.k.x.s.L F L L H H F F B M M ",
"].(.^.^.E.Y.L.L.G.S.n.;.' ' | X.X.O.;.;.E F O.5.0.e.e.s.d.k.k.k.L M H Y L L L H F B M ",
"].(.(.^.^.E.Y.L.G.S.n.3./ / ' | X.X.O.O.L B ' <.5.0.0.e.s.d.k.5.M z F Y Y Y L L F B B ",
"{.].].(.^.E.E.Y.L.G.S.d.%./ L H F F F M v F E ' ' / Y Y E E Y M s v H E E E Y L H F F ",
"XX{.{.(.(.^.E.E.Y.L.S.x.0.O.Y F B B M B H E | ' Y B v z g g g g v F Y E / / Y Y L H F ",
"@X{.{.].(.(.^.Y.Y.Y.G.S.k.0.;.X.| ' ' ' X.O.<.%.X./ Y H H F F H L E / / / E E Y L L H ",
"@X@X].S.k.d.n.G.L.Y.L.C.e.3.;.;.%.O.O.%.<.3.5.5.<.%.X.X.' / / ' X.O.<.<.%.X.;.X.L L L ",
"&X&XS.F z v L e.C.G.G.3.Y Y Y | ' ' ' | %.3.5.0.<.;.<.<.O.' | %.0.s.d.k.k.k.n.5.L F H ",
"=X&XL.Y z g z | e.n.k.E F H L Y Y E / / ' O.3.3.%.%.;.%.' E X.5.e.5.O.| ;.s.n.3.F B H ",
"=X&X{.d.B s g B O.s.3.F F F F H Y E E ' E / %.%.O.O.%.E B H O.5.5.' z s v X.k.3.M v H ",
",X=XXXC.F u g z Y ;.' M F B M B L Y Y E E L ' X.X.X.O.H z H %.5.5.E g g z F X.E v M H ",
",X:X&XC.B u g g B | B B F B M F E Y Y L Y L Y | ' | | H v L O.3.3.<.O.X.' E F M v F Y ",
"4X,X:XS.B e v g z H z F F M M L | Y L H L Y Y ' E ' | L M E | %.<.3.0.5.0.5.;.L B H E ",
"5X,X:XS.v 6 B z s z z H B v B E X.H H F F Y E E H / ' L B / | | | O.<.3.0.e.e.3.L H E ",
"5X4X4XC.z 6 F B u u v H M v B / X.H F F F L E Y B E | Y F / X.X.Y F F Y X.5.e.e./ F E ",
"0X5X4XC.g 5 L Y z g B Y B z B / X.F F H H L L H F Y ' Y H / X.O.' H F B B | 0.e.E B L ",
"0X0X:X0.6 5 B ' / E | / M g B Y E M B H L E E Y Y E / E H / X.X.X.E Y Y Y | 0.5.L v L ",
"wXwXE.s ; ; e L ;.5.;.B g s z M M M B B L ' X.| E E E / Y E | | O.| ' | O.;.5.O.M v Y ",
"rXwXL.5 1 1 1 H 3.x.s.F s s g g z v M M H X.3.3.' Y E E Y Y ' | | X.%.%.;.;.X.F z F / ",
"iXwX&Xx.<.' E O.s.S.L.k.<.| L L L L L L / ;.e.d.5.%.' L L Y / E L L Y E E L F v B Y | ",
"iXwX8X=XE.x.s.k.S.^.{.(.G.s.3.;.%.;.%.O.;.0.x.C.n.e.;.| | X.O.| / Y L L L H H L E X.%.",
"iXrX0X4X@X(.Y.E.].@X&XXX(.L.C.x.x.k.k.d.k.C.G.L.G.n.d.0.5.5.0.5.<.O.X.X.X.| | X.%.;.<."
};
