/* XPM */
static char *xmms-mike[] = {
/* columns rows colors chars-per-pixel */
"43 43 131 2",
"   c #14393F",
".  c #0E3B47",
"X  c #0F3E49",
"o  c #123F4A",
"O  c #1A3D42",
"+  c #16414C",
"@  c #1D4045",
"#  c #1B434D",
"$  c #1C4751",
"%  c #1E4852",
"&  c #204247",
"*  c #24464B",
"=  c #24484E",
"-  c #28494E",
";  c #244C55",
":  c #264F58",
">  c #2C4D53",
",  c #2A4F58",
"<  c #27515A",
"1  c #2C535B",
"2  c #304F54",
"3  c #335156",
"4  c #33545B",
"5  c #395156",
"6  c #3B555B",
"7  c #3C595E",
"8  c #2E5760",
"9  c #355A62",
"0  c #3B5D64",
"q  c #3C5F68",
"w  c #3E6067",
"e  c #3C6269",
"r  c #41565C",
"t  c #43595E",
"y  c #495A5E",
"u  c #5E5C5D",
"i  c #435D62",
"p  c #4B5E62",
"a  c #515D60",
"s  c #585F60",
"d  c #446166",
"f  c #44646A",
"g  c #45696F",
"h  c #4B6166",
"j  c #4C656A",
"k  c #4C696D",
"l  c #456B71",
"z  c #4C6C72",
"x  c #4F7076",
"c  c #536265",
"v  c #546669",
"b  c #536A6E",
"n  c #5B6264",
"m  c #5A6769",
"M  c #5C696C",
"N  c #536E72",
"B  c #596E71",
"V  c #547176",
"C  c #557379",
"Z  c #5B7275",
"A  c #5C757A",
"S  c #5D797D",
"D  c #646767",
"F  c #616768",
"G  c #646A6B",
"H  c #696D6E",
"J  c #626E71",
"K  c #6A6F71",
"L  c #627376",
"P  c #62767A",
"I  c #64797D",
"U  c #6A7374",
"Y  c #6B7B7D",
"T  c #5E7C81",
"R  c #637E83",
"E  c #6A7E81",
"W  c #717F81",
"Q  c #5E8085",
"!  c #638186",
"~  c #668389",
"^  c #6B8285",
"/  c #6C8589",
"(  c #6D8A8E",
")  c #6D8C91",
"_  c #6F9196",
"`  c #728386",
"'  c #738689",
"]  c #72898C",
"[  c #788587",
"{  c #7C8789",
"}  c #7A8A8C",
"|  c #728E92",
" . c #729196",
".. c #75969A",
"X. c #76999E",
"o. c #78979A",
"O. c #799A9E",
"+. c #779CA0",
"@. c #7A9DA1",
"#. c #7BA0A5",
"$. c #848C8D",
"%. c #898E8F",
"&. c #808F91",
"*. c #898F90",
"=. c #839193",
"-. c #8D9192",
";. c #8B9799",
":. c #8D999C",
">. c #919495",
",. c #949798",
"<. c #949B9C",
"1. c #999C9D",
"2. c #959FA1",
"3. c #96A0A2",
"4. c #9BA3A4",
"5. c #9FA7A8",
"6. c #A4A5A5",
"7. c #A6ABAC",
"8. c #ACACAC",
"9. c #A5AFB1",
"0. c #A9AFB0",
"q. c #A7B0B1",
"w. c #AAB0B1",
"e. c #B2B4B5",
"r. c #B5B9B9",
"t. c #BABCBD",
"y. c #BEC1C1",
"u. c #C3C4C4",
"i. c #C7C8C8",
"p. c #CBCBCB",
"a. c #D3D1D1",
/* pixels */
">.8.u.y.y.r.8.q.4.} =.i.t.>.%.<.u.t.Y Y =.3.9.0.r.y.y.6.Y Z b b B Z P P Z b b B A I E ",
"6.p.<.Z j - - 3 p p - P i.r.1.y.t.h * 3 3 - - @ 3 d o.u.=.v b h h b Z P Z B b b C P E ",
"8.8.> v ` { $.%.>.,.Y - P u.a.t.h 2 N Z B k N Z S j - <.;.p k p i j N A P Z B v N P I ",
"8.8.4 Z ,.>.-.*.*.%.%.J * I e.k - B b k k k C ^ ] k 3 4.;.p j j h h b P I I C Z N A I ",
"6.p.[ - P [ ` ` [ [ Y ` N - @ 2 P P b b k k A / N @ } u.} j j j j j N P E R L A B I I ",
">.e.u.b - Z Z L I J Z U W b 3 L W B v b j N ^ Z & E a.7.Y b j b v B b B E E R Z A I R ",
"-.,.u.t.6 3 P P A Z Y W W Y Y Y J b b k k S A 3 d } W j 7 6 3 6 4 r i p b L L A I I E ",
">.-.<.p.4.- i Z A Y ` { [ Y L B B N k k Z Z d 3 d d 7 7 6 6 6 6 5 5 0 0 i 4 0 z A ^ ^ ",
"-.-.-.6.p.} * h E ` ' } ` Y P L N k j V j 6 7 d 7 6 r r r t t r r r p j V V j 0 7 N ^ ",
"-.>.>.>.e.u.b - A ` ` ` ` E P N b k Z d 3 i r r r r r r r 6 5 r r r p b Z R ( R N 2 N ",
"-.>.>.%.,.u.e.7 3 A E E R A N x N I S 6 i 7 r r r r r r 7 7 t 7 6 r p j N T R R ( j 9 ",
"-.-.-.>.-.1.p.;.O j A S I A A I E / I 6 r r r r r r r 6 7 j b d 6 6 i p b V Z A R C i ",
"-.>.>.-.%.6.p.I - V C A A S A I S C N 7 r r r r r r r r r 6 3 6 r r r i h b N Z A j 0 ",
">.%.-.%.1.p.:.* k A V V V V V k k z z 7 3 7 r r r r r r r r t r r r r r i h b b j 5 j ",
"%.-.%.-.t.r.3 7 ~ Q S A S C C A C S T S d 3 6 r r r r r r r r r r r r r i i i 7 6 f R ",
"-.-.%.8.p.U 3 C Q ! ~ Q Q Q Q ! Q ! Q ! R b i 3 3 6 6 6 r 6 r r 6 r r 6 6 2 3 f C ^ / ",
"-.*.<.p.;.> j V C T Q ! ! ! ~ ! ! ! ! ! ! / C 7 V I d 7 7 3 3 2 4 4 i i g N I ~ / / / ",
"*.*.t.r.7 7 V g g V S T ! S A S ! Q ! Q Q Q ! d 2 0.t.=.$.} W M p b j j N R / / ~ E E ",
"%.4.p.Y 3 A V z g g z C S d > z Q Q T R Q Q Q T 2 B p.7.%.$.Y B b B b B I / | ] ' R R ",
">.u.7.6 N ! C x z f k z d * O 3 V x V V x S T Q z - =.w.` I b 7 0 0 0 0 g N z z l g N ",
"<.9.k , C C V V V k f 9 = + # * , 4 3 1 1 l T T f $ - C k 3 ; - > > > > > > > > > $ 0 ",
"q d = 4 7 9 1 x x 1 , = = 4 i y i 7 i p - 8 x x : 6 p h M h s m E { } } { { { } U > 0 ",
"+ c i p h c ; e g ; t y h Z D ` | | / L 7 ; z x : m E )  .Y H Y ) +...+.@.@.+.@.P = 0 ",
"* H  .) | L t 1 0 > c /  .X.U ' +.O.+.| v * l 9 4 P _ @.O.Y U ..@.) A R P R Z T B > q ",
"# H +.o...R a , ; 5 L  .X.#.Y ` X.) ( ..M 2 1 ; r I X. . .U W X._ P s 6 6 4 4 6 0 : g ",
"# K ..~ ~ | p = + t ` o.( X.Y ` X./ A ..Y r + + m E ..^ | Y ] @.( F p ; 1 , , 1 8 9 x ",
"# K @.E E ..Y p 4 G  ./ Z X.Y ` +.` U +.( M 1 i U @.| Y ' Y ^ O.o.R p 0 i i p p 4 ; l ",
"= H @.E v  .| m v E o.B b O.Y ` +.' F | X.Y 7 c E X.E L | Y U  .@. .( W W | ] W F 4 8 ",
"o K +.E s ]  .v a ! O.M M O.Y ` +.' u R +.^ t n | o.U D o.' D Y  .o.:.@.@.+.@._ P s < ",
"= K ..R s L  .P M _ ^ n B X.Y ` +.] u B ..) m m ..) m D o.o.G n J T T Z J R _ @.( M : ",
"# K +.R i v  .( I X.L y N O.Y ` +.] y p | X.P E X.! y M o.O.L 7 6 4 6 4 6 s E +.o.N ; ",
"# K @.E 5 a I ..X.( M t N #.Y ` +.] 3 6 Y ..(  . .L 7 h o.X.L 3 1 8 8 8 0 s E ..o.B ; ",
"# K ] P 6 i m E _ R a i N ) J W #.W 8 ; J  .X.X.W j , f @. .H s j j j j p P | @.( M ; ",
"# n v s 5 ; s m b s 6 5 a N n ] #.W r < v W ....W f < c @. .U |  .) ( ( ( _ +.@.E s ; ",
"= ; ; : ; ; ; ; ; ; , 2 ; % 6 v c c 4 ; 4 c c c a 1 < r s s U @.:.@.@.@.@.@...R F 4 1 ",
"N B b N N b b B T L R T T f , ; , 8 8 q < ; ; ; ; ; 8 ; ; ; p M b m m m M m M p 4 $ l ",
"P E E E E E R E E E W R B k j C T k T T N k z l z f f f q ; o ; o ; ; $ o o X < 8 l T ",
"E W E W W W W E E E W f o ; 1 V T ; f E T T T T N T z k j f j g l x C N ; e 9 T ( T T ",
"4 4 9 8 9 E f N W g V V o o o i k 4 z T < < 8 < o 9 T l < o : q f 1 ; o % q 9 e < < 1 ",
"9 0 . p ; q ; 0 W : i T o % ; f T o f T . i % % q o 9 < 1 f q f 1 o 1 8 : 8 % l e 9 8 ",
"T W ; W j 8 : i W 8 f T o ; 9 T b o k N o W q < R % 8 o ; , , T % < T T % 8 < e 8 < < ",
"T R $ W f 8 ; 4 T < i T o : , j T o g z % E 8 < T % 9 % < 9 9 z < + 8 e % 8 8 8 X e 9 ",
"T T o W f < T o o o T z ; 9 o 4 N o g l $ R 9 8 R % q i o ; o r e $ + X < 8 % e % % % "
};
