/* XPM */
static char * xmms_icon4_xpm[] = {
"43 43 370 2",
"  	c None",
". 	c #150672",
"+ 	c #170874",
"@ 	c #21137D",
"# 	c #21127C",
"$ 	c #271882",
"% 	c #190A78",
"& 	c #221186",
"* 	c #281889",
"= 	c #32238E",
"- 	c #3F3298",
"; 	c #6256B7",
"> 	c #6156B7",
", 	c #261688",
"' 	c #5E52B4",
") 	c #7469C7",
"! 	c #3F3198",
"~ 	c #2A1A8A",
"{ 	c #3F2AB2",
"] 	c #412CB3",
"^ 	c #4A36B8",
"/ 	c #5745BF",
"( 	c #695BC9",
"_ 	c #7C70D3",
": 	c #897EDA",
"< 	c #8B81DB",
"[ 	c #887DD9",
"} 	c #5D4DC2",
"| 	c #6353C5",
"1 	c #877CD9",
"2 	c #6C5DCA",
"3 	c #5341BD",
"4 	c #422EB4",
"5 	c #432FB4",
"6 	c #6556C6",
"7 	c #7365CE",
"8 	c #8277D6",
"9 	c #7C71D3",
"0 	c #4B38B9",
"a 	c #412DB3",
"b 	c #5948C0",
"c 	c #8276D6",
"d 	c #8A80DA",
"e 	c #7E72D4",
"f 	c #6252C5",
"g 	c #4834B7",
"h 	c #4A37B8",
"i 	c #6050C4",
"j 	c #7163CD",
"k 	c #7D71D3",
"l 	c #887EDA",
"m 	c #887ED9",
"n 	c #6B5CCA",
"o 	c #422DB4",
"p 	c #523FBC",
"q 	c #7A6ED2",
"r 	c #8A80DB",
"s 	c #857AD8",
"t 	c #7264CD",
"u 	c #3A2C97",
"v 	c #180A75",
"w 	c #4430B5",
"x 	c #5543BD",
"y 	c #6D5FCB",
"z 	c #7B6FD2",
"A 	c #857AD7",
"B 	c #5A49C0",
"C 	c #4C39B9",
"D 	c #7265CE",
"E 	c #8A7FDA",
"F 	c #796ECB",
"G 	c #4E41A5",
"H 	c #22147E",
"I 	c #160773",
"J 	c #261881",
"K 	c #5144AA",
"L 	c #8378D7",
"M 	c #897FDA",
"N 	c #7366CE",
"O 	c #4936B7",
"P 	c #4632B6",
"Q 	c #847AD5",
"R 	c #7065C3",
"S 	c #6E63C1",
"T 	c #857BD6",
"U 	c #887ED8",
"V 	c #6454C6",
"W 	c #432EB4",
"X 	c #422DB3",
"Y 	c #5E4DC2",
"Z 	c #665BBA",
"` 	c #8176D2",
" .	c #402BB2",
"..	c #5A48C0",
"+.	c #867BD8",
"@.	c #6257B7",
"#.	c #1C0D78",
"$.	c #392C93",
"%.	c #7B71CD",
"&.	c #6E61CC",
"*.	c #4734B7",
"=.	c #4D3ABA",
"-.	c #7166C4",
";.	c #180974",
">.	c #3C2F95",
",.	c #786DCA",
"'.	c #877DD9",
").	c #5C4BC2",
"!.	c #786CD1",
"~.	c #362893",
"{.	c #170873",
"].	c #190B76",
"^.	c #41339C",
"/.	c #7D71D4",
"(.	c #7B6ED2",
"_.	c #4F3CBB",
":.	c #695AC8",
"<.	c #786BD0",
"[.	c #5240BC",
"}.	c #231387",
"|.	c #261588",
"1.	c #7669D0",
"2.	c #857BD8",
"3.	c #7F73D4",
"4.	c #5746BF",
"5.	c #402CB3",
"6.	c #7E73D4",
"7.	c #5C4CC2",
"8.	c #5847BF",
"9.	c #8075D5",
"0.	c #847AD7",
"a.	c #5B4BC1",
"b.	c #5745BE",
"c.	c #8479D7",
"d.	c #604FC4",
"e.	c #3F2BB2",
"f.	c #5443BB",
"g.	c #877DD7",
"h.	c #8C83DA",
"i.	c #8C82DA",
"j.	c #8B81DA",
"k.	c #897FD8",
"l.	c #8C82DB",
"m.	c #887FD8",
"n.	c #8980D8",
"o.	c #8B82DA",
"p.	c #6C5ECA",
"q.	c #3F2BB1",
"r.	c #422DB2",
"s.	c #4330B3",
"t.	c #432FB3",
"u.	c #231286",
"v.	c #402EAC",
"w.	c #5247AA",
"x.	c #7E79C0",
"y.	c #9894D3",
"z.	c #9792D4",
"A.	c #8B84D1",
"B.	c #746DBF",
"C.	c #7B75BE",
"D.	c #938ECF",
"E.	c #948ED5",
"F.	c #8D83DA",
"G.	c #7D73CC",
"H.	c #7068BA",
"I.	c #7F79C1",
"J.	c #938FCF",
"K.	c #9590D2",
"L.	c #9089D6",
"M.	c #7068BD",
"N.	c #7A75BD",
"O.	c #928ECF",
"P.	c #9692D2",
"Q.	c #928CD4",
"R.	c #8D85D9",
"S.	c #412EAE",
"T.	c #5042AF",
"U.	c #685FB7",
"V.	c #7B74C2",
"W.	c #7368C3",
"X.	c #2F218B",
"Y.	c #3F2CAD",
"Z.	c #4E44A4",
"`.	c #8682C6",
" +	c #9591D1",
".+	c #9490D0",
"++	c #8B82DB",
"@+	c #8076D0",
"#+	c #6860B4",
"$+	c #817CC2",
"%+	c #918DCE",
"&+	c #948DD5",
"*+	c #7D72D1",
"=+	c #3F2CAF",
"-+	c #4F46A3",
";+	c #8984C8",
">+	c #867FCD",
",+	c #35278D",
"'+	c #3F30A3",
")+	c #6B64B4",
"!+	c #9793D3",
"~+	c #8C84D8",
"{+	c #746BC4",
"]+	c #6861AF",
"^+	c #8A81D7",
"/+	c #4434A8",
"(+	c #6862AF",
"_+	c #3F329E",
":+	c #7C77BF",
"<+	c #9793D2",
"[+	c #9893D3",
"}+	c #8A84CB",
"|+	c #9792D3",
"1+	c #7D78BF",
"2+	c #8F8BCC",
"3+	c #8A82D5",
"4+	c #6D64BC",
"5+	c #716CB6",
"6+	c #8E8ACE",
"7+	c #817CC3",
"8+	c #9692D1",
"9+	c #8782C8",
"0+	c #8A85C9",
"a+	c #8E86D9",
"b+	c #5146A8",
"c+	c #7B76BD",
"d+	c #918CD0",
"e+	c #756AC5",
"f+	c #2E208B",
"g+	c #40339D",
"h+	c #807BC1",
"i+	c #756CC1",
"j+	c #5952A4",
"k+	c #9590D3",
"l+	c #5E57A9",
"m+	c #8580C5",
"n+	c #8A81D4",
"o+	c #6C63BA",
"p+	c #746FB8",
"q+	c #857FCA",
"r+	c #665FAF",
"s+	c #938FD0",
"t+	c #928DD0",
"u+	c #746DBD",
"v+	c #7973BC",
"w+	c #584FA8",
"x+	c #847FC4",
"y+	c #8179CA",
"z+	c #5444BA",
"A+	c #241487",
"B+	c #7268C0",
"C+	c #564FA2",
"D+	c #918BD2",
"E+	c #5951A6",
"F+	c #867FCA",
"G+	c #635CAD",
"H+	c #736BBC",
"I+	c #7771BA",
"J+	c #857DD0",
"K+	c #6F66BC",
"L+	c #7670BB",
"M+	c #7166C5",
"N+	c #432EB3",
"O+	c #948FD3",
"P+	c #5B54A7",
"Q+	c #7D74C7",
"R+	c #6159AC",
"S+	c #928DD1",
"T+	c #6558C0",
"U+	c #564FA1",
"V+	c #9590D4",
"W+	c #5C54A8",
"X+	c #7C73C6",
"Y+	c #6059AB",
"Z+	c #9691D1",
"`+	c #918BD4",
" @	c #685AC6",
".@	c #4032A0",
"+@	c #7871BF",
"@@	c #8F89D0",
"#@	c #938ED2",
"$@	c #7D75C8",
"%@	c #5D55A9",
"&@	c #9692D4",
"*@	c #625AAE",
"=@	c #857FC7",
"-@	c #9691D4",
";@	c #8A81D5",
">@	c #7067BE",
",@	c #7771BD",
"'@	c #6861B3",
")@	c #918CD2",
"!@	c #766EC0",
"~@	c #7973BE",
"{@	c #7D74C8",
"]@	c #635BAE",
"^@	c #938FD1",
"/@	c #8D84D9",
"(@	c #6455C6",
"_@	c #402BB3",
":@	c #4733B6",
"<@	c #5949C0",
"[@	c #867CD6",
"}@	c #7C72CA",
"|@	c #867DD0",
"1@	c #8C84DA",
"2@	c #4E42A6",
"3@	c #1E107A",
"4@	c #4531B5",
"5@	c #5443BD",
"6@	c #4D41A5",
"7@	c #1D0F79",
"8@	c #4F3DBB",
"9@	c #6859C8",
"0@	c #4F43A6",
"a@	c #23157F",
"b@	c #4E41A8",
"c@	c #796DD1",
"d@	c #2C1E87",
"e@	c #6A5FBE",
"f@	c #8177D2",
"g@	c #776BD0",
"h@	c #513FBC",
"i@	c #6F60CB",
"j@	c #24167F",
"k@	c #7369C6",
"l@	c #7567CF",
"m@	c #8379D4",
"n@	c #4835B7",
"o@	c #513FBB",
"p@	c #7A6DD2",
"q@	c #8278D3",
"r@	c #4D41A4",
"s@	c #1B0C77",
"t@	c #4B3FA3",
"u@	c #594DB0",
"v@	c #2B1B8B",
"w@	c #7F74D5",
"x@	c #5B4AC1",
"y@	c #7164CD",
"z@	c #786BD1",
"A@	c #6A5BC9",
"B@	c #5442BD",
"C@	c #5A49C1",
"D@	c #7467CF",
"E@	c #5F4FC3",
"F@	c #4633B6",
"G@	c #6555C6",
"H@	c #867CD8",
"I@	c #4935B7",
"J@	c #7669CF",
"K@	c #1A0B7A",
"L@	c #27158D",
"M@	c #2F1F91",
"N@	c #6257B9",
"O@	c #8076D2",
"P@	c #4C3FA5",
"Q@	c #382998",
"R@	c #7368C6",
"S@	c #766BC8",
"T@	c #382996",
"U@	c #29178E",
"V@	c #2D1F87",
"W@	c #3C3095",
"X@	c #6D62C0",
"Y@	c #574BAD",
"Z@	c #32258C",
"`@	c #190A75",
" #	c #241680",
".#	c #1E0F7A",
". . . . . . . . . . . . . . . . . . . . . . . . . . . . . . . . . . . . . . . . . . . ",
". . . . . . . . . . . . . . . + @ @ . . . . . . . . . . . . . . . # $ + . . . . . . . ",
". . % & & & & & & & & & & * = - ; > , & & & & & & & & & & & & & * ' ) ! ~ & & & % . . ",
". . & { { { { { { { ] ^ / ( _ : < [ } { { { { { { { { { { { { ] | 1 < 1 2 3 4 { & . . ",
". . & { { { { { 5 3 6 7 8 < < < < < 9 0 { { { { { { { { { { a b c < < < d e f g & . . ",
". . & { { { h i j k l < < < < < < < m n o { { { { { { { { { p q r < < < < < s t u v . ",
". . & w x y z A < < < < < < < < < < < 8 B { { { { { { { { C D : < < < < < < < E F G H ",
"I J K z L M < < < < < < < < < < < < < r N O { { { { { { P ( l < < < < < < < < < < Q R ",
"S T U < < < < < < < < < < < < < < < < < 1 V W { { { { X Y M < < < < < < < < < < < d Z ",
"` < < < < < < < < < < < < < < < < < < < < _ 3  .{ { ] ..+.< < < < < < < < < < < d @.#.",
"$.%.< < < < < < < < < < < < < < < < < < < < &.*.{ { =._ < < < < < < < < < < < d -.J . ",
";.>.,.< < < < < < < < < < < < < < < < < < < '.).a g 7 < < < < < < < < < < < M !.~.{.. ",
". ].^./.< < < < < < < < < < < < < < < < < < < (._.:.< < < < < < < < < < < M <.[.}.. . ",
". . |.b k < < < < < < < < < < < < < < < < < < < 1.2.< < < < < < < < < < < 3.4.5.& . . ",
". . & 4 b 6.< < < < < < < < < < < < < < < < < < < < < < < < < < < < < < 8 7.5 { & . . ",
". . & { o 8.9.< < < < < < < < < < < < < < < < < < < < < < < < < < < < 0.a.W { { & . . ",
". . & { { ] b.c.< < < < < < < < < < < < < < < < < < < < < < < < < < : d.a { { { & . . ",
". . & { { { e.f.g.h.i.j.k.k.i.h.l.< < < d m.n.i.i.< U k.o.i.o.< < M p. .q.r.s.t.u.. . ",
". . & { { { v.w.x.y.z.A.B.C.D.y.E.F.< d G.H.I.J.K.L.M.N.O.P.Q.R.[ p.] S.T.U.V.W.X.. . ",
". . & { { Y.Z.`.y.y.y. +.+y.y.y.y.E.++@+#+$+y.y.y.y.%+y.y.y.y.&+*+O =+-+;+y.y.>+,+. . ",
". . & { { '+)+J.y.y.y.y.y.y.y.y.y.!+~+{+]+ +y.y.y.y.y.y.y.y.y.!+^+V /+(+y.y.y.>+,+. . ",
". . & { { _+:+<+[+}+N.y.y.|+1+2+y.!+3+4+5+y.y.6+7+8+y. +9+0+y.y.a+'.b+c+y.y.d+e+f+. . ",
". . & { { g+h+y.!+i+j+y.y.k+l+m+y.!+n+o+p+y.y.q+r+s+y.t+u+v+y.y.a+< w+x+y.y.y+z+A+. . ",
". . & { { g+h+y.|+B+C+y.y.D+E+x+y.!+n+o+p+y.y.F+G+J.y.t+H+I+y.y.J+K+L+J.y.y.M+N+& . . ",
". . & { { g+h+y.|+B+C+y.y.O+P+x+y.!+n+o+p+y.y.F+G+J.y.t+H+I+y.y.Q+R+O.y.y.S+T+{ & . . ",
". . & { { g+h+y.!+B+U+y.y.V+W+x+y.!+n+o+p+y.y.F+G+J.y.t+H+I+y.y.X+Y+Z+y.y.`+ @W & . . ",
". . & { { .@+@@@#@$@%@&@&@E.*@=@&@-@;@>@,@&@&@>+'@S+&@)@!@~@&@&@{@]@^@-@`+/@'.(@* . . ",
". . & { { _@:@<@_ < < < < < < < < < < < < < < < < < < < < < < < [@}@|@1@< < < '.2@3@. ",
". . & { 4@5@y '.< < < < < < < < < < < < < < < < < < < < < < < < < < < < < < < < T 6@7@",
". . A+8@9@3.E < < < < < < < < < < < < < < < < < < < < < < < < < < < < < < < < < < T 0@",
"I a@b@c@M < < < < < < < < < < < < r k 7 m < < < < < < < < < < < < < < < < < < < < < T ",
"d@e@f@< < < < < < < < < < < < < < g@h@0 i@< < < < < < < < < < < < < < < < < < < < < < ",
"j@k@< < < < < < < < < < < < < < l@0 {  .8@<.< < < < < < < < < < < < < < < < < < < < < ",
"+ >.m@< < < < < < < < < < < < ( n@{ { { 5.o@p@< < < < < < < < < < < < < < < < < < q@r@",
". s@t@M < < < < < < < < < c.i w { { { { {  .7.8 < < < < < < < < < < < < < < d L u@a@+ ",
". . v@y M < < < < < < M w@x@] { { { { { { { { } c.< < < < < < < < < < < M L y@h@A+. . ",
". . & 8@z@d < < < < M !.3 { { { { { { { { { { 5 A@1 < < < < < < < < < c.7 B@o { & . . ",
". . & ] C@9.< < < m y@3 { { { { { { { { { { { { 5 p.< < < < < < < m D@E@F@{ { { & . . ",
". . & { 5 G@2.< H@y I@{ { { { { { { { { { { { { { g J@< < < < m q 6 n@{ { { { { & . . ",
". . K@L@L@M@N@O@P@M@L@L@L@L@L@L@L@L@L@L@L@L@L@L@L@L@Q@R@< < S@2@T@U@L@L@L@L@L@L@K@. . ",
". . . . . . V@W@s@. . . . . . . . . . . . . . . . . ;.$.X@Y@Z@s@. . . . . . . . . . . ",
". . . . . . + ;.. . . . . . . . . . . . . . . . . . . `@ #.#I . . . . . . . . . . . . ",
". . . . . . . . . . . . . . . . . . . . . . . . . . . . . . . . . . . . . . . . . . . "};
