/* XPM */
static char * xmms_icon30_xpm[] = {
"43 42 165 2",
"  	c #000000",
". 	c #7C7C7C",
"+ 	c #030609",
"@ 	c #040D15",
"# 	c #061421",
"$ 	c #0A1C2C",
"% 	c #0C2135",
"& 	c #04080C",
"* 	c #0E253A",
"= 	c #1B3145",
"- 	c #394B5E",
"; 	c #596575",
"> 	c #6A7987",
", 	c #798595",
"' 	c #75828F",
") 	c #626E7D",
"! 	c #4B5C6D",
"~ 	c #263C50",
"{ 	c #13293D",
"] 	c #0B1F31",
"^ 	c #06111C",
"/ 	c #445569",
"( 	c #8A95A4",
"_ 	c #BCC2CB",
": 	c #D8DCDF",
"< 	c #E5E7E9",
"[ 	c #EBEDEE",
"} 	c #DDE0E3",
"| 	c #CFD4D8",
"1 	c #AAB2BD",
"2 	c #2D4156",
"3 	c #5C6A7C",
"4 	c #B0B8BF",
"5 	c #E0E3E6",
"6 	c #CCD0D7",
"7 	c #8D99A3",
"8 	c #0C1925",
"9 	c #152C42",
"0 	c #475A6A",
"a 	c #9FA8B1",
"b 	c #C0C6CD",
"c 	c #BCC0C5",
"d 	c #7C8995",
"e 	c #23374B",
"f 	c #657384",
"g 	c #A2AAB3",
"h 	c #A9ADB0",
"i 	c #A5ADB9",
"j 	c #909BA5",
"k 	c #3F5165",
"l 	c #182F44",
"m 	c #1E3449",
"n 	c #24394E",
"o 	c #838E9B",
"p 	c #08131C",
"q 	c #6B727B",
"r 	c #2E4258",
"s 	c #12273B",
"t 	c #1D2B39",
"u 	c #1D2936",
"v 	c #243343",
"w 	c #36495D",
"x 	c #374A60",
"y 	c #23303D",
"z 	c #2A3E53",
"A 	c #1A2633",
"B 	c #1D242C",
"C 	c #283748",
"D 	c #0D1014",
"E 	c #101E2B",
"F 	c #303F50",
"G 	c #222D3A",
"H 	c #32465A",
"I 	c #2C3643",
"J 	c #334355",
"K 	c #242B34",
"L 	c #37404C",
"M 	c #2D3946",
"N 	c #3B4D61",
"O 	c #445263",
"P 	c #616F82",
"Q 	c #424D5C",
"R 	c #636C77",
"S 	c #4D5866",
"T 	c #414956",
"U 	c #5C646C",
"V 	c #2C333D",
"W 	c #4A525D",
"X 	c #3C434D",
"Y 	c #20272F",
"Z 	c #495462",
"` 	c #54606C",
" .	c #BBBCBD",
"..	c #8E9195",
"+.	c #525F70",
"@.	c #65686D",
"#.	c #1D2125",
"$.	c #919396",
"%.	c #D0D1D2",
"&.	c #313539",
"*.	c #939699",
"=.	c #C1C2C4",
"-.	c #323A45",
";.	c #AEB1B3",
">.	c #303740",
",.	c #9D9FA1",
"'.	c #B1B2B4",
").	c #353E4A",
"!.	c #F5F5F5",
"~.	c #161E27",
"{.	c #595D62",
"].	c #D6D7D8",
"^.	c #8A8C8E",
"/.	c #AAACAE",
"(.	c #A7A8A9",
"_.	c #A1A4A6",
":.	c #4E5E72",
"<.	c #777D85",
"[.	c #494E54",
"}.	c #7C8085",
"|.	c #717476",
"1.	c #9B9D9F",
"2.	c #868A8F",
"3.	c #2B3C4D",
"4.	c #61676F",
"5.	c #696E75",
"6.	c #292D33",
"7.	c #6E7074",
"8.	c #2D3136",
"9.	c #24282D",
"0.	c #080807",
"a.	c #3E4855",
"b.	c #282F39",
"c.	c #3C4551",
"d.	c #44505F",
"e.	c #0F1720",
"f.	c #546275",
"g.	c #58677A",
"h.	c #556579",
"i.	c #485768",
"j.	c #5D6C80",
"k.	c #525E6E",
"l.	c #090D12",
"m.	c #677588",
"n.	c #697686",
"o.	c #6A7789",
"p.	c #6D7A8D",
"q.	c #707C8D",
"r.	c #737E90",
"s.	c #7D8899",
"t.	c #848FA0",
"u.	c #949DAC",
"v.	c #96A0AE",
"w.	c #8F99A8",
"x.	c #758192",
"y.	c #8691A1",
"z.	c #AFB6C1",
"A.	c #B2B8C3",
"B.	c #C6CBD3",
"C.	c #CACFD5",
"D.	c #9DA6B2",
"E.	c #0A0B0B",
"F.	c #13171B",
"G.	c #101317",
"H.	c #14181C",
"                              . . . . . . . . . . . . .                               ",
"                                                                                      ",
"                                                                                      ",
"                                                                                      ",
"                                      + + + + +                                       ",
"                              + @ # $ % % % % % $ # @ +                               ",
"                          & # % * = - ; > , ' ) ! ~ { ] # +                           ",
"                        ^ % * = / ( _ : < [ [ } | 1 > 2 * ] ^ +                       ",
"                    + $ * { = 3 4 } 5 5 5 5 } 5 } } 6 7 - * * 8 +                     ",
"                  & $ { 9 9 0 a _ _ _ _ _ _ _ _ b _ b c d 2 { { ] &                   ",
"                + % 9 9 9 e f g h g 1 g g g g g a i g g j k l 9 9 ] &                 ",
"              + $ 9 = = m n ) o 7 d d d 7 d d d o o o o d k l m = 9 $                 ",
"              p 9 m m m e ~ 0 f > > f f ' ) ) ' f > f q ) r m m m = 9 #               ",
"            & s = e e e m e r / 0 ! ! 0 ! ! 0 ! ! ! ! 0 k 2 m n e e m { &             ",
"            8 m ~ ~ ~ = t u u v 2 - - - w x - - x - 2 y t t t n ~ ~ n m 8             ",
".         + { n ~ z z ~ l A A A B = 2 2 2 2 2 2 2 e t A A t m 2 z z z n { +         . ",
".         p e z z z z z z v u u A u v 2 2 2 2 2 v t u u t C 2 2 2 2 2 z m D         . ",
".         E ~ z x x x x x F v G t t t C H H H 2 t t t t 2 H H H H H w r z $         . ",
".       + { z x x x x x x x w I G G G G 2 H J y K G G L H H H w w - x w r t         . ",
".       + v x x x H F F H F H F y G K t K C G K G G M H H 2 L 2 z w x N H l +       . ",
".       + e x O N O P Q M R S T U G B V W K X X Y G Z ` L Z R q R Q - N x C &       . ",
".       + ~ N / O O h  ...c W +.< @.#.$.%.&.*.=.-.X c ;.>.;.;.,.'.R J O N n &       . ",
".       & ~ k 0 / J ).=.!.@.~.{.].=.*.=.=.&.^.%./.(._ /.K _./.,.'.U ).O k n +       . ",
".       + e O :.! Q <. ._. .[.{.,.}.c {.'.&.^.|.(.1.|./.&.$.$.^.=.2.3.N k C +       . ",
".       + v / :.+.+.( 4.I <.q W 5.K 6.6.7.8.{.X 6.9.X |.>.}.*.....W -.Q N v 0.      . ",
".         A k :.:.+.O a.).>.I ).b.K Y B K >.b.Y Y #.#.K -.L >.y b.I c.d.x A         . ",
".         e.N f.g.h.+.:.Z Z Q ).V V V -.a.Z d.L >.V V V ).k O - a.a.d.i.w e.        . ",
".         & z :.j.j.j.h.+.+.Q ).).).X ! h.h.h.f.a.L L ).).k ` ` k.+.+.0 z &         . ",
"            A / j.P P P P S c.).X T +.P P P P j.3 d.c.c.X X W R j.3 g./ A             ",
"            l.J +.P m.m.+.T T T T f.n.n.m.m.m.m.f P W a.a.a.a.0 f P h.r l.            ",
"              A / j.o.; W d.W W +.p.p.p.p.p.p.p.p.p.f S d.a.W [.+.3 / B               ",
"              + C +.P o.o.q.r.r.s.s.s.s.s.s.s.s.s.s.s.' ' ' ' ' j.:.v &               ",
"                l.3.h.n., t.( u.u.u.u.u.u.u.v.u.v.u.u.u.u.w.t.x.g.z l.                ",
"                  D J g.r.y.v.i z.z.z.z.A.z.z.z.z.z.z.z.g v.s.P H D                   ",
"                    l.3.h.x.w.i A.A.b B.B.C.C.B.B.b A.A.a ( P c.D                     ",
"                      & u i.o.( i A._ B.C.6 C.C.B._ z.D.o ; I l.                      ",
"                          ~.-.+.q.o v.g i 1 1 i D.u.s.) T #.E.0.                      ",
"                            + F.b.a.S ; ) f f 3 :.Q >.#.E.0.                          ",
"                                0.0.l.G.H.H.H.G.l.E.0.0.0.                            ",
"                                                                                      ",
"                                                                                      ",
"                                                                                      "};
