/* XPM */
static char * xmms_icon31_xpm[] = {
"43 43 88 1",
" 	c #000000",
".	c #050708",
"+	c #0B0B0B",
"@	c #141414",
"#	c #1C1C1C",
"$	c #333333",
"%	c #484747",
"&	c #545454",
"*	c #555A5B",
"=	c #5B5B5B",
"-	c #504F4F",
";	c #434444",
">	c #3B3B3B",
",	c #252525",
"'	c #636363",
")	c #787777",
"!	c #6B6B6B",
"~	c #2C2C2C",
"{	c #838383",
"]	c #4B4C4C",
"^	c #383736",
"/	c #7A7A7A",
"(	c #8B8B8B",
"_	c #747474",
":	c #687275",
"<	c #959595",
"[	c #363839",
"}	c #3E4446",
"|	c #585F62",
"1	c #46494B",
"2	c #4C5254",
"3	c #646769",
"4	c #525659",
"5	c #5B6265",
"6	c #5C696D",
"7	c #5C6D74",
"8	c #747B7D",
"9	c #747E81",
"0	c #697479",
"a	c #4C565A",
"b	c #63757B",
"c	c #546165",
"d	c #54646A",
"e	c #65787E",
"f	c #657B83",
"g	c #74888F",
"h	c #6D797D",
"i	c #4A5B61",
"j	c #6B7D84",
"k	c #798D93",
"l	c #6F8A92",
"m	c #5A6569",
"n	c #7C939A",
"o	c #65818A",
"p	c #889EA5",
"q	c #3F474A",
"r	c #8CA2A9",
"s	c #626D71",
"t	c #92A6AC",
"u	c #738A92",
"v	c #93A8AE",
"w	c #81969D",
"x	c #5D727A",
"y	c #849AA2",
"z	c #7B9096",
"A	c #6C848C",
"B	c #6B8087",
"C	c #84989E",
"D	c #8BA0A7",
"E	c #556C73",
"F	c #4C595E",
"G	c #72868D",
"H	c #394A50",
"I	c #627F89",
"J	c #475A60",
"K	c #1B2224",
"L	c #607075",
"M	c #4D6269",
"N	c #3E555C",
"O	c #45565B",
"P	c #0B1012",
"Q	c #525E62",
"R	c #44585E",
"S	c #56686D",
"T	c #1E282B",
"U	c #334247",
"V	c #35454A",
"W	c #454E51",
"                                           ",
"                  .+++++..                 ",
"               @#$%&&*=-;>,@+              ",
"             #;'))!''='==''=%~+            ",
"           #&){!======'======']~+          ",
"          ^/('&='_//{/////!'=&=';@         ",
"        +=()&=://_!'=&]&='_)/!=&'],        ",
"       +!<'-!/)!&%^~~~~~$^;&!)/']'=,       ",
"      +'<=&)/_&>~,~,,,,,,,,~^&!/!&'&,      ",
"     .=<'=/)'%$~~~~,~,~,,,,,~~]'__&'&@     ",
"     ^<'&))';~~~~~~~~~,,,,$$^~$;')_&';.    ",
"    @{/&))'>~~~~~~~~~~~~~$^^^^^^%'_!==~    ",
"    &(&!/!>~$~~~$~$~$~~$^>>>[^^>>]!_''&+   ",
"   #{!=/_]$$~$$~$~$~~~$>;>;>>>>>>>=_!==,   ",
"   %(=!/=^~~$$~$$~,$^>>>};;;;>>>>>;!_'';+  ",
"  @!!=)!;~$$$$$$,~;]]]];^;%;%%;;>;>=)''=@  ",
"  ,{|')'^~$$$$$,$]&&&&&-;^;]%%%;>;;]_!'',  ",
"  ^{=_)]$$$$$^~~]&====&&];>]]]%;;;>]!_='^. ",
" .])&)!;$$$$^$~;&======&&%^]]]]%%;;%'/'!;. ",
" +=!&/!>$$$$^$$1&======&&]>%]&]]]%;;=/'!]+ ",
" +'!=)'^$$$$^$^]&&==&=&&2]>;&&]]]]%%=/'!-+ ",
" +'!=/'^$$$$$$^%]&&&&&&&]%^>&&&&-]]]=/3_&+ ",
" @='=)'^$$$$$[>>]]&&&&-]]>^%&&&---]-'/'_-. ",
" +='*)'[$$$$^%%>>%%]]]]%;^$]&&&&----!/3_%. ",
" .-!&_!^$$$$>]-^$^>;;;;>^$^&&&&&&2]&__!/>  ",
"  >!&__%$~$^]&]]^$$$^^^$~$&==&=&&&&&/!_)~  ",
"  ~!='_&^$^;]]&-]>$$~~~~>&&&&=&&&&&'/!/!@  ",
"  @'==_!^$;]]]]&&&-%>}%-&=&=&&&&&&=_/!(&+  ",
"  .]'&!_]$%]11]22&&4|**55=&*55*|6778!){$   ",
"   ~!&=90;}abcdef*47ghijkb*dklmhnklo0('+   ",
"   +&'&jpeqjrsett6*uvwdkru*xyz6jud7AB)^    ",
"    ~'&=wCxpk&0Dpj|zpkduyz|fnuiElcFd5%+    ",
"    +;!-sprp5>bpwG|nwkcgkn6ouGHFgAIxa#     ",
"     @&']gpG}^7yGzdzGkcGIkbGIAa|bfAAJ      ",
"      K=3grua%LybnggbGiAfAlAxAdE78soi.     ",
"       ,7ywy059wMnnjxANIbfzodAMxohBlO      ",
"       PfzbkzmbnQgnxxARIeEzfioFSooIET      ",
"       Hz7[mnbEgFxGd7eFb6OEFij5]UHUK       ",
"       VOK.,am7:2W*q12%4*|!='&,+           ",
"       ..   +,^&='3'!!!_/)!%~@             ",
"              .@~^%]&&&%^~@+               ",
"                   +++...                  ",
"                                           "};
