/* XPM */
static char * xmms_icon8init_xpm[] = {
"43 43 11 1",
" 	c None",
".	c #000000",
"+	c #545203",
"@	c #FCF80A",
"#	c #1B1B01",
"$	c #C3C007",
"%	c #8B8905",
"&	c #373602",
"*	c #A8A506",
"=	c #DFDB08",
"-	c #6F6D04",
"...........................................",
"...........................................",
"...........................................",
"...........................................",
"...........................................",
"...........................................",
"...........................................",
"...........................................",
"...........................................",
"...........................................",
".+@....#$@@%...&@%..*@@@%.+@.*=..**.&$@=+..",
".+@....=*.#=%..*@=..**.#@&+@.*@%.**#@-.+@&.",
".+@...&@#..-=..@-@&.**..**+@.*$@#**%=...+#.",
".+@...+@...+@.+@.$%.**..**+@.**%$****.&**&.",
".+@...&@&..%=.*=*==.**..$%+@.**.==*%$.#+=+.",
".+@+++#*=+-@+#@%++@&*$+-@#+@.**.+@*#=*+%@+.",
".&****&.-**&.&*...%+-***&.&*.--..%-.#%*-##.",
"...........................................",
"...........................................",
"...................................#++&....",
"&@@&..$@$.*@@%...@@@..@@@&..+@@*..%@@@@$#..",
".*@$.&@@#.*@@*..+@@@..@@@+..*@@*.&@=-+$@=..",
".#@@&$@%..*@@@..%=@@..@@@*..==@*.*@-...@@&.",
"..-@=@=...*@*@&.**@@..@@*=..@*@*.*@*...&+#.",
"...=@@&...*@%@+.@-@@..@@%@.+@-@*.&@@@*%+...",
"...*@@#...*@+@*#@+@@..@@+@+-@+@*..&*=@@@=#.",
"..+@@@$...*@+*=+@.@@..@@.@%**+@*......+=@%.",
"..=@&=@+..*@+-@*=.@@..@@.$*@%+@*.%*&...+@*.",
".%@$.-@=#.*@+&@@*.@@..@@.%@@++@*.%@*#.#*@-.",
"&@@&..$@*.*@+.@@-.@@..@@.+@@#+@*.#=@@@@@*..",
"&++...#++.&+#.++#.++..++.#++.#+&...+***+...",
"...........................................",
"...........................................",
"...........................................",
"...........................................",
"...........................................",
"...........................................",
"...........................................",
"...........................................",
"...........................................",
"...........................................",
"...........................................",
"..........................................."};
