/* XPM */
static char * xmms_icon11_xpm[] = {
"43 43 226 2",
"  	c None",
". 	c #000000",
"+ 	c #060606",
"@ 	c #141414",
"# 	c #1A1A1A",
"$ 	c #0E0E0E",
"% 	c #030303",
"& 	c #111111",
"* 	c #5C5C5C",
"= 	c #CECECE",
"- 	c #FCFCFC",
"; 	c #999999",
"> 	c #050505",
", 	c #040404",
"' 	c #343434",
") 	c #B3B3B3",
"! 	c #B6B6B6",
"~ 	c #3A3A3A",
"{ 	c #1D1D1D",
"] 	c #868686",
"^ 	c #ECECEC",
"/ 	c #FFFFFF",
"( 	c #EFEFEF",
"_ 	c #333333",
": 	c #B1B1B1",
"< 	c #C0C0C0",
"[ 	c #3B3B3B",
"} 	c #0F0F0F",
"| 	c #515151",
"1 	c #A1A1A1",
"2 	c #E9E9E9",
"3 	c #F9F9F9",
"4 	c #9E9E9E",
"5 	c #010101",
"6 	c #323232",
"7 	c #B5B5B5",
"8 	c #353535",
"9 	c #020202",
"0 	c #373737",
"a 	c #8A8A8A",
"b 	c #DCDCDC",
"c 	c #E5E5E5",
"d 	c #525252",
"e 	c #2B2B2B",
"f 	c #B8B8B8",
"g 	c #B9B9B9",
"h 	c #212121",
"i 	c #797979",
"j 	c #C7C7C7",
"k 	c #F7F7F7",
"l 	c #A3A3A3",
"m 	c #0B0B0B",
"n 	c #9D9D9D",
"o 	c #2D2D2D",
"p 	c #B2B2B2",
"q 	c #EEEEEE",
"r 	c #FAFAFA",
"s 	c #CFCFCF",
"t 	c #363636",
"u 	c #FBFBFB",
"v 	c #E3E3E3",
"w 	c #E8E8E8",
"x 	c #F2F2F2",
"y 	c #7F7F7F",
"z 	c #595959",
"A 	c #CCCCCC",
"B 	c #C5C5C5",
"C 	c #686868",
"D 	c #D3D3D3",
"E 	c #F1F1F1",
"F 	c #7D7D7D",
"G 	c #F4F4F4",
"H 	c #F6F6F6",
"I 	c #9C9C9C",
"J 	c #FEFEFE",
"K 	c #D8D8D8",
"L 	c #8C8C8C",
"M 	c #F8F8F8",
"N 	c #5B5B5B",
"O 	c #0C0C0C",
"P 	c #6F6F6F",
"Q 	c #636363",
"R 	c #FDFDFD",
"S 	c #ABABAB",
"T 	c #090909",
"U 	c #C1C1C1",
"V 	c #A8A8A8",
"W 	c #454545",
"X 	c #C6C6C6",
"Y 	c #F3F3F3",
"Z 	c #C9C9C9",
"` 	c #121212",
" .	c #DBDBDB",
"..	c #151515",
"+.	c #2F2F2F",
"@.	c #BFBFBF",
"#.	c #EBEBEB",
"$.	c #7B7B7B",
"%.	c #0D0D0D",
"&.	c #535353",
"*.	c #E2E2E2",
"=.	c #8E8E8E",
"-.	c #959595",
";.	c #CBCBCB",
">.	c #232323",
",.	c #303030",
"'.	c #E7E7E7",
").	c #717171",
"!.	c #080808",
"~.	c #6D6D6D",
"{.	c #424242",
"].	c #D4D4D4",
"^.	c #444444",
"/.	c #1C1C1C",
"(.	c #A9A9A9",
"_.	c #929292",
":.	c #D0D0D0",
"<.	c #545454",
"[.	c #4A4A4A",
"}.	c #EDEDED",
"|.	c #414141",
"1.	c #505050",
"2.	c #565656",
"3.	c #8F8F8F",
"4.	c #4E4E4E",
"5.	c #4C4C4C",
"6.	c #171717",
"7.	c #D1D1D1",
"8.	c #0A0A0A",
"9.	c #747474",
"0.	c #EAEAEA",
"a.	c #3E3E3E",
"b.	c #101010",
"c.	c #5E5E5E",
"d.	c #6A6A6A",
"e.	c #656565",
"f.	c #6C6C6C",
"g.	c #E0E0E0",
"h.	c #494949",
"i.	c #969696",
"j.	c #161616",
"k.	c #585858",
"l.	c #626262",
"m.	c #191919",
"n.	c #252525",
"o.	c #777777",
"p.	c #DADADA",
"q.	c #D2D2D2",
"r.	c #464646",
"s.	c #4B4B4B",
"t.	c #393939",
"u.	c #484848",
"v.	c #AFAFAF",
"w.	c #E1E1E1",
"x.	c #202020",
"y.	c #4F4F4F",
"z.	c #3F3F3F",
"A.	c #555555",
"B.	c #D6D6D6",
"C.	c #A0A0A0",
"D.	c #575757",
"E.	c #4D4D4D",
"F.	c #2E2E2E",
"G.	c #616161",
"H.	c #F0F0F0",
"I.	c #858585",
"J.	c #313131",
"K.	c #282828",
"L.	c #070707",
"M.	c #BEBEBE",
"N.	c #C4C4C4",
"O.	c #787878",
"P.	c #BCBCBC",
"Q.	c #434343",
"R.	c #5A5A5A",
"S.	c #272727",
"T.	c #5D5D5D",
"U.	c #848484",
"V.	c #676767",
"W.	c #666666",
"X.	c #474747",
"Y.	c #383838",
"Z.	c #646464",
"`.	c #737373",
" +	c #262626",
".+	c #2C2C2C",
"++	c #5F5F5F",
"@+	c #898989",
"#+	c #707070",
"$+	c #A6A6A6",
"%+	c #242424",
"&+	c #696969",
"*+	c #404040",
"=+	c #1B1B1B",
"-+	c #757575",
";+	c #131313",
">+	c #DDDDDD",
",+	c #292929",
"'+	c #181818",
")+	c #828282",
"!+	c #B4B4B4",
"~+	c #878787",
"{+	c #6E6E6E",
"]+	c #BDBDBD",
"^+	c #8D8D8D",
"/+	c #6B6B6B",
"(+	c #808080",
"_+	c #2A2A2A",
":+	c #919191",
"<+	c #DFDFDF",
"[+	c #A7A7A7",
"}+	c #606060",
"|+	c #E4E4E4",
"1+	c #8B8B8B",
"2+	c #BBBBBB",
"3+	c #F5F5F5",
"4+	c #7E7E7E",
"5+	c #B0B0B0",
"6+	c #888888",
"7+	c #818181",
"8+	c #9B9B9B",
"9+	c #D7D7D7",
"0+	c #ADADAD",
"a+	c #222222",
"b+	c #ACACAC",
"c+	c #9A9A9A",
". . . . . . . . . . . . . . + @ # $ . . . . . . . . . . % & & % . . . . . . . . . . . ",
". . . . . . . . . . . . . @ * = - ; > . . . . . . . . , ' ) ! ~ + . . . . . . . . . . ",
". . . . . . . . . . . % { ] ^ / / ( _ . . . . . . . % ' : / / < [ , . . . . . . . . . ",
". . . . . . . . . . } | 1 2 / / / 3 4 & . . . . . 5 6 ) / / / / 7 8 5 . . . . . . . . ",
". . . . . . . . 9 0 a b / / / / / / c d . . . . . e f / / / / / / g h . . . . . . . . ",
". . . . . . . { i j k / / / / / / / 3 l m . . . e 7 / / / / / / / / n } . . . . . . . ",
". . . . . . o p q / / / / b b r / / / s t . . { : u / r v w / / / / x y . . . . . . . ",
". . . . . z A r / / 3 B C o 6 D / / / E F . e 1 G / H I ' z D / / / J K ' . . . . . . ",
". . 9 { L ^ J J M A N O > 5 5 P E / / J B Q ! u / R S T 5 , t U R / / 3 V @ . . . . . ",
". T W X / / Y Z Q . . . . . . `  ./ / / / / / / - X ... . . . +.@.u / / #.$.%.. . . . ",
"> &.*./ / H =.` . . . . . . . . -.R / / / / / / ;.>.. . . . . . ,.@.R / / '.).O . . . ",
"!.~.M / / w {.9 . . . . . . . . ,.x / / / / / ].| > . . . . . . . | M / / / D ^.. . . ",
". /.(.k / / _.` . . . . . . . . . : / / / / :.<.T . . . . . . . { 4 - / / r D [.. . . ",
". % t < / / }.|.9 . . . . . . . . 1./ / / s 2.m . . . . . . . @ 3.G / / u < 4.} . . . ",
". . T 5.Z q M f m . . . . . . . . 6.U / 7.<.m . . . . . . . 8.9.0./ / - B a.> . . . . ",
". . . b.1.P A k c.. . . . . . . . + d.A e._ 8.. . . . . . T f.g.R / J = 0 , . . . . . ",
". . 9 h h.5.i.x s ..& {.{.{.j.. . 5 6.k.5.h./.. . 5 +.{.{.* U J / / b o % . . . . . . ",
". . O t 5.5.l.v r y ..5.5.5.m.. . . } 5.5.5.n.% . 9 2.5.5.o.p./ M q.r.s.[.t.} . . . . ",
". . ..u.5.1.4.v.u w.~ 5.5.5./.5 . 9 x.5.4.y.z.& . 9 A.5.5.9.B.u C.<.y.D.E.5.F.+ . . . ",
". . m.y.4.G.D.c.B.H.I.5.5.5.J.!.. , t.5.k.G.| K.L.+ 5.5.5.G.M.N.e.5.A.O.c.k.W ` . . . ",
". . m.4.<.5.* 1.).P.d.E.4.5.Q.$ . + r.5.5.N R.[.K.S.5.y.5.T.U.z.<.c.5.4.V.W.X.$ . . . ",
". 5 # 5.2.>.|.N 4.T.E.z N 5.^.} . L.4.E.Y.>.<.<.h.[.| d.5.A.' > ~ Z.`.c.d s. +> . . . ",
". + .+5.d h b.++c.E.++@+#+5.s.& . m 4.| Y.% 8 C &.E.$.$+5.E.%+. > x.h.&+o.c.*+ +!.. . ",
". $ ^.5.X.m.. =+-+3.V K _.5.d @ . K.5.| Y.. 8.z @+=.= ].R.5.>.. . m.L.{ 0 Z.Q r.n.> . ",
"% n.5.5.t.} . ;+X ( G G n 5.4.` + r.5.y.8 . . } ) }.r >+l.5.F.L.@ z.,+@ '+' y.5.r.$ . ",
"L.| )+)+*+9 j.!+r / 2 o.J.1.5.` $ ~+)+{+%+. . . %+q.J *.P 5.Q...8 E.s.h.u.[.E.&.G.... ",
". 8.J.J.{ 0 ]+u J v #+. o z 1.# 5 x.J.S.T . . . . # D ^ ^+| T..+_ ~+y )./+/+9.(+6 % . ",
". . . m E.= / / B.T.. . K.Z.~._+% . . . . . . . . 5 |.b A a n :+6 , e h.2.2.{.` . . . ",
". . ` Z.q./ M X z.. . . > S.r.# 5 . . . . . . . . . L.z 7.<+v M f u.9 . . . . . . . . ",
". } 9.v / k [+J.9 . . . . . . . . . . . . . . . . . . m }+b / / / B.8 . . . . . . . . ",
"> | |+/ / j t 9 . . . . . . . . %._+. . . . . . . . . . & i 0./ / / ! %.. . . . . . . ",
"% h.x / / g.~.O . . . . . . . $ 1+2+z . . . . . . . . . . 6 @./ / / 3+<.. . . . . . . ",
". b.4+x / / c /+> . . . . . /._.( R p.P %.. . . . . . > z.5+^ / / / 3 6+. . . . . . . ",
". 5 ..1+/ / / q 1.. . . . ,+v.3+J / R w 7+O . . . . T e.B.r / / / / : ,+. . . . . . . ",
". . . n.(.u / / x y., 9 o !+R / / / / / H.7+& 9 + b.8+3 J / / J G ~.8.5 . . . . . . . ",
". . . . n.: u / / 0.* ~ p / / / / / / / / Y (+*+$.<+/ / / / k q.{.% . . . . . . . . . ",
". . . . . E.;.u / / H.9+/ / / / / 9+Z ( / / x 3 / / / / / 3+0+t.> . . . . . . . . . . ",
". . . . . . E.>+J / / / / / / / j W a+L ^ / / / / / / / G b+J.. . . . . . . . . . . . ",
". . . . . . . ~.#./ / / / / H p [ 5 . # a #./ / / / / ^ :+6 . . . . . . . . . . . . . ",
". . . . . . . 8.{+/ / / / 3+; e % . . . /.a #./ / / |+(+'+. . . . . . . . . . . . . . ",
". . . . . . . . $ 8+/ / H ; %+9 . . . . . %+S 3 / j d @ . . . . . . . . . . . . . . . ",
". . . . . . . . 5 h c+'.I.a+9 . . . . . . % .+(.@+_+> . . . . . . . . . . . . . . . . ",
". . . . . . . . . 5 S.z m 5 . . . . . . . . 9 } m 5 . . . . . . . . . . . . . . . . . "};
