/* XPM */
static char *xmms-alban[] = {
/* columns rows colors chars-per-pixel */
"43 43 256 2",
"   c #080807",
".  c #0E1215",
"X  c #121517",
"o  c #161A1C",
"O  c #181B1D",
"+  c #1A1E21",
"@  c #1E2123",
"#  c #27150A",
"$  c #29170B",
"%  c #2E1A0C",
"&  c #341C0C",
"*  c #38261B",
"=  c #232527",
"-  c #232729",
";  c #25292B",
":  c #2A2B2B",
">  c #2D2E30",
",  c #2F3031",
"<  c #312F2A",
"1  c #32302A",
"2  c #333333",
"3  c #363738",
"4  c #373839",
"5  c #3B3B3B",
"6  c #3F3C35",
"7  c #3C3E41",
"8  c #3F403B",
"9  c #43240F",
"0  c #462510",
"q  c #482711",
"w  c #562E13",
"e  c #5A2F14",
"r  c #5D3115",
"t  c #5F361B",
"y  c #413D37",
"u  c #403F3D",
"i  c #643516",
"p  c #663718",
"a  c #693716",
"s  c #683718",
"d  c #6C3917",
"f  c #6B3919",
"g  c #723D1A",
"h  c #6F3F20",
"j  c #44423E",
"k  c #49443B",
"l  c #4D483D",
"z  c #504A3E",
"x  c #7C421C",
"c  c #6D462E",
"v  c #7F5033",
"b  c #444445",
"n  c #474748",
"m  c #474848",
"M  c #484746",
"N  c #4B4945",
"B  c #4B4A4A",
"V  c #4B4E52",
"C  c #4D5359",
"Z  c #544E43",
"A  c #514F4A",
"S  c #575045",
"D  c #54524C",
"F  c #5B5343",
"G  c #5B564B",
"H  c #545254",
"J  c #595752",
"K  c #5C5A57",
"L  c #645A46",
"P  c #625A4A",
"I  c #625C52",
"U  c #6C614C",
"Y  c #696357",
"T  c #6B6559",
"R  c #706247",
"E  c #7A6B4E",
"W  c #776C56",
"Q  c #766D5A",
"!  c #7D6F51",
"~  c #796E5A",
"^  c #7E725B",
"/  c #7C7054",
"(  c #666770",
")  c #676D78",
"_  c #626872",
"`  c #6D7177",
"'  c #7A757E",
"]  c #7C7E85",
"[  c #7E8086",
"{  c #7F8289",
"}  c #83461E",
"|  c #87481F",
" . c #89491F",
".. c #954D1E",
"X. c #984F1F",
"o. c #8C4B20",
"O. c #924E22",
"+. c #965023",
"@. c #9C5324",
"#. c #A25725",
"$. c #A55827",
"%. c #A75A28",
"&. c #A85723",
"*. c #A95925",
"=. c #AB5C29",
"-. c #B15F2A",
";. c #AC602C",
":. c #B4612B",
">. c #BC662D",
",. c #BF682E",
"<. c #BB6D34",
"1. c #BF7036",
"2. c #83675B",
"3. c #856D5F",
"4. c #83755B",
"5. c #87795B",
"6. c #887754",
"7. c #8C7C5C",
"8. c #847454",
"9. c #966140",
"0. c #996647",
"q. c #866F65",
"w. c #8C756B",
"e. c #8A7661",
"r. c #92776D",
"t. c #957A70",
"y. c #9A7D72",
"u. c #A26F4F",
"i. c #C0672D",
"p. c #C2692F",
"a. c #C56B31",
"s. c #CB6E32",
"d. c #C37136",
"f. c #CE7033",
"g. c #CD7639",
"h. c #CE7A3C",
"j. c #C07439",
"k. c #D47334",
"l. c #D07739",
"z. c #D47A3B",
"x. c #DA7636",
"c. c #DE7837",
"v. c #DD7B39",
"b. c #E37B37",
"n. c #E37C39",
"m. c #E97F3A",
"M. c #94825C",
"N. c #9A855C",
"B. c #9C885F",
"V. c #8F8060",
"C. c #9A8660",
"Z. c #9C8964",
"A. c #938261",
"S. c #A38E64",
"D. c #A59167",
"F. c #A59169",
"G. c #AF9562",
"H. c #AC976D",
"J. c #AF996F",
"K. c #B29762",
"L. c #B49C6B",
"P. c #B99F6A",
"I. c #BCA16B",
"U. c #DE823D",
"Y. c #DF883E",
"T. c #E1823D",
"R. c #E0893F",
"E. c #ED813B",
"W. c #F4853D",
"Q. c #F8873E",
"!. c #FA883F",
"~. c #CB8748",
"^. c #D58444",
"/. c #DC8644",
"(. c #DC8946",
"). c #D88E4C",
"_. c #DC9652",
"`. c #DA9854",
"'. c #C2A66C",
"]. c #CAAB6E",
"[. c #C3A770",
"{. c #C5AA74",
"}. c #CBAD72",
"|. c #CBAF78",
" X c #CDB076",
".X c #CEB178",
"XX c #D5B678",
"oX c #D8B675",
"OX c #DEBC77",
"+X c #DCBC7A",
"@X c #D4B373",
"#X c #E28542",
"$X c #E08A40",
"%X c #E68D48",
"&X c #EC8741",
"*X c #EF8842",
"=X c #EA8E48",
"-X c #EB934C",
";X c #E59E57",
":X c #EC9D55",
">X c #FD8C41",
",X c #F38A42",
"<X c #F4974E",
"1X c #FE9344",
"2X c #FF9947",
"3X c #FF9C49",
"4X c #F69E54",
"5X c #E4A35C",
"6X c #ECA45B",
"7X c #EEA95F",
"8X c #FDA44C",
"9X c #FFA94E",
"0X c #FFAD51",
"qX c #FFB353",
"wX c #FFBE59",
"eX c #EBAE64",
"rX c #E4AC64",
"tX c #ECB167",
"yX c #ECB46A",
"uX c #E1BE77",
"iX c #E1BF7B",
"pX c #F2AD62",
"aX c #F6B366",
"sX c #F2B66A",
"dX c #F3BB6E",
"fX c #F8B568",
"gX c #F8B366",
"hX c #F4BF71",
"jX c #E5C27B",
"kX c #E9C47B",
"lX c #EFCA7E",
"zX c #F4C274",
"xX c #F6C678",
"cX c #F2CA7D",
"vX c #F9C475",
"bX c #FBCD7C",
"nX c #FCD07F",
"mX c #808287",
"MX c #808288",
"NX c #8B8587",
"BX c #8C8B96",
"VX c #8D8E99",
"CX c #938B8E",
"ZX c #938280",
"AX c #979093",
"SX c #92959D",
"DX c #9B9294",
"FX c #9E949A",
"GX c #9295A0",
"HX c #9699A3",
"JX c #A1969B",
"KX c #A5989D",
"LX c #F4CD81",
"PX c #FED583",
"IX c #FED986",
"UX c #F4D183",
/* pixels */
"  & & & & & & & & & & & & & & & & & & & & & & & & & & & & & & & & & & & & & & & 0 x r ",
"9 W.Q.Q.Q.W.W.m.m.n.n.n.b.x.x.k.k.s.s.s.a.a.a.i.i.>.i.-.-.-.-.-.=.$.#.@.@.@.+.+.O.s.n.",
"9 !.!.>XQ.Q.,X*X*X&X&Xn.b.c.c.x.x.k.k.z.l.g.d.a.a.i.i.-.-.-.-.-.=.$.$.#.$.@.+.+.O.f.m.",
"q !.!.!.Q.W.4XgXgXaX:Xb.b.c.c.x.k.k./.eXeXeX).;.+.+.+...X...........O.......O.O.O.k.m.",
"0 Q.>X!.Q.W.<XbXPXPXvX&Xc.c.x.x.k./.hXPXIXxX^.o.q.w.w.w.t.t.t.t.t.t.y.y.t.q.0.#.O.k.E.",
"0 Q.Q.Q.W.W.W.gXPXPXPX6Xc.x.x.x.U.hXPXPXxX).a.o.FXHXGXGXGXGXGXGXGXGXGXGXHX] | :.o.k.E.",
"0 W.Q.W.W.W.m.-XbXPXPXhX/.x.k.z.eXPXPXxX).d.i.g DX[ M b b b b b n b n n n @ p :.o.k.W.",
"0 W.W.W.W.W.m.E.aXPXPXPX:Xx.x.eXPXPXPX;Xa.,.,.o.DXmXH 4.q.I A V B C ^ ^ T > p :.o.k.W.",
"0 W.W.W.m.m.m.m.,XPXPXPXhX/.6XPXPXbXrXs.a.i.i.} DX[ Z LXLX7.2 2 2 l jXkX7.O f -. .k.W.",
"0 E.W.W.,Xm.m.m.&XpXPXPXPXhXbXPXPXrXs.a.i.i.>.} DXmXT UXPX[.I A D Z.PXUXH.: p :. .k.Q.",
"0 W.W.W.m.m.m.n.b.%XLXPXPXPXPXPXtXl.a.p.i.,.>.} DX] F PXLX}.U 2 6  XUXLXN.+ p :.} x.Q.",
"& E.W.m.m.m.n.n.c.n.pXPXPXPXPXsXz.a.a.i.,.,.>.} AX] P PXoX'.H.B ~ jXI.LXF.= f :.} x.Q.",
"0 W.W.m.m.m.n.n.c.c.:XPXPXPXPX^.a.a.p.i.>.>.:.| AX' G PX'.C.}.S B.OXM.lXC.@ f :.} x.!.",
"0 m.m.W.m.m.n.b.b./.hXPXPXPXPX_.s.a.p.,.>.>.:.| AX' G PXP.U OX6.].D.6.lXC.@ d :.} x.!.",
"0 m.E.m.m.n.n.b.U.sXPXPXPXPXPXhXg.,.i.,.>.:.:.| AX' I PX'.A }.@XkXW 7.lXZ.= d :.} c.!.",
"9 n.m.m.n.n.n.T.sXPXPXbXxXPXPXPX`.a.,.>.>.:.:.| AX' S PXP.> N.PX@Xl ! lXN.O g :.x c.!.",
"0 m.m.m.n.b.b.pXPXPXbX;X(.hXIXPXhXd.,.:.:.:.:.o.AX] I LXP.b 3.OXD.D 5.jXC.; g :.x c.>X",
"0 n.m.m.n.n.6XLXPXPXeXk.s.;XPXPXPX`.i.:.:.:.;.o.CX( : < < = = < : = : < : X f :.x c.>X",
"0 n.m.n.n.:XPXPXPXsXz.s.s.^.hXPXPXhXd.:.:.:.-.o.q.* # $ $ $ $ $ % % % % & $ o.:.x c.1X",
"0 n.n.n.-XvXPXPXhXz.k.s.a.p.5XUXPXPX`.:.:.-.=.=.=.-.-.-.:.:.>.>.>.>.>.p.i.p.s.+.x n.>X",
"0 n.n.-XxXIXPXhX/.k.s.s.s.a.h.hXIXPXhX1.;.;.=.=.$.#.#.@.@.+.+.O.o. . .| } } x g x c.1X",
"0 c.n.:XsXsXdX(.k.s.s.s.a.p.,.`.rXyXrX~.-.-.=.%.$.#.#.@.@.+.O.O.O. . .| } } x x x b.1X",
"0 x.n./.U.U.U.k.k.s.s.s.a.a.p.a.j.d.1.<.=.=.=.%.$.#.#.@.+.+.O.O. . . .} } x x x g n.1X",
"0 b.n.>.o.o.o.o.o.o.O.O.O.O.O.O.O.+.O.@.-.=.%.o.x g x g } x x } } } } } } } o.x g n.1X",
"0 x.n.=.2.FXFXFXJXFXFXJXJXJXJXJXJXFXe.>.;.%.%.x ZXJXDXFXFXFXJXJXFXFXJXFXKXCXu.+.g n.1X",
"q x.b.=.w.GX] ] ] mX] mXmX] ] ] mX` * s.%.%.%.x FXBX[ ] ] ] ] ] ] ] [ ] mXC h #.d b.1X",
"0 x.c.&.w.GXB 5 5 5 S 8.W Z u 5 5 2 % s.%.%.$.x DXmXj j Z Z Z Z Z Z Z Z Z @ f #.d U.2X",
"q x.x.&.w.GXK B B ~ XXuXkXkXQ B B b % f.%.$.#.x DXMXB Q PXPXPXPXPXPXPXPX}.; f #.d U.1X",
"9 x.x.&.w.SXB 3 j '.kX5.M.UX! 3 4 2 % s.%.#.#.x DX[ 5 G  X{.{.{..X+XPXIX}.+ f #.d U.2X",
"9 k.x.&.w.SXH b A PX@XM A 5.P 8 b 4 & s.#.#.@.x DX[ n b 7 b K e.J.XX}.K./ = f #.d b.2X",
"q k.x.&.w.SXB 5 Z OXkX6.S 8 b b b 5 % f.#.#.@.x DX[ b k E N.].OX.XH.Q D b = d #.a T.2X",
"q k.k.&.w.VXB 4 5 ! kXUX+XA.b 4 5 , & s.#.@.@.x AX] 5 L cXPXI.R l 4 4 4 5 @ d #.i U.2X",
"q f.x.&.w.BXH b b A Q Z.iXcXW 7 b 5 % f.@.@.@.x DX' b G L.jXjXI.M.U B b b ; f #.i U.3X",
"9 k.k.&.w.BXb , 2 L L y ! cXW > 2 ; & f.@.@.@.x AX] 3 2 6 k R G.jXjX}.! j O g $.i U.3X",
"9 f.k.&.w.BXH n A K.iXZ.S.UX4.b B 8 & f.@.@.+.x CX] B G e.V.A.Z.F..XUXnX[.- f %.a U.3X",
"q s.f.#.w.BXb 2 2 L iX+XOX'.F , 2 : & f.@.@.+.x AX' 3 F +X+X+XXX+X+X+XjXL.+ g %.a T.3X",
"q f.f.&.r.BXH n n B n n B n b B M 8 % f.@.+.+.x DX] n B B B n B n B B b B ; f %.d T.3X",
"9 s.s.&.q.( + X X X X X X X X X X . % l.+.+.O.x NXV o X X . X X X X X X X   g %.d T.3X",
"q s.s.-.%.c q e e r r i i p i p s s | k.+.O.O.O.0.t w e e i r i i p p f f f ;.$.d Y.3X",
"q s.s.p.<.<.i.a.p.p.i.,.,.i.i.i.,.,.,.;.+.O.O.X.@.#.#.#.#.#.#.#.@.#.#.@.@.%.$.o.g T.3X",
"w p.s.p.p.i.>.:.:.:.-.=.=.$.$.#.@.@.X.+.O.O.O.| | } } x x x g g g d a a a a d d g U.8X",
"x -.:.:.:.>.>.>.,.p.p.a.a.s.s.s.f.k.k.k.k.x.x.c.c.b.b.b.b.T.b.T.U.U.U.Y.U.Y.Y.Y.Y.8X9X",
"r >.p.s.s.f.k.k.x.x.b.n.m.m.W.W.Q.!.!.!.!.2X!.2X2X2X2X2X3X8X8X8X9X9X9X9XqXqXqXqXqXqXwX"
};
