/* XPM */
static char * xmms_icon7_xpm[] = {
"43 43 254 2",
"  	c None",
". 	c #FFFFFF",
"+ 	c #F0F0F0",
"@ 	c #DCDCDC",
"# 	c #DBDBDB",
"$ 	c #DADADA",
"% 	c #D8D8D8",
"& 	c #D7D7D7",
"* 	c #D6D6D6",
"= 	c #D5D5D5",
"- 	c #D4D4D4",
"; 	c #D3D3D3",
"> 	c #D2D2D2",
", 	c #D1D1D1",
"' 	c #D0D0D0",
") 	c #CFCFCF",
"! 	c #CECECE",
"~ 	c #CDCDCD",
"{ 	c #CCCCCC",
"] 	c #CBCBCB",
"^ 	c #CACACA",
"/ 	c #C9C9C9",
"( 	c #C8C8C8",
"_ 	c #C7C7C7",
": 	c #C6C6C6",
"< 	c #E3E3E3",
"[ 	c #BCBCBC",
"} 	c #BBBBBB",
"| 	c #B8B8B8",
"1 	c #B6B6B6",
"2 	c #B2B2B2",
"3 	c #AFAFAF",
"4 	c #ACACAC",
"5 	c #A9A9A9",
"6 	c #A6A6A6",
"7 	c #A3A3A3",
"8 	c #A0A0A0",
"9 	c #9E9E9E",
"0 	c #9B9B9B",
"a 	c #979797",
"b 	c #959595",
"c 	c #929292",
"d 	c #8F8F8F",
"e 	c #8C8C8C",
"f 	c #8A8A8A",
"g 	c #878787",
"h 	c #848484",
"i 	c #828282",
"j 	c #7E7E7E",
"k 	c #7C7C7C",
"l 	c #797979",
"m 	c #767676",
"n 	c #747474",
"o 	c #717171",
"p 	c #6D6D6D",
"q 	c #6B6B6B",
"r 	c #686868",
"s 	c #656565",
"t 	c #626262",
"u 	c #808080",
"v 	c #FDFDFD",
"w 	c #FAFAFA",
"x 	c #F9F9F9",
"y 	c #F7F7F7",
"z 	c #F4F4F4",
"A 	c #E8E8E8",
"B 	c #EAEAEA",
"C 	c #E0E0E0",
"D 	c #E2E2E2",
"E 	c #BEBEBE",
"F 	c #ADADAD",
"G 	c #ABABAB",
"H 	c #A4A4A4",
"I 	c #9A9A9A",
"J 	c #A8A8A8",
"K 	c #989898",
"L 	c #858585",
"M 	c #A5A5A5",
"N 	c #FCFCFC",
"O 	c #F2F2F2",
"P 	c #ECECEC",
"Q 	c #E9E9E9",
"R 	c #DEDEDE",
"S 	c #C3C3C3",
"T 	c #E1E1E1",
"U 	c #E6E6E6",
"V 	c #B4B4B4",
"W 	c #A7A7A7",
"X 	c #AAAAAA",
"Y 	c #AEAEAE",
"Z 	c #E7E7E7",
"` 	c #909090",
" .	c #7D7D7D",
"..	c #6A6A6A",
"+.	c #A2A2A2",
"@.	c #FBFBFB",
"#.	c #EEEEEE",
"$.	c #DDDDDD",
"%.	c #B7B7B7",
"&.	c #B3B3B3",
"*.	c #C5C5C5",
"=.	c #9D9D9D",
"-.	c #949494",
";.	c #777777",
">.	c #939393",
",.	c #737373",
"'.	c #7A7A7A",
").	c #757575",
"!.	c #7B7B7B",
"~.	c #9F9F9F",
"{.	c #F1F1F1",
"].	c #969696",
"^.	c #C0C0C0",
"/.	c #BDBDBD",
"(.	c #999999",
"_.	c #C2C2C2",
":.	c #B5B5B5",
"<.	c #727272",
"[.	c #787878",
"}.	c #F8F8F8",
"|.	c #EDEDED",
"1.	c #8B8B8B",
"2.	c #C4C4C4",
"3.	c #666666",
"4.	c #888888",
"5.	c #6F6F6F",
"6.	c #5E5E5E",
"7.	c #292929",
"8.	c #101010",
"9.	c #F6F6F6",
"0.	c #E5E5E5",
"a.	c #A1A1A1",
"b.	c #8E8E8E",
"c.	c #919191",
"d.	c #BABABA",
"e.	c #707070",
"f.	c #696969",
"g.	c #646464",
"h.	c #5C5C5C",
"i.	c #B9B9B9",
"j.	c #515151",
"k.	c #5A5A5A",
"l.	c #202020",
"m.	c #000000",
"n.	c #F5F5F5",
"o.	c #E4E4E4",
"p.	c #B1B1B1",
"q.	c #818181",
"r.	c #8D8D8D",
"s.	c #525252",
"t.	c #676767",
"u.	c #575757",
"v.	c #1F1F1F",
"w.	c #F3F3F3",
"x.	c #DFDFDF",
"y.	c #B0B0B0",
"z.	c #898989",
"A.	c #6C6C6C",
"B.	c #838383",
"C.	c #4F4F4F",
"D.	c #535353",
"E.	c #1D1D1D",
"F.	c #C1C1C1",
"G.	c #5D5D5D",
"H.	c #636363",
"I.	c #1C1C1C",
"J.	c #D9D9D9",
"K.	c #868686",
"L.	c #5F5F5F",
"M.	c #595959",
"N.	c #494949",
"O.	c #404040",
"P.	c #3C3C3C",
"Q.	c #393939",
"R.	c #3E3E3E",
"S.	c #4B4B4B",
"T.	c #1B1B1B",
"U.	c #EFEFEF",
"V.	c #5B5B5B",
"W.	c #4C4C4C",
"X.	c #424242",
"Y.	c #3A3A3A",
"Z.	c #343434",
"`.	c #2A2A2A",
" +	c #232323",
".+	c #121212",
"++	c #0D0D0D",
"@+	c #070707",
"#+	c #3D3D3D",
"$+	c #171717",
"%+	c #BFBFBF",
"&+	c #4E4E4E",
"*+	c #474747",
"=+	c #353535",
"-+	c #2F2F2F",
";+	c #252525",
">+	c #1E1E1E",
",+	c #161616",
"'+	c #0C0C0C",
")+	c #010101",
"!+	c #080808",
"~+	c #242424",
"{+	c #151515",
"]+	c #585858",
"^+	c #555555",
"/+	c #4A4A4A",
"(+	c #464646",
"_+	c #434343",
":+	c #3F3F3F",
"<+	c #363636",
"[+	c #313131",
"}+	c #2C2C2C",
"|+	c #282828",
"1+	c #262626",
"2+	c #222222",
"3+	c #141414",
"4+	c #6E6E6E",
"5+	c #616161",
"6+	c #454545",
"7+	c #414141",
"8+	c #606060",
"9+	c #484848",
"0+	c #565656",
"a+	c #4D4D4D",
"b+	c #373737",
"c+	c #131313",
"d+	c #7F7F7F",
"e+	c #323232",
"f+	c #111111",
"g+	c #444444",
"h+	c #3B3B3B",
"i+	c #2B2B2B",
"j+	c #0F0F0F",
"k+	c #505050",
"l+	c #0E0E0E",
"m+	c #2D2D2D",
"n+	c #383838",
"o+	c #333333",
"p+	c #303030",
"q+	c #212121",
"r+	c #0B0B0B",
"s+	c #0A0A0A",
"t+	c #090909",
"u+	c #2E2E2E",
"v+	c #272727",
"w+	c #181818",
"x+	c #1A1A1A",
"y+	c #060606",
"z+	c #050505",
"A+	c #040404",
"B+	c #030303",
"C+	c #020202",
"D+	c #191919",
"E+	c #545454",
". . . . . . . . . . . . . . . . . . . . . . . . . . . . . . . . . . . . . . . . . . . ",
". . . . . . . . . . . . . . . . . . . . . . . . . . . . . . . . . . . . . . . . . . . ",
". . . + @ @ # $ $ % % & * * = - - ; > > , ' ' ) ! ! ~ ~ { ] ] ^ / / ( _ : # . . . . . ",
". . . < [ } | 1 2 3 4 5 6 7 8 9 0 a b c d e f g h i j k l m n o p q r s t u $ . . . . ",
". . . v w x y z A B A C D C = > ! ~ = ~ E : ! | 3 F G E } H I G G J K L i p M . . . . ",
". . . N y O P O ) Q R S $ T _ / ] - U S H ( B V W X Y Z ' c 8 V a ` a  .j ..+.. . . . ",
". . . @.z #.- $.%.% &.} $ D 4 Y *.$ , =.-.S ! 2 0 7 V $ } ;.E >.,.'.'.).!.s ~.. . . . ",
". . . w {.#.# ^ $ M 9 { $ , M ].E : %.-.].^.6 /.` (.: _.:.<.: [ I c n ;.[.t 9 . . . . ",
". . . }.|.B U # B 1.G ; & 1 : H S c 3 -.-.[ ].[ -.L V 2.%.3.f 4.X > /.5.,.6.7.8.V . . ",
". . . 9.A 0.Z Q a., J ^ = &.2.0.| b.E b c.d.-.-.* _ e.! | f.(.i g.h.i.j.f.k.l.m.].y . ",
". . . n.U o.$.E M & 2 } > p.1 # q.8 S -.c.%.-.r., Y 5.~ 2 ,.6 b L 4.>.s.t.u.v.m.m.^ . ",
". . . w.D x.:.a *.| +.M } M G y.,.&.y.h ` 7 b.z.(.A.B.M 4.;.b.c c a C.t t.D.E.m.m.^ . ",
". . . O R & _.^.~ F.3 5 4 M Y Y 8 6 (.z.b.d L f 1.q.g '.e.e.).f.6.G.H.t.g.j.I.m.m.^ . ",
". N z O Z T J.= ) ( _.d.:.y.X 6 ~.(.>.1.K.i k [.<.A.t.L.M.D.C.N.O.P.Q.R.s.S.T.m.m.^ . ",
". v y 9.U.A C J.) : ^.%.3 J ~.(.` g q.;.e...H.V.s.W.X.Y.Z.`. +T..+++@+.+Z.#+$+m.m.^ . ",
". . N }.U.A x.J.! *.%+1 Y 6 =.a r.h j n A.3.L.u.&+*+R.=+-+;+>+,+'+@+)+!+~+Z.{+m.m.^ . ",
". . . _.3.6.V.]+^+D.j.&+W./+*+(+_+O.:+P.Y.Q.<+Z.[+-+}+`.|+1+~+2+v.E.T.E.|+[+3+m.m.^ . ",
". . . * K >.` r.f g h q.j k [.m ,.e.4+..r 3.H.5+G.V.u.^+s.C.W./+(+6+7+R.O.Q.{+m.m.^ . ",
". . . D | V y.F 5 H +.9 0 a >.c.r.4.K.q.j k l m o 5...t.g.8+G.k.^+D.&+S.9+P.{+m.m.^ . ",
". . . U _.^.} | V 3 Y F G W ~.(.-.` r.z.K.B.u k [.).e.A.f.g.5+G.M.0+s.a+/+Y.{+m.m.^ . ",
". . . 0.%+[ | :.p.&.d.F.%+%.W I b.1.f K.B.u k [.n o A.f.s 5+G.k.^+s.&+N.(+b+c+m.m.^ . ",
". . . < } i.:.p.[ E 5 c.f f d >.` i d+q.d+k l ).o 4+f.3.t 6.k.0+s.C.S.(+_+Z..+m.m.^ . ",
". . . D | 1 2 p.{ f 8+/+W.^+s ).f  .,.[.!.l m <.4+q 3.t L.k.u.D.C.W.9+_+O.e+f+m.m.^ . ",
". . . T :.2 1 / !.6+:+(+C.]+g.p !.j o s ,.n <.4+..r e.<.f.]+s.C.S.9+g+O.P.-+8.m.m.^ . ",
". . . x.y.Y 2.~.:+#+&+'.c z.m e.!.g [.0+8+A.p ..3.o d+).q ^+g+6+(+g+:+h+b+i+j+m.m.^ . ",
". . . R Y 4 | r Q.*+5.6 a.b u <.l e B.s.j.g...t.t.!.k 5.s k+Y.#+X.O.P.Q.=+7.l+m.m.^ . ",
". . . @ 5 5 4.g+X.j G 8 c K.)...6.K.z.a+Y.0+H.t g.).A.L.^+X.}+m+Y.P.n+o+p+;+++m.m.^ . ",
". . . $ M 6 d+*+/+b H >.K.l r G.9+n B.(+-+W.6.6.G.s L.s.9+o+E.~+Z.n+Z.-+}+q+r+m.m.^ . ",
". . . J.+.8 K.k+&+L K z.k 5.L.D.P.A.j #+}+9+V.V.0+u.s.(+h+;+,+ +e+=+[+}+7.v.s+m.m.^ . ",
". . . & 9 I ].5.0+f.!.[.4+5+&+:+=+e.p m+}+*+u.u.s.a+7+o+|+T.I.|+[+p+}+|+;+T.t+m.m.^ . ",
". . . * I a K d L.t H.t V.C.Y.u+7+o a+q+p+9+^+D.C.S.R.m+~+2+v+u+-+m+7.;+2+w+!+m.m.^ . ",
". . . - a -.e K.).q q H.0+S.(+&+t 6+}+2+Q.W.s.k+S.9+7+n+o+-+-+-+}+`.;+q+>+,+@+m.m.^ . ",
". . . > c ` z.u e.<.n '.'.;.q ]+_+>+E.-+(+&+C.S.*+g+:+h+b+o+p+}+|+;+l.E.x+.+y+m.m.^ . ",
". . . , d r.4.i f.t s s s G.N.Y.~+x+ +P.W.&+W.9+g+7+#+n+=+[+m+`.;+ +>+x+,+8.z+m.m.^ . ",
". . . ) 1.4.h u ).6.&+P.Z.m+ +v.~+o+R./+a+S.9+g+O.#+n+Z.[+m+7.;+q+>+x+{+.+'+A+m.m.^ . ",
". . . ! g B.u k [.e.r ]+S._+:+O.6+W.&+W.N.*+_+O.h+Q.o+p+m+|+;+q+E.x+{+8.l+!+B+m.m.^ . ",
". . . { B.q. .'.).e.q t V.^+k+C.C.C.&+/+*+g+7+#+Q.=+[+m+`.;+2+>+x+$+.+l+r+y+C+m.m.^ . ",
". . . _ ;.n e.p r H.8+h.M.^+j.&+S.*+g+O.#+h+n+Z.p+u+7.;+ +>+T.w+3+f+++t+@+B+m.m.X.R . ",
". . . R y.Y G X =+i+7.v+1+;+ +2+l.>+E.T.x+D+$+,+3+c+f+8.l+'+r+s+!+@+z+B+C+)+m.m.3 . . ",
". . . . . . . . b m.m.m.m.m.m.m.m.m.m.m.m.m.m.m.m.m.m.m.m.m.m.m.m.m.m.m.m.m.m.u.R . . ",
". . . . . . . . N ].m.m.m.m.m.m.m.m.m.m.m.m.m.m.m.m.m.m.m.m.m.m.m.m.m.m.m.m.E+R . . . ",
". . . . . . . . . y ^ ^ ^ ^ ^ ^ ^ ^ ^ ^ ^ ^ ^ ^ ^ ^ ^ ^ ^ ^ ^ ^ ^ ^ ^ ^ ^ ^ < . . . . ",
". . . . . . . . . . . . . . . . . . . . . . . . . . . . . . . . . . . . . . . . . . . "};
