/* XPM */
static char * xmms_icon17_xpm[] = {
"43 43 32 1",
" 	c #000000",
".	c #131314",
"+	c #232323",
"@	c #333333",
"#	c #2C2C2C",
"$	c #1C1C1C",
"%	c #0B0B0B",
"&	c #747474",
"*	c #A4A4A4",
"=	c #C4C4C4",
"-	c #CCCCCC",
";	c #D3D3D3",
">	c #BCBCBC",
",	c #B4B4B4",
"'	c #9C9C9C",
")	c #6B6B6B",
"!	c #DBDBDB",
"~	c #E3E3E3",
"{	c #646464",
"]	c #EBEBEB",
"^	c #ABABAB",
"/	c #949494",
"(	c #8C8C8C",
"_	c #7B7B7B",
":	c #838384",
"<	c #5B5B5B",
"[	c #535353",
"}	c #F5F5F5",
"|	c #FEFEFE",
"1	c #3B3B3B",
"2	c #4B4B4C",
"3	c #444444",
"              .+@@#####+$                  ",
"           %+&*=-;--==>,')@%               ",
"          $&=!~~~!;;--===>*&@              ",
"        %{>~]~~!;;--===>,,^^/{$            ",
"       $(;]~~~!;;-===>>,,^^**'&@           ",
"      $'~]~~;;;--===>,,^^**''//_@          ",
"     $/~~~!!;;-===>,,,^***''/(((&+         ",
"    %(~~~!;---===>,,^^^*''///((:_)+        ",
"    <;~~;;~]]]~=>,^^^**'/^;!!;,_&&[.       ",
"   +>~;;;-;}|||~,^^**''/'!|||]/&&){@       ",
"  %&;!;;-==;||||=^**'//(=|||}^&))){[$      ",
"  #>;;-===>=~|||],'///(^}|||=&)){{<[#      ",
"  )---==>>,,=}|||;'//(/!|||~:){{{<[[1%     ",
" .'-==>>>,,^^=||||=((:=|||}'){{<<[[23.     ",
" +>===>>,,^***~|||]':*}|||>){<<[[2223+     ",
" @>^&(/))(*()<:]|||-:~|||~)333[[233@#+     ",
" @>& $.  $[$   _|||}!|||]).   +221.  %%    ",
" @>< %2{+  +<3%.>|||||||( .1+% 11$ $$ %%   ",
" @^3 <**) .&(:+ )]|||||=$.2[2$ @@% +#$     ",
" #'$%_'/{ 1::_+ <^||||}{ +231. @@$  %.     ",
" #(.$///3 2:_)%.{,||||}{ #331 .@##+.  %    ",
" #) +/((+ {__[%$/]|||||=+131# .#+$+$. %    ",
" +2 3((&.%{&&3 3;|||||||*3@@$ ++  %% %     ",
" .@ <::)%+)&)1 '|||};|||}:@@$ $+$%  .      ",
"  3{_:_&<<)){[_]|||>{-|||~[+++$.....       ",
"  +&__&&)){{<)!|||!{1)]|||,#+$..%%         ",
"  %[&&))){<<<,|||}:11@/|||}_...%%          ",
"   +{)){<<<[/}|||,3@@+@>|||]2%%            ",
"    1{{<<<[)~|||![@#+++[~|||>$             ",
"    %3<<[2[>|||}_#@+++$$_}|||:             ",
"     .3222/||||^@+++$$$.$^|||]2            ",
"      .122/^^^*2+++$$.%% #///'{            ",
"       %@11@#@+++$$..%%%                   ",
"        %$#@++++$..%%%                     ",
"          %$+$$$...%                       ",
"             %...%                         ",
"               %                           ",
"                                           ",
"                                           ",
"                                           ",
"                                           ",
"                                           ",
"                                           "};
