/* XPM */
static char *xmms-liknockzr4[] = {
/* columns rows colors chars-per-pixel */
"43 43 222 2",
"   c #000000",
".  c #0F0000",
"X  c #0A0900",
"o  c #160000",
"O  c #100800",
"+  c #1C0000",
"@  c #151400",
"#  c #1C1700",
"$  c #1C1A00",
"%  c #240000",
"&  c #2C0300",
"*  c #2B0B00",
"=  c #251B00",
"-  c #2A1C00",
";  c #360000",
":  c #3E0000",
">  c #390E00",
",  c #252300",
"<  c #252A00",
"1  c #2B2300",
"2  c #2D2C00",
"3  c #362600",
"4  c #322D00",
"5  c #3A2000",
"6  c #353400",
"7  c #3A3600",
"8  c #3D3A00",
"9  c #430000",
"0  c #4D0100",
"q  c #540000",
"w  c #5A0000",
"e  c #433B00",
"r  c #4C3D00",
"t  c #523E00",
"y  c #6A0000",
"u  c #720000",
"i  c #464600",
"p  c #5F5A00",
"a  c #635800",
"s  c #765E00",
"d  c #696400",
"f  c #726D00",
"g  c #797500",
"h  c #7C7C00",
"j  c #800000",
"k  c #8C0000",
"l  c #940000",
"z  c #940900",
"x  c #9B0000",
"c  c #A40000",
"v  c #AC0100",
"b  c #AE0B00",
"n  c #A81B00",
"m  c #B30000",
"M  c #BC0000",
"N  c #BC0C00",
"B  c #B41400",
"V  c #B41B00",
"C  c #BB1600",
"Z  c #BD1B00",
"A  c #AF2700",
"S  c #B72700",
"D  c #B42D00",
"F  c #BA2B00",
"G  c #975300",
"H  c #8F7F00",
"J  c #9F6B00",
"K  c #937F00",
"L  c #9B7400",
"P  c #BD4300",
"I  c #BD4D00",
"U  c #A67500",
"Y  c #A47800",
"T  c #AE7200",
"R  c #AD7E00",
"E  c #B87800",
"W  c #C30000",
"Q  c #C40A00",
"!  c #CB0100",
"~  c #C71F00",
"^  c #D30000",
"/  c #D50A00",
"(  c #DC0000",
")  c #D21600",
"_  c #D71900",
"`  c #DD1300",
"'  c #DE1900",
"]  c #C22400",
"[  c #C92300",
"{  c #C73100",
"}  c #D72F00",
"|  c #DA2A00",
" . c #D33A00",
".. c #DF3000",
"X. c #E30000",
"o. c #E70F00",
"O. c #E90300",
"+. c #E21000",
"@. c #E71E00",
"#. c #EA1600",
"$. c #F10200",
"%. c #FC0000",
"&. c #E32100",
"*. c #E52C00",
"=. c #EC2300",
"-. c #EA2C00",
";. c #E53600",
":. c #E53D00",
">. c #EA3300",
",. c #EC3B00",
"<. c #FA2E00",
"1. c #F13F00",
"2. c #C54A00",
"3. c #C45400",
"4. c #C65F01",
"5. c #CD5900",
"6. c #D24500",
"7. c #D64C00",
"8. c #DD4C00",
"9. c #D25500",
"0. c #D75800",
"q. c #DA5500",
"w. c #DD5C00",
"e. c #C46501",
"r. c #CD6900",
"t. c #DF7600",
"y. c #DE7D00",
"u. c #E24700",
"i. c #E94B00",
"p. c #EB5C00",
"a. c #F44900",
"s. c #F35500",
"d. c #F35B00",
"f. c #FD5500",
"g. c #FE5B00",
"h. c #E26200",
"j. c #E46D00",
"k. c #E96A00",
"l. c #E47500",
"z. c #ED7100",
"x. c #F46300",
"c. c #FE6400",
"v. c #FE6D00",
"b. c #F27C00",
"n. c #FE7300",
"m. c #FE7B00",
"M. c #848400",
"N. c #898400",
"B. c #8C8900",
"V. c #938300",
"C. c #938B00",
"Z. c #9A8500",
"A. c #9C8900",
"S. c #9B9500",
"D. c #9E9C00",
"F. c #AC8D00",
"G. c #AA9100",
"H. c #BB9400",
"J. c #A1A000",
"K. c #AFAD00",
"L. c #BCA100",
"P. c #B7B400",
"I. c #BCB200",
"U. c #C89300",
"Y. c #CB9A00",
"T. c #D48200",
"R. c #CBA400",
"E. c #C0BF00",
"W. c #CEB300",
"Q. c #CABA00",
"!. c #D0A200",
"~. c #D4A900",
"^. c #D1B400",
"/. c #E48300",
"(. c #EB8200",
"). c #EC8900",
"_. c #EA9400",
"`. c #EE9A00",
"'. c #F18500",
"]. c #F38800",
"[. c #FE8300",
"{. c #FE8B00",
"}. c #F09D00",
"|. c #FE9400",
" X c #FE9B00",
".X c #E4A900",
"XX c #EFA400",
"oX c #ECAF00",
"OX c #E3B400",
"+X c #E0BD00",
"@X c #F6A501",
"#X c #F2AA00",
"$X c #FEA400",
"%X c #FEAB00",
"&X c #F3B500",
"*X c #F3BA00",
"=X c #FEB400",
"-X c #FEBB00",
";X c #C9C300",
":X c #C9C800",
">X c #D7C300",
",X c #D1CA00",
"<X c #D2D200",
"1X c #E0C700",
"2X c #E3CF00",
"3X c #EACC00",
"4X c #E2DC00",
"5X c #ECD400",
"6X c #F7C500",
"7X c #F2CC00",
"8X c #FEC400",
"9X c #FECC00",
"0X c #F2D300",
"qX c #FED400",
"wX c #FEDC00",
"eX c #ECE200",
"rX c #ECEA00",
"tX c #F2E700",
"yX c #FEE300",
"uX c #FEEB00",
"iX c #FEF400",
"pX c #FEFD00",
/* pixels */
"v.v.v.v.v.v.v.v.v.v.v.v.n.n.m.m.m.m.{.{.{.[.{.{.[.[.[.m.m.v.c.s.C ~ c.v.v.v.v.v.v.v.v.",
"v.v.v.v.v.v.v.v.v.n.n.n.m.m.[.{.|.|.|.|. X X X X X|.{.{.m.v.c.Z c m g.c.v.v.v.v.v.v.v.",
"v.v.v.v.v.v.v.v.v.n.m.m.{.{.|. X$X$X$X%X%X%X%X%X$X$X X{.n.m.7.c v M ,.c.c.v.v.v.v.v.v.",
"v.v.v.v.v.v.v.n.m.m.{.{.|. X$X%X%X%X=X=X-X=X=X=X=X=X$X|.{.(.V v M W *.v.v.v.v.v.v.v.v.",
"v.v.v.v.v.v.n.m.m.{.|. X$X%X=X=X-X8X8X9X9X9X9X9X9X-X%X|.$X5.c m W ! ' v.n.n.v.v.v.v.v.",
"v.v.v.v.v.n.m.m.{.|. X$X%X=X8X8X9XqXqXwXqXwXwXwXqX8X%X%X`.b m W W ^ >.m.m.n.n.v.v.v.v.",
"v.v.v.v.n.m.m.{.|. X%X%X=X8X9XqXwXyXyXyXuXuXuXyXwX8X=X6X2.v M W ^ ` n.[.m.m.m.n.v.v.v.",
"v.v.v.v.m.[.{.|. X$X%X%X-X9XqXwXyXuXiXiXiXiXiXuXwX8XqX.Xv M W ! ^ x.{.|.|.{.m.m.v.v.v.",
"v.v.n.n.m.{.|. X$X$X$X0.V _.qXyXuXiXpXpXpXpXpXuXqX9XwXS m W W ^ :.|. X$X$X|.[.m.n.v.v.",
"v.v.n.m.[.|. X$X X$X].m m m /.uXuXpXpXpXpXpXiXyX9XyXT.v M W ^ ( |.%X%X%X$X X|.[.m.n.v.",
"v.n.n.m.{. X$X$X$X%X).M Q M N #XuXpXpXpXpXiXuX9X9X0Xb M W ! ( x.%X-X8X=X=X%X X{.m.m.v.",
"v.n.m.{.|.$X%X%X$X=Xh.W ! W W [ &XuXiXiXuXuXwX-XuX3.v M W ^ &.#XqX9XqX9X-X%X X|.[.m.n.",
"v.m.m.|. X%X=X=X%X9Xk.^ ^ ! ! W  .8XyXyXyXqX-X9X.Xb m W ! ^ b.qXqXwXwXqX9X=X$X X{.m.m.",
"n.m.[.|.$X%X-X=X%XqXqX>.( ( ^ ^ W q.9X9X9X=X%X9XD v M W ^ u.8XqXuXuXuXwX9X-X%X$X|.{.m.",
"n.m.|. X%X=X8X9X8X-XpX%X#.X.( ^ ! M w.-X%X X8Xr.c m W W / ].qXwXiXiXuXyXqX8X=X%X|.{.m.",
"n.m.|. X%X-X9XqXqX8XwXpX].O.X.( ^ W N l. X$X`.n c m W ! u.9X9XiXpXpXiXuXwX9X-X%X X|.m.",
"m.[.|.$X%X8XqXwXwXqX8XuXiXd.O.X.^ ! M B (.=XF z m M W _ @X-XwXiXpXpXpXuXyXqX8X%X$X|.[.",
"m.{.|.$X=X8XqXyXuXyXqX8XuXwX1.X.( ! W c F 5.z x m W ! p.=X8XyXpXpXpXiXiXwXqX8X=X$X|.[.",
"m.{. X$X-XqXyXiXpXpXiXwXqXuX8X=.( ^ ! m c k l v M ! &.$X%X9XuXiXpXpXpXpXiXwX8X=X$X|.{.",
"m.{. X%XoX~.^.Q.;X,X,XW.U.R.+X|.o.^ v l j y u k x c I T.&XwXwXpXrX<X:X;X>X0XqX=X%X X{.",
"[.{. X=XR # # 8 8 , @ 2 r = r !.v.! ; . + % o . o > 5 - L 7XuXtXB.< 8 7 1 A.6X-X%X X{.",
"m.{.|.-XY   # I.,X<   d 5Xs O r @Xi.%   9 j :   + 4.4.= = G.pXS., 2 :XP., 4 H.8X$X|.{.",
"[.{.`.=XY X , eXpX8   M.pXZ.  = #X].*   w c q   % [.].1   V.pXf   i pXpX2XL.OX-X%X X{.",
"m.{.|.=XY   = 5XiX6   M.pXZ.  - &X|.*   q x 0   % | '.-   A.pX4Xg X 2 6 a 1XwX%X$X X[.",
"m.{.|.=XU   = 5XiX6   M.pXC.  - *Xz.%   q x 0   % ! ..1   A.pXpXrXD.B.g X e R.-X$X|.[.",
"m.[.|.%XU   , 5XiX7   M.pXC.  - *X) %   q x 0   % ! ^ *   A.pXP.M.J.pXrX1   Y -X X|.[.",
"n.[.{.%XJ   # 3XuX2   h pXV.  < w.! +   0 c 0   + ! ^ +   V.pXK.6 @ S.N.@ 7 U.%X X{.[.",
"n.[.].$XE 3 t 7XuXp 2 S.pXF.4 t ! W 9 % q 9.G o 9 ! ^ 0 & T iXpXE.7 , , e !.-X$X X{.m.",
"n.m.{.|.%X-X9XqXwXpXpXpXwX9XpXs.^ W ! v A `.%X .W ! ^ $.%.<.8XuXiXpXpXuXyX8X%X X|.[.m.",
"v.n.[.{. X@X&X9XwXwXyXwX8XuX`./ ! W v c T.uXqX*X] W ^ ^ ( O.a.qXtXyXwX0X-X=X%X X{.[.m.",
"v.n.m.{.|.$X=X-X9XwXwX9X8XwX;.^ ! M v I yXqXyXuX#XQ ! ( ( X.X.x.qXwXwX9X-X=X$X|.{.m.n.",
"v.n.n.[.|. X$X=X-X9X8X=XyXb.( ^ ! M B oX9X8X8XyXpX_.W ! ^ ( ( +.%XwX9X-X=X@X X{.[.n.v.",
"v.v.n.m.{.|. X%X=X=X%X-X&X@.( ! W M 5.qX9XyXqX9XyXiXl.W ! ^ ^ `  X9X-X-X%X X|.[.m.n.v.",
"v.v.n.n.m.{.|.@X$X@X X-Xs.X.( ! M C 6X9XuXuXuX9X9XuXyXq.W Q W 8.%X-X=X%X X|.{.m.n.v.v.",
"v.v.v.n.n.[.{.|.|.{.$X{.X.( ! ! M y.8XqXuXiXuXyX8X8XyXwXl.[ q. X%X%X%X$X|.{.[.n.n.v.v.",
"v.v.v.v.n.m.[.[.[.[.|.,.( ( ! W { -X8XqXyXuXuXwXqX-X=X8X-X=X$X X$X$X X|.{.[.m.n.v.v.v.",
"v.v.v.v.v.n.n.m.n.[.n.X.( ! ! M ).%X8XqXwXwXwXqX9X8X=X$X X X X$X$X X|.{.[.m.n.v.v.v.v.",
"v.v.v.v.v.v.n.v.v.n.*.( ! ! M 6.|.$X-X8X9X9X9X9X9X-X-X%X$X$X X X|.|.{.m.n.n.v.v.v.v.v.",
"v.v.v.v.v.v.v.c.g.v.+.! ! M N b.|.$X=X-X-X-X-X-X=X=X%X%X$X X X|.{.[.m.m.n.v.v.v.v.v.v.",
"v.v.v.v.v.v.c.g.g.v.;.W W m 8.m.[. X$X$X%X%X%X%X%X$X$X X|.|.{.{.[.m.n.n.v.v.v.v.v.v.v.",
"v.v.v.v.v.v.c.c.f.c.s.M m Z x.n.[.|.|. X X X X X X|.|.|.{.[.[.m.n.n.v.v.v.v.v.v.v.v.v.",
"v.v.v.v.v.v.v.c.g.g.c.} [ s.c.n.m.[.{.{.{.{.{.{.{.{.[.[.[.m.n.n.n.v.v.v.v.v.v.v.v.v.v.",
"v.v.v.v.v.v.v.c.g.f.f.g.f.g.c.v.n.m.m.m.m.m.[.m.m.m.n.n.n.n.v.v.v.v.v.v.v.v.v.v.v.v.v."
};
