/* XPM */
static char * xmms_icon2_xpm[] = {
"43 43 186 2",
"  	c None",
". 	c #000000",
"+ 	c #050001",
"@ 	c #0B0B0B",
"# 	c #040404",
"$ 	c #232323",
"% 	c #2B2B2B",
"& 	c #1B1B1B",
"* 	c #171717",
"= 	c #4F4F4F",
"- 	c #0C0C0C",
"; 	c #131313",
"> 	c #0E0E0E",
", 	c #050505",
"' 	c #494949",
") 	c #454545",
"! 	c #151515",
"~ 	c #383838",
"{ 	c #121212",
"] 	c #2F2F2F",
"^ 	c #696969",
"/ 	c #1D1D1D",
"( 	c #010101",
"_ 	c #3F3F3F",
": 	c #525252",
"< 	c #0F0F0F",
"[ 	c #202020",
"} 	c #5E5E5E",
"| 	c #595959",
"1 	c #656565",
"2 	c #4D4D4D",
"3 	c #747474",
"4 	c #393939",
"5 	c #060606",
"6 	c #535353",
"7 	c #575757",
"8 	c #111111",
"9 	c #343434",
"0 	c #707070",
"a 	c #676767",
"b 	c #313131",
"c 	c #6D6D6D",
"d 	c #030303",
"e 	c #222222",
"f 	c #606060",
"g 	c #757575",
"h 	c #0A0A0A",
"i 	c #727272",
"j 	c #515151",
"k 	c #3D3D3D",
"l 	c #717171",
"m 	c #505050",
"n 	c #181818",
"o 	c #5F5F5F",
"p 	c #6F6F6F",
"q 	c #6A6A6A",
"r 	c #474747",
"s 	c #020202",
"t 	c #141414",
"u 	c #080808",
"v 	c #5A5A5A",
"w 	c #7B7B7B",
"x 	c #212121",
"y 	c #616161",
"z 	c #484848",
"A 	c #777777",
"B 	c #9C9C9C",
"C 	c #5D5D5D",
"D 	c #1C1C1C",
"E 	c #090909",
"F 	c #252525",
"G 	c #7E7E7E",
"H 	c #333333",
"I 	c #666666",
"J 	c #737373",
"K 	c #A4A4A4",
"L 	c #AAAAAA",
"M 	c #2D2D2D",
"N 	c #888888",
"O 	c #282828",
"P 	c #BABABA",
"Q 	c #BBBBBB",
"R 	c #363636",
"S 	c #767676",
"T 	c #8E8E8E",
"U 	c #8B8B8B",
"V 	c #878787",
"W 	c #D4D4D4",
"X 	c #ABABAB",
"Y 	c #161616",
"Z 	c #444444",
"` 	c #898989",
" .	c #A8A8A8",
"..	c #8F8F8F",
"+.	c #C9C9C9",
"@.	c #D8D8D8",
"#.	c #6C6C6C",
"$.	c #797979",
"%.	c #7C7C7C",
"&.	c #B8B8B8",
"*.	c #D5D5D5",
"=.	c #585858",
"-.	c #424242",
";.	c #4C4C4C",
">.	c #CACACA",
",.	c #999999",
"'.	c #D3D3D3",
").	c #868686",
"!.	c #858585",
"~.	c #C2C2C2",
"{.	c #9F9F9F",
"].	c #D2D2D2",
"^.	c #D6D6D6",
"/.	c #B0B0B0",
"(.	c #3E3E3E",
"_.	c #686868",
":.	c #CBCBCB",
"<.	c #191919",
"[.	c #B2B2B2",
"}.	c #B1B1B1",
"|.	c #242424",
"1.	c #A3A3A3",
"2.	c #373737",
"3.	c #929292",
"4.	c #CFCFCF",
"5.	c #C7C7C7",
"6.	c #D7D7D7",
"7.	c #292929",
"8.	c #919191",
"9.	c #7D7D7D",
"0.	c #C0C0C0",
"a.	c #414141",
"b.	c #6E6E6E",
"c.	c #A5A5A5",
"d.	c #CCCCCC",
"e.	c #BFBFBF",
"f.	c #3A3A3A",
"g.	c #9E9E9E",
"h.	c #C1C1C1",
"i.	c #818181",
"j.	c #ACACAC",
"k.	c #A1A1A1",
"l.	c #B4B4B4",
"m.	c #969696",
"n.	c #C5C5C5",
"o.	c #555555",
"p.	c #787878",
"q.	c #4A4A4A",
"r.	c #989898",
"s.	c #101010",
"t.	c #565656",
"u.	c #070707",
"v.	c #7F7F7F",
"w.	c #8A8A8A",
"x.	c #CDCDCD",
"y.	c #A2A2A2",
"z.	c #9A9A9A",
"A.	c #1A1A1A",
"B.	c #949494",
"C.	c #A0A0A0",
"D.	c #828282",
"E.	c #AFAFAF",
"F.	c #626262",
"G.	c #1F1F1F",
"H.	c #262626",
"I.	c #9B9B9B",
"J.	c #646464",
"K.	c #8D8D8D",
"L.	c #C4C4C4",
"M.	c #B3B3B3",
"N.	c #0D0D0D",
"O.	c #B6B6B6",
"P.	c #464646",
"Q.	c #4E4E4E",
"R.	c #848484",
"S.	c #404040",
"T.	c #2E2E2E",
"U.	c #272727",
"V.	c #7A7A7A",
"W.	c #636363",
"X.	c #1E1E1E",
"Y.	c #3C3C3C",
"Z.	c #6B6B6B",
"`.	c #5B5B5B",
" +	c #2C2C2C",
".+	c #323232",
". . . . . . . . . . . . . . . . . . . . . . . . . . . . . . . . . . . . . . . . . . + ",
". . . . . . . . . . . . . . . . . . . . . . . . . . . . . . . . . . . . . . . . . . . ",
". . . . . . . . . . . . . . . . . . . . . . . . . @ . . . . . . . . . . . . . . . . . ",
". . . . . . . . . . . . . . . . . . . . . . . . # $ . . . . . . . . . . . . . . . . . ",
". . . . . . . . . . . . . . . . . . . . . . . . % & . . . . . . . . . . . . . . . . . ",
". . . . . . . . . . . . . . . . . . . . . . . * = - . . . . . . . . . . . . . . . . . ",
". . . . ; > . . . . . . . . . . . . . . . . , ' ) , . . . . . . . . . . . . . . . . . ",
". . . . ! ~ { . . . . . . . . . . . . . . . ] ^ / ( . . . . . . . . . . . . . . . . . ",
". . . . ( _ : < . . . . . . . . . . . . . [ } | < . . . . . . . . . . . . . . . . . . ",
". . . . . $ 1 | < . . . . . . . . . . . > 2 3 4 5 . . . . . . . . . . . . . . . . . . ",
". . . . . 5 6 3 7 8 . . . . . . . . . , 9 0 a & . . . . . . . . . . . . . . . . . . . ",
". . . . . . b c 3 : ! . . . . . . . d e f g 2 < . . . . . . . . . . . . . . . . . . . ",
". . . . . . h } g i j * . . . . . . 8 6 g i 9 # . . . . . . . . . . . . . . . . . . . ",
". . . . . . . k i g l m n . . . . # k l g o / . . . . . . . . . . . . . . . . . . . . ",
". . . . . . . ! p g g 0 m * . . . [ q g g r h . . . . . . . . . . . . . . . . . . . . ",
". . . . . . . s 6 g g g l j t . u v w g c b ( . . . . . 5 h . . . . . . . . . . . / t ",
". . . . . . . . x g g g g i y / z A B g C D . . . . . E b F . . . . . . . . h 4 G H , ",
". . . . . . . . , I g g A A g J g K L 3 ) ( ( , ( . ( M N O . . . . s @ e i P Q r , . ",
". . . . . . . . s R g S T U g g V W X a % . Y Z < . { `  .O . . . . / ..+.@.X H . . . ",
". . . . . . . . . * #.w  .K $.%.&.*.L =.8 . -.N x s ;.>. .O . . . . * ,.'.@.).{ . . . ",
". . . . . . . . . E ;.!.Q ~.` {.].^./.(.. . _.:.v <.[.@.}.4 . . . . ( |.1.@./.2.. . . ",
". . . . . . . . . E ' 3.4.*.}.5.6.@.P 7.. { 8.@.}.9.@.@.0.j . . . . . 5 a.X ].q @ . . ",
". . . . . . . . . ! b.c.d.d.*.6.0.6.e.f.. f.g.P ].4.P h.0.j . . . . . . u 6 h.c.O . . ",
". . . . . . . . s H i.j.k.l.@.l.m.6.n.o.@ | p.o ~.n.q.r.0.j . . . . . . . s.1 P t.u.. ",
". . . . . . . . # y ` /.v.r.P w.$.x.n.q (.^ ' - y.1 @ f 0.j . . . . . . . u.= P z.A.. ",
". . . . . . . . A.A B.C.g D.).A g E.n.3 3 F.G.. a.- . ] /.j . . . . . ( ! b.h.'.0.H.. ",
". . . . . . . ( = w I.i.g 3 J.H.t.K.L.g N : . . . . . <.$.j . . . . > Z M.5.L o.N.. . ",
". . . . . . . 8 p %.z.g 3 f e s A.q O.$.` 2 # . . . . u P.Q.. . # x l }.R.S.E . . . . ",
". . . . . . . 4 i D.).J } |.d . . |.8.R.` t.Y . . . . . F (.. t b g #.O . . . . . . . ",
". . . . . . u C S 8.J } F d . . . , q.` ` c % s . . . . D 4 A.T.S.[ ( . . . . . . . . ",
". . . . . . U.q S i.o F d . . . . . - j V.g r - . . . . @ D D - . . . . . . . . . . . ",
". . . . . , 2 J g W.e d . . . . . . ( s.) 0 J.A.. . . . . . . . . . . . . . . . . . . ",
". . . . . A.f g _.X.s . . . . . . . . ( n t.J R , . . . . . . . . . . . . . . . . . . ",
". . . . . Y.p Z./ ( . . . . . . . . . . s D `.C < . . . . . . . . . . . . . . . . . . ",
". . . . > : a / ( . . . . . . . . . . . . ( T.I x ( . . . . . . . . . . . . . . . . . ",
". . . (  +t.G.s . . . . . . . . . . . . . . . ] Z 5 . . . . . . . . . . . . . . . . . ",
". . . u .+$ s . . . . . . . . . . . . . . . . 5 f.< . . . . . . . . . . . . . . . . . ",
". . . > t d . . . . . . . . . . . . . . . . . . 5 G.. . . . . . . . . . . . . . . . . ",
". . . , 5 . . . . . . . . . . . . . . . . . . . . - . . . . . . . . . . . . . . . . . ",
". . . . . . . . . . . . . . . . . . . . . . . . . . . . . . . . . . . . . . . . . . . ",
". . . . . . . . . . . . . . . . . . . . . . . . . . . . . . . . . . . . . . . . . . . ",
". . . . . . . . . . . . . . . . . . . . . . . . . . . . . . . . . . . . . . . . . . . ",
". . . . . . . . . . . . . . . . . . . . . . . . . . . . . . . . . . . . . . . . . . . "};
