/* XPM */
static char * xmms_icon33_xpm[] = {
"43 43 216 2",
"  	c #03080D",
". 	c #081624",
"+ 	c #0F1822",
"@ 	c #06111D",
"# 	c #000000",
"$ 	c #030B13",
"% 	c #061322",
"& 	c #122D4C",
"* 	c #3885D8",
"= 	c #4098F6",
"- 	c #3C94F3",
"; 	c #3B91EE",
"> 	c #3076C1",
", 	c #050F1A",
"' 	c #245D9C",
") 	c #358BEB",
"! 	c #3489E6",
"~ 	c #3186E4",
"{ 	c #2A75C9",
"] 	c #123254",
"^ 	c #214771",
"/ 	c #409AFA",
"( 	c #3F98F7",
"_ 	c #3E97F8",
": 	c #235994",
"< 	c #02060A",
"[ 	c #1A416C",
"} 	c #388EED",
"| 	c #2E80DD",
"1 	c #15385F",
"2 	c #12355C",
"3 	c #0C223A",
"4 	c #327ED2",
"5 	c #3073BB",
"6 	c #3F98F9",
"7 	c #378EF0",
"8 	c #2A6CB4",
"9 	c #2E83E2",
"0 	c #215FA3",
"a 	c #3384DD",
"b 	c #398BE4",
"c 	c #3481D5",
"d 	c #19477A",
"e 	c #1D518C",
"f 	c #296EBB",
"g 	c #1C497C",
"h 	c #2B73C3",
"i 	c #2C71BC",
"j 	c #2561A3",
"k 	c #0C294B",
"l 	c #2D79CD",
"m 	c #2863A3",
"n 	c #21548D",
"o 	c #2C7BD4",
"p 	c #103662",
"q 	c #285E9C",
"r 	c #1F4977",
"s 	c #225790",
"t 	c #2768AF",
"u 	c #183E68",
"v 	c #194474",
"w 	c #256BBA",
"x 	c #08192B",
"y 	c #102A47",
"z 	c #266AB5",
"A 	c #2673CA",
"B 	c #2B68AB",
"C 	c #2671C4",
"D 	c #17416F",
"E 	c #2364AC",
"F 	c #07172A",
"G 	c #297FE0",
"H 	c #0A1D33",
"I 	c #277AD9",
"J 	c #2877D0",
"K 	c #1A4E89",
"L 	c #2B7EDC",
"M 	c #1F62AE",
"N 	c #1E5897",
"O 	c #2678D6",
"P 	c #1C5493",
"Q 	c #164984",
"R 	c #1E5CA3",
"S 	c #154173",
"T 	c #2A67AB",
"U 	c #2266B3",
"V 	c #133F71",
"W 	c #143D6C",
"X 	c #244E7E",
"Y 	c #164C8B",
"Z 	c #061F3C",
"` 	c #1C589B",
" .	c #143A63",
"..	c #223E5C",
"+.	c #22354A",
"@.	c #151C23",
"#.	c #14467E",
"$.	c #1B579C",
"%.	c #102134",
"&.	c #1D2F43",
"*.	c #2C4057",
"=.	c #374B62",
"-.	c #43566A",
";.	c #465B72",
">.	c #435365",
",.	c #3C3C3C",
"'.	c #2C2C2C",
").	c #232E3B",
"!.	c #244263",
"~.	c #255386",
"{.	c #0D335D",
"].	c #16293E",
"^.	c #374758",
"/.	c #4D6279",
"(.	c #566A81",
"_.	c #596E85",
":.	c #5B6B7D",
"<.	c #55585D",
"[.	c #4C4C4C",
"}.	c #454D57",
"|.	c #3D5167",
"1.	c #0E3A6D",
"2.	c #0E2947",
"3.	c #1A2F48",
"4.	c #2D3B4A",
"5.	c #38434F",
"6.	c #54687F",
"7.	c #5D728A",
"8.	c #657A91",
"9.	c #687788",
"0.	c #676A6F",
"a.	c #605F5F",
"b.	c #59626C",
"c.	c #2B435C",
"d.	c #1A4B83",
"e.	c #0C2643",
"f.	c #1A314B",
"g.	c #2A3D52",
"h.	c #3A4A5C",
"i.	c #546375",
"j.	c #6B7E94",
"k.	c #6B8097",
"l.	c #73777B",
"m.	c #70706F",
"n.	c #66707C",
"o.	c #1C3C61",
"p.	c #495869",
"q.	c #525D69",
"r.	c #6D829A",
"s.	c #73889F",
"t.	c #758597",
"u.	c #7A7E83",
"v.	c #7B7B7B",
"w.	c #757C83",
"x.	c #768BA3",
"y.	c #667483",
"z.	c #74879C",
"A.	c #7A8A9C",
"B.	c #7B8085",
"C.	c #848484",
"D.	c #7E848B",
"E.	c #7E93AB",
"F.	c #0C0C0C",
"G.	c #5A5A5B",
"H.	c #646464",
"I.	c #6C6C6C",
"J.	c #6A7684",
"K.	c #7A8EA6",
"L.	c #818890",
"M.	c #8599B1",
"N.	c #46515D",
"O.	c #1C1C1C",
"P.	c #236DC1",
"Q.	c #131313",
"R.	c #333333",
"S.	c #565656",
"T.	c #6B7075",
"U.	c #8296AD",
"V.	c #737373",
"W.	c #899DB4",
"X.	c #56616E",
"Y.	c #242423",
"Z.	c #1A3B5F",
"`.	c #0C2D53",
" +	c #424242",
".+	c #5F6060",
"++	c #767879",
"@+	c #94A8BF",
"#+	c #6B727A",
"$+	c #8EA2BA",
"%+	c #8BA0B7",
"&+	c #222C37",
"*+	c #92A6BD",
"=+	c #676E76",
"-+	c #31302F",
";+	c #1E64B4",
">+	c #8C8C8C",
",+	c #706F6F",
"'+	c #102F51",
")+	c #959595",
"!+	c #8B939B",
"~+	c #444E5A",
"{+	c #979EA7",
"]+	c #8498AF",
"^+	c #2375D1",
"/+	c #9D9D9D",
"(+	c #A5A5A5",
"_+	c #ADADAD",
":+	c #63768C",
"<+	c #3F566E",
"[+	c #1E2833",
"}+	c #144680",
"|+	c #B3B3B3",
"1+	c #91979D",
"2+	c #082648",
"3+	c #081729",
"  . . . . . + . @ # # # # # # # # # # $ % % % . @ . .   # # # # # # # # # # # # # # # ",
"& * = = = - - ; > @ # # # # # # # # , ' ) ) ) ! ! ~ { ] # # # # # # # # # # # # # # # ",
"  ^ - / ( ( ( _ - :   # # # # # # < [ ~ } ) ) ) ) | 1 # # # # # # # # # # # # # # # # ",
"# $ : / ( _ - _ - * 2 # # # # # # 3 4 } ) ) ) ) ~ [ < # # # # # # # # # # # # # # # # ",
"# # + 5 6 _ - - - 7 8 . # # # # % 8 ) ) ) ) ) 9 0 $ # # # # # # # # # # # # # # # # # ",
"# # # ] a _ ; ! b a c d < # # # e ) ) ) ) 9 ) f 3 # # # # # # # # # # # # # # # # # # ",
"# # # < g a ! c > h i j 3 # # k l ! ) ) 9 ~ l ] # # # # # # # # # # # # # # # # # # # ",
"# # # # @ ' 4 i m : e n 1 $ . ' o ~ ~ ) 9 | p # # # < # # # < # # # # # # # # # # # # ",
"# # # # # 3 m j ' q : : : r s t h | ~ 9 9 e , # # ] u u u [ v e . # # # # # # # # # # ",
"# # # # # # k g > = = = - - - 4 f o | ~ w 3 # # x 4 ! ~ ! ~ ~ ! 3 # # # # # # # # # # ",
"# # # # # # # y 8 _ = = _ _ _ b z f o A & # # # n ! ! ) ~ ) ) ) 3 # # # # # # # # # # ",
"# # # # # # # < B _ _ _ _ - - - { w C D # # # , { ) ! ) ~ ) ~ 9 3 # # # # # # # # # # ",
"# # # # # # # < m - - - - 7 - 7 ~ E d $ # # # v 9 ) ) ~ ~ ~ 9 9 3 # # # # # # # # # # ",
"# # # # # # # < q ; - - 7 - 7 } ! m F # # # , t ) ~ 9 ~ 9 9 G G H # # # # # # # # # # ",
"# # # # # # # # q ; 7 - 7 7 ! ~ a f k # # # 2 o 9 ~ 9 9 | I J A H # # # # # # # # # # ",
"# # # # # # # < j ; 7 7 7 ! a l f t D @ #   K o L 9 G L o C z M F # # # # # # # # # # ",
"# # # # # # # % E } } } ) l f f ' e [ H   H N A o o w O C M P Q . < < < < < # # # # # ",
"# # # # # # $ ] t ) } ! ) i N N N h 5 8 B 5 i w C M R A z P S 0 8 E T 8 i u # # # # # ",
"# # # # # < p D E ~ ! ~ | z 2 v : = / / / / ; 8 U k P w R V d c - } } } ) g # # # # # ",
"# # # # # ] P W : f U m ' g 3 k X b = / / ( ( { e @ Y M Y p j } } } } ) ! d # # # # # ",
"# # # # Z ` P ]  .v ......+.@.+ & B c b ( ( - ! 2 $ #.$.W D l } ! ! ! ~ ~ d # # # # # ",
"# # # % e 0  .%.&.*.=.-.;.>.,.'.).!.~.5 * b - - d $ V Q {.K a | o o o o A D # # # # # ",
"# # $ W R D ].).^.;./.(._.:.<.[.}.|.*.r B * ) ; l . {.1.p t l f 8 z t U t 2 # # # # # ",
"# # 2.M S 3.4.5.>.6.7.8.8.9.0.a.b.:.;.c.[ B c ! ) 1 k k W z E N e K d d.d e.# # # # # ",
"# . R K f.g.h.>.i.7.8.j.k.k.l.m.n.j.7./.c.o.m c ~ z 3 e.#.e d 2 r m 8 8 8 s ] . # # # ",
"% P E 1 g.=.p.q.:.8.k.r.s.t.u.v.w.x.r.7.;.&.^ { a l  .k d.D s 4 ; - - - - ; ! a l x # ",
"#.0 v f.h.p.b.b.y.j.z.s.x.A.B.C.D.E.E.k.7.4.f.m l A P  .[ m ; / / = _ ; ; _ - - - H # ",
"#   F.'.[.G.H.I.J.j.z.K.K.A.u.v.L.M.E.E.k.N.O.X i C R D e - ( ( - ~ f P.h > c } - H # ",
"# F.Q.R.S.H.m.T.J.r.E.M.U.A.B.V.D.W.W.M.x.X.Y.Z.t w N d.> ( ( - { K K P e `.e.' a H # ",
"# Q.O. +.+T.V.++y.z.M.@+U.A.B.m.#+W.$+%+E.n.'.&+q U $.Y c - - - t u W #.Q e.# @ 1 , # ",
"# Q.O.[.I.V.C.v.y.r.E.M.K.t.B.I.n.W.*+$+M.J.R.Y.X t $.e l - - 7 a U P Q S Z # # # # # ",
"# Q.O.[.H.v.C.C.=+w.D.D.D.D.++H.=+%+@+$+E.=+-+Y.f.t ;+P f - 7 7 } - ~ o h 0 W % # # # ",
"< F.Q. +H.v.C.>+,+,+v.v.C.v.,+a.w.*+*+W.x.b.'.'.Y.H F % ] 4 } } ) ) ) ) ) ~ G w '+< # ",
"# Q.F.-+G.V.C.)+C.I.T.V.m.,+H.I.!+*+$+E.j.~+Y.'.Y.F.# # # ] f a ~ ) ~ ~ ~ ~ 9 ~ A x # ",
"# F.F.O.[.I.C.>+)+>+,+I.I.I.v.)+{+$+]+z.7.4.Y.-+Y.F.# # # # $ y M ^+L L 9 9 9 9 9 R $ ",
"# # F.Q.-+G.V.>+/+/+/+/+/+(+_+(+{+]+x.:+<+[+'.'.O.< # # < # # # 1.Y }+Q R o L G L P., ",
"# # F.F.Q.,.H.v.>+/+(+_+|+|+_+(+1+A.J.p.+.'.-+Y.F.# # @ u . # # 2+{.`.Z Z P G L O P., ",
"# # # F.F.O.,.H.v.>+/+_+_+_+(+)+C.,+[.'.O.'.'.O.F.# # x A w p H , # # # Z R G I I M , ",
"# # # # F.F.Q.R.S.,+C.>+)+)+C.v.G. +Y.O.-+'.O.F.# # # 3+h 9 9 w P V W V U O O O ^+p < ",
"# # # # # F.F.Q.Y.R.[.H.,+H.S.,.'.Y.Y.R.'.O.Q.< # # # x A 9 L G G 9 G G I O O ^+V   # ",
"# # # # # # F.F.Q.O.O.Y.Y.Y.Y.'.'.'.'.Y.O.F.< # # # # < 2 U O L I I O O O ^+;+p $ # # ",
"# # # # # # # F.F.Q.O.O.Y.Y.'.'.'.Y.O.Q.Q.# # # # # # # < % 3+] Y $.$.R V F . < # # # ",
"# # # # # # # # # < F.Q.O.O.O.O.O.Q.F.< # # # # # # # # # # # # $ , $ $   # # # # # # "};
