/* XPM */
static char *xmms-tony1[] = {
/* columns rows colors chars-per-pixel */
"43 43 256 2",
"   c #000001",
".  c #04050A",
"X  c #06080E",
"o  c #08060F",
"O  c #080A0E",
"+  c #070710",
"@  c #060B12",
"#  c #090711",
"$  c #0A0C14",
"%  c #0D0D1A",
"&  c #0E1116",
"*  c #0D121B",
"=  c #110F1E",
"-  c #11141A",
";  c #151A1E",
":  c #0E1423",
">  c #0E1A29",
",  c #131425",
"<  c #161C22",
"1  c #151B2E",
"2  c #181A29",
"3  c #1B1A35",
"4  c #1C1D3A",
"5  c #1D1730",
"6  c #1A2228",
"7  c #1C2332",
"8  c #222A2E",
"9  c #212732",
"0  c #242C34",
"q  c #242D38",
"w  c #2A353D",
"e  c #26323A",
"r  c #1D2544",
"t  c #1D304C",
"y  c #272645",
"u  c #292C54",
"i  c #2C3944",
"p  c #293546",
"a  c #253153",
"s  c #313C44",
"d  c #303948",
"f  c #342E64",
"g  c #373F67",
"h  c #36396B",
"j  c #393C75",
"k  c #2B3663",
"l  c #36434C",
"z  c #39464E",
"x  c #3B484E",
"c  c #344653",
"v  c #3A4352",
"b  c #3D4B53",
"n  c #3A465B",
"m  c #3B447C",
"M  c #3E5368",
"N  c #3D507F",
"B  c #414E56",
"V  c #44535A",
"C  c #434968",
"Z  c #414775",
"A  c #4B5C65",
"S  c #485465",
"D  c #465874",
"F  c #53646C",
"G  c #55686D",
"H  c #566B74",
"J  c #5D7279",
"K  c #57717D",
"L  c #62757C",
"P  c #443D82",
"I  c #434E91",
"U  c #445596",
"Y  c #504490",
"T  c #495CA5",
"R  c #5D5CA6",
"E  c #496098",
"W  c #5B6F91",
"Q  c #5D7583",
"!  c #5B779F",
"~  c #556A88",
"^  c #4B60A9",
"/  c #4E71B8",
"(  c #5A6CAA",
")  c #526BB4",
"_  c #5A75BA",
"`  c #645CBA",
"'  c #6C58B4",
"]  c #715EB7",
"[  c #61638E",
"{  c #6A7D86",
"}  c #667C86",
"|  c #697B96",
" . c #6663BC",
".. c #6D62BA",
"X. c #6E68BF",
"o. c #6A74AF",
"O. c #6D79B5",
"+. c #7169BF",
"@. c #707DA2",
"#. c #577BCE",
"$. c #587ED0",
"%. c #6F77C7",
"&. c #716FC4",
"*. c #7879C6",
"=. c #6668C1",
"-. c #6C828A",
";. c #698091",
":. c #738C99",
">. c #77939A",
",. c #688AA7",
"<. c #6A85B7",
"1. c #7787A6",
"2. c #7C8EB5",
"3. c #7894AA",
"4. c #7B98B7",
"5. c #538AD7",
"6. c #568CD8",
"7. c #5B83D2",
"8. c #5C8AD5",
"9. c #5A8DD8",
"0. c #5283D4",
"q. c #5B93DA",
"w. c #5887C5",
"e. c #5E9DE0",
"r. c #6E84CE",
"t. c #668BC9",
"y. c #648BD6",
"u. c #6B86D1",
"i. c #688BD2",
"p. c #6796DA",
"a. c #7784CE",
"s. c #738BD2",
"d. c #7788D0",
"f. c #7697C8",
"g. c #7B94D6",
"h. c #7698DA",
"j. c #659FE0",
"k. c #6FA5DD",
"l. c #74A0DF",
"z. c #7FA5D6",
"x. c #7CA4DA",
"c. c #68A1E1",
"v. c #7CACE4",
"b. c #75A6E2",
"n. c #809BA8",
"m. c #849ABC",
"M. c #85A3AD",
"N. c #88A3AF",
"B. c #84A5BC",
"V. c #8CA5B6",
"C. c #93ADBB",
"Z. c #94B2BA",
"A. c #848BCF",
"S. c #8282C9",
"D. c #828CD0",
"F. c #8995D5",
"G. c #8598D6",
"H. c #9190CF",
"J. c #939CD6",
"K. c #969ED8",
"L. c #9498D4",
"P. c #84A0CF",
"I. c #8AABC5",
"U. c #84A4DC",
"Y. c #8AA3DB",
"T. c #87A9D6",
"R. c #87B2DA",
"E. c #95A9C9",
"W. c #94AADE",
"Q. c #9AA4D9",
"!. c #9BABDE",
"~. c #93A5D7",
"^. c #94B6CC",
"/. c #9FBDC7",
"(. c #9AB7C7",
"). c #93B9DD",
"_. c #96B6D2",
"`. c #83A7E1",
"'. c #88ADE3",
"]. c #85B3E6",
"[. c #8BB3E5",
"{. c #8FBDE6",
"}. c #8BBAE9",
"|. c #95ADE1",
" X c #9BACE0",
".X c #96B5E5",
"XX c #97BAE3",
"oX c #98B9E6",
"OX c #A1A4D9",
"+X c #A3ADDD",
"@X c #ACACDD",
"#X c #A1A4D7",
"$X c #A4BBDB",
"%X c #ABB1DF",
"&X c #A6B4D7",
"*X c #BBB3DD",
"=X c #BFB8DE",
"-X c #A4B6CC",
";X c #A3B4E2",
":X c #A2BCE5",
">X c #ABB4E1",
",X c #ABBCE4",
"<X c #B2B4E0",
"1X c #B6BBE2",
"2X c #BABAE2",
"3X c #8DC6E7",
"4X c #9AC5E8",
"5X c #ABCCD6",
"6X c #A7C6D7",
"7X c #ADD2DE",
"8X c #B3D1DC",
"9X c #A5C9E6",
"0X c #ACC5E4",
"qX c #A8C8EA",
"wX c #ADD3ED",
"eX c #A8D0E7",
"rX c #A9D5F1",
"tX c #B4CCE5",
"yX c #B3CCEA",
"uX c #BBC3E5",
"iX c #B7C8E7",
"pX c #B4D7E1",
"aX c #B5D3EC",
"sX c #B6DAE4",
"dX c #BBD5E5",
"fX c #BBD6ED",
"gX c #BCDAEB",
"hX c #BCD8E6",
"jX c #B5DBF1",
"kX c #BCDDF1",
"lX c #BCD4F0",
"zX c #BBE4F5",
"xX c #C6BDE1",
"cX c #C5C3E4",
"vX c #C7CEEB",
"bX c #CEC6E5",
"nX c #CCCDEA",
"mX c #C8CAE6",
"MX c #C4D3EC",
"NX c #C3DCEE",
"BX c #CCD4EE",
"VX c #CDD8EE",
"CX c #C2DCF1",
"ZX c #CAD6F1",
"AX c #CDDCF1",
"SX c #C3D7F1",
"DX c #D0D5EE",
"FX c #D1DAF1",
"GX c #C2E1EF",
"HX c #C3E4F3",
"JX c #C4E8F7",
"KX c #CCE4F5",
"LX c #C9EAF6",
"PX c #CCECF9",
"IX c #C0E9F8",
"UX c #D0E6F6",
/* pixels */
"                                                                                      ",
"                                                                                      ",
"        .                                 .                                           ",
"      . .   . X . . .     .   . . . . .     X                                         ",
"  .   . . . X @ . . . .   .   . . . X X .                                             ",
"    X X X @ @ * = # # . + X @ X # # @ @ @ @ X X .                                     ",
"X & e v i p d n g q , % $ @ % > q i i d i e 6 @                                       ",
"X l :.2.1.@.@.1.2.@.C 3 , : 6 b | ,.,.,.,.,.Q l @ .                                   ",
"& F ^.a.=. .` ..O.%XV.Z a a D 3.t.8.6.6.9.i._.-.< .                                   ",
"X z V.J.=.` ` ` ] K.0XO.I U 4.z.q.9.6.5.7.U.fX:.< . .                                 ",
"o < -.).*.` ` ' ' S.0X).<.f.XXb.q.q.9.y.r.0X5XG - .                                   ",
". $ B (.~. .` ' ] &.W.gX).4X{.j.e.p.i.r.Y.gXN.s O . .                                 ",
". O 9 >.$X*.` ..+.&.g.aXIXrX].j.k.p.s.d.tXpX} 2 . .   .                               ",
". o , D -XK...X.%.r.d..XJX4Xb.b.h.h.d.+XCX(.v % + . .     . .   .                     ",
"% % 1 g D.,XS.%.s.s.g.`.4X}.v.`.G.F.Q.NXfX| 9 # # . . . . . . .     .                 ",
"$ : r m O.5X+Xa.s.g.h.`.}.].[.'.W.K.,XCXE.Z , # # # . X . . . . . X X . . . .         ",
". # 4 j R ~.aXG.s.g.l.].[.}..X XQ.>XCX0XO.h 5 = % % $ * * $ @ @ @ @ & & & X O X .     ",
". + 5 f Y O.9X4Xg.G.`.].}..X;X+X%XiXgX~.o.[ S v s v b V A l 7 6 i v A H A b b x 8 .   ",
"  . = y P ( x.wX`.g.`.]..X:X>X>X1XHXjXG.E.&X-XC.N.V.E.6X^.4.-.H ,.I.5X6XE.m.I.(.-.8 . ",
"    # 3 j T t.3XqX`.`.]..X;X<X1XSXPX9X_.1X=XMXLXcX>XaXgX].3X5XR.s.|.yXG.Y.W.W.tXZ.s . ",
". . + 5 f U / R.kX}.v.[..X%X<XuXPXHXR._.mXcXMXLXyX:XzXrX].4XjXoXd.:X,Xa.0XKXHX8X-.6 . ",
"    + 3 j T w.3XjX}.v.]. X%X<XcXPXHXT.&XMXmXSXSXSXyXzXrX3X{.:XoXG.yXkX~.F.Q.0X6XA O   ",
"  . % u I / p.3X4Xb.b.`. XOX<X2XAXLX6XtXVXAXMXSXlXwXzXrXqX|.;X;XK.gXPXNXtXL.H.8XL & . ",
"  + , h T / h.rXv.j.l.`.K.OX<X2XnXKXgXCXAXKXMXKXlXjXzXqXrX|.,X>X!.fXtXhXMXQ.Q.8XL -   ",
". . , j T _ R.{.j.j.p.G.J. X<X2XcXVXPXKXLXJXzXPXjXzXIXwXHXaXhX,X0XfX+X#XOX,XgX6XB @   ",
". . , k U t.).k.e.p.h.D.H.OX@X2XcXnXUXPXHXpX^.^.pXjX8X7X/.N.N./.hXhXhXdXhXhXZ.G <     ",
". + : r D f.U.q.9.p.s.A.L.OX@X<XxXbXAXHX9X4.M M H Q J H B w w V L { { { -.J z ; .     ",
". # % 3 ~ T.p.9.8.u.a.L.,X%X@X*XxXbXDXLX9X! t > : : * & o o o o % & - & & O .         ",
". + $ p 3.z.8.5.y.u.a.;XLXiX@X*XxXbXDXUXzX1.t : $ X . . . . .   .   . . .             ",
". . * S m.i.0.6.8.u.D.aXPXCX*X*XxXbXDXFXLXC.c : @ o . .   . .     .                   ",
". # 0 ;.f.7.5.6.y.s.!.HXwXeXiX=XxXnXDXVXKX5XK 6 @ . . . .                             ",
". - S I.t.0.5.6.p.g.fXjXP.P.iXcXcXnXDXDXAXzXV.c $ .   .                               ",
"# q :.U.$.0.5.9.p.oXHXI.( o.$XMXmXvXBXDXVXHXsX>.0 .                                   ",
"$ b 4.i.#.0.6.y.U.lX9XW j m 1.dXvXvXMXBXZXZXJX5XV O   .                               ",
"O l 3.Y.U.R.R.).9XsX3.d 4 4 C N.MXMXNXNXgXzXGX5XV O                                   ",
". ; A n.M.M.M.M.n.-.l - % $ , v :.N.N.N.N.N.M.L 8 . .                                 ",
"  . - 0 w w w i e 6 & o . . O & 7 w w w e e e 6 O                                     ",
"  . . . O . O O o o o . o . . . X @ @ X X X . . .                                     ",
"    . . . . . . .   .     . . . .   X   X                                             ",
"                .     .         .     X                                               ",
"                                                                                      ",
"                                                                                      ",
"                                                                                      "
};
