/* XPM */
static char *xmms-liknockzr2[] = {
/* columns rows colors chars-per-pixel */
"43 43 129 2",
"   c #870000",
".  c #8C0100",
"X  c #940000",
"o  c #950900",
"O  c #9D0000",
"+  c #A40000",
"@  c #AC0100",
"#  c #AE0B00",
"$  c #A81B00",
"%  c #B30000",
"&  c #BC0100",
"*  c #BC0C00",
"=  c #B41400",
"-  c #B41B00",
";  c #BB1600",
":  c #BE1C01",
">  c #AA2700",
",  c #B72700",
"<  c #B42D00",
"1  c #BB2B00",
"2  c #BD4300",
"3  c #C30000",
"4  c #C50900",
"5  c #CB0100",
"6  c #C81A00",
"7  c #D30000",
"8  c #D60C00",
"9  c #DC0000",
"0  c #DA0900",
"q  c #D61100",
"w  c #D71900",
"e  c #DD1300",
"r  c #DB1800",
"t  c #C62400",
"y  c #C92500",
"u  c #C73100",
"i  c #C73A00",
"p  c #D72900",
"a  c #DC2A00",
"s  c #D13900",
"d  c #DC3100",
"f  c #E30100",
"g  c #E50E00",
"h  c #E90100",
"j  c #E80900",
"k  c #E21000",
"l  c #E71E00",
"z  c #EA1600",
"x  c #EE1A00",
"c  c #E12300",
"v  c #E52C00",
"b  c #ED2400",
"n  c #EA2C00",
"m  c #E53600",
"M  c #E53D00",
"N  c #EA3300",
"B  c #EC3B00",
"V  c #F22A00",
"C  c #C54A00",
"Z  c #C45400",
"A  c #CB5900",
"S  c #D24500",
"D  c #D64D02",
"F  c #DD4C00",
"G  c #D05600",
"H  c #D35800",
"J  c #DA5500",
"K  c #DC5F00",
"L  c #CD6900",
"P  c #DF7600",
"I  c #DE7D00",
"U  c #E34700",
"Y  c #ED4700",
"T  c #EC5C00",
"R  c #F24100",
"E  c #F44900",
"W  c #F35301",
"Q  c #F45C00",
"!  c #FD5300",
"~  c #FE5D00",
"^  c #E26200",
"/  c #E46D00",
"(  c #EA6A00",
")  c #E47500",
"_  c #F46300",
"`  c #F36A00",
"'  c #FE6600",
"]  c #FE6C01",
"[  c #F27C00",
"{  c #FE7300",
"}  c #FE7B00",
"|  c #D48400",
" . c #E48300",
".. c #EB8200",
"X. c #EC8900",
"o. c #EA9400",
"O. c #EF9901",
"+. c #F18600",
"@. c #F28800",
"#. c #FE8300",
"$. c #FE8B00",
"%. c #F29D00",
"&. c #FE9300",
"*. c #FE9C00",
"=. c #E4A900",
"-. c #EFA400",
";. c #E9AF00",
":. c #F3A100",
">. c #F1A900",
",. c #FEA300",
"<. c #FEAB00",
"1. c #F5B700",
"2. c #FEB400",
"3. c #FEBB00",
"4. c #FEC400",
"5. c #FECB00",
"6. c #F1D100",
"7. c #FED400",
"8. c #FEDC00",
"9. c #FEE400",
"0. c #FEEB00",
"q. c #FEF300",
"w. c #FFFC00",
"e. c #FFF1DF",
"r. c #F7E7E7",
"t. c #FEEFE5",
"y. c #FEF2E6",
"u. c #FFF1E8",
"i. c #FFFDFC",
/* pixels */
"i.y.u.u.u.u.u.u.u.u.u.y.y.y.u.u.y.t.e.e.y.t.e.e.e.e.y.y.y.t.u.r.r.r.u.t.u.u.u.u.u.u.i.",
"t.' ] ' ' ' ' ' ' ' ] { } } #.#.$.$.&.&.&.&.&.&.&.&.$.#.{ ' ~ : + @ W ' ' ' ' ' ] ~ u.",
"u.' ] ] ] ] { ] { { } #.#.&.&.*.*.,.,.<.<.<.<.<.<.,.*.&.{ #.D + % & Y ' ' ] ] ] ] ' u.",
"u.' ] ] ] ] ] { } } #.$.&.*.,.,.<.2.2.2.3.3.2.3.2.2.,.$.$...- @ & 3 v ' ] ] ] ] ] ' u.",
"y.' ] ] ] ] { } #.#.&.*.,.<.2.2.3.4.4.5.5.5.5.4.4.3.<.$.,.G + % & 5 r ] { { ] ] { ' u.",
"y.' ] ] { { { #.$.&.*.,.<.2.3.4.5.7.7.7.8.8.8.8.7.4.<.2.o.# % 3 5 7 N } } } { ' ] ] u.",
"y.' ] ] { { #.$.&.*.,.<.3.4.5.7.8.9.9.0.9.0.0.0.8.4.2.4.C @ & 3 7 e { #.#.} } { { ' u.",
"y.' ] { } #.$.&.*.,.<.2.3.4.7.9.0.0.0.q.q.q.q.0.8.4.7.;.@ & 3 5 7 _ $.$.&.$.} } { ' u.",
"t.' { { } $.&.*.*.,.,.J - o.7.9.q.q.w.w.w.w.w.0.7.5.8., % 3 5 7 M &.*.*.*.&.#.} } ] u.",
"e.' { } #.&.*.,.,.,.@.% % %  .0.q.w.w.w.w.w.q.9.4.0.| @ & 3 7 9 $.2.<.2.<.*.&.#.} ] u.",
"y.] } #.$.*.,.,.*.2. .& 4 & * :.0.q.q.w.w.q.0.7.7.6.# % 3 5 7 _ 2.3.4.3.2.<.*.$.#.{ u.",
"t.] } #.&.,.<.<.,.3.^ 5 5 3 3 y 1.0.q.q.q.0.7.3.0.Z @ & 5 7 c >.5.5.7.5.3.<.*.&.$.{ u.",
"y.{ #.$.*.<.2.2.<.5./ 7 7 7 5 3 s 4.9.9.9.7.3.5.=.# % 3 5 9 [ 7.7.8.8.7.4.2.,.*.$.} u.",
"y.{ #.&.,.2.3.3.2.7.7.N 9 9 7 7 & J 7.4.5.3.<.5., + & 3 5 U 4.7.0.q.0.8.5.4.<.,.&.#.u.",
"y.} $.*.,.3.4.4.3.4.q.<.z f 9 7 5 & K 3.<.*.4.L + % & 5 8 @.7.8.q.q.q.9.7.5.2.<.*.#.u.",
"t.} &.*.<.3.5.7.5.4.9.w.@.j f 9 7 & * / *.,.O.$ + % 3 5 U 5.7.0.q.q.q.9.8.5.3.<.*.$.u.",
"i.#.&.,.<.4.7.7.8.7.5.0.0._ f f 9 5 & = ..2.1 o % & 5 w :.4.8.q.w.w.q.q.9.5.3.2.,.$.u.",
"r.#.*.,.2.5.7.9.0.9.7.5.0.8.R f 9 5 & + 1 A o O % 3 5 T 2.4.9.q.w.w.w.q.9.7.4.2.,.&.u.",
"u.#.*.,.3.5.8.0.q.q.9.5.5.9.3.b 9 7 3 % O     + % 3 w ,.<.7.0.q.w.w.w.q.0.7.5.2.<.&.u.",
"u.#.*.<.3.5.8.0.q.q.q.8.4.5.7.&.g 7 5 % O   X + & 5 ` *.2.7.0.q.w.w.w.q.0.7.5.3.<.*.u.",
"u.#.*.<.3.5.8.0.q.w.w.q.7.2.4.5.` 9 5 % O   X @ & d $.*.3.7.0.q.w.w.w.q.0.8.4.3.<.&.u.",
"u.$.*.<.3.5.8.0.w.w.w.q.9.4.<.3.<.Y 5 % O   X @ 4 { #.,.4.8.0.q.w.w.w.q.0.8.5.3.<.&.u.",
"u.#.*.<.3.5.8.0.q.w.w.q.0.7.2.<.2.&.a % O   X @ 4 } $.<.5.8.0.q.w.w.w.q.0.7.5.3.<.&.u.",
"y.#.*.<.3.5.8.0.q.w.w.w.q.8.4.,.3.*.p % O   X @ & a &.<.5.8.0.q.w.w.q.q.0.8.4.3.<.&.u.",
"y.#.*.,.2.4.8.9.q.q.w.w.w.9.4.<.4.` 3 % O   X @ 3 7 B 2.5.9.0.w.w.w.w.q.9.7.4.2.,.&.u.",
"y.#.&.,.2.4.7.9.q.w.w.w.q.9.4.3.4.q 3 @ X   X @ & 7 9 Q 5.8.0.w.w.w.q.q.9.7.3.2.,.&.u.",
"y.} &.*.<.3.5.8.0.q.w.w.q.8.3.7.( 5 & @ X . o @ & 7 9 j #.8.0.w.w.w.q.0.8.5.3.<.,.$.u.",
"y.} $.*.<.3.4.8.9.q.q.q.q.5.5.5.q 5 & @ . Z G + & 5 9 f z <.0.q.w.q.q.9.7.4.2.<.*.#.u.",
"u.{ $.&.,.2.3.7.8.0.q.q.8.4.0.U 5 5 & O > O.<.i % 5 7 f f V 4.q.q.q.0.8.5.4.<.,.&.#.u.",
"y.{ #.$.*.<.3.4.7.9.9.9.4.0.:.0 5 3 % + | 0.7.1.t 3 7 9 f h E 7.0.9.8.7.4.2.<.*.$.} u.",
"y.] } $.&.,.<.4.5.7.8.5.4.9.M 7 5 & @ 2 9.7.9.0.>.4 5 7 9 f f _ 7.8.7.5.3.2.*.&.$.} u.",
"y.' } #.&.*.,.2.4.5.5.<.9.[ 9 7 5 & = ;.5.4.4.9.w.o.3 7 7 9 9 g <.8.5.4.2.,.*.$.#.{ u.",
"y.' { } #.&.*.<.2.3.<.3.2.l 9 5 3 & A 7.7.8.7.4.0.q.) & 5 7 7 r :.5.4.2.<.*.&.$.} ] u.",
"y.' { { #.#.&.,.,.,.*.4.W 9 0 5 & ; 4.5.0.0.9.7.4.q.9.J & 5 3 U <.3.2.<.,.&.#.} } ' u.",
"u.' ] { } #.$.&.&.$.,.$.f 9 7 3 & I 4.7.0.q.0.9.4.4.9.8.P y J ,.<.<.<.,.&.$.#.} { ' u.",
"y.' ] ] { } #.#.#.} &.B 9 9 5 3 u 2.4.8.9.0.0.8.7.3.2.3.3.2.,.*.,.,.*.&.$.} } { ] ' u.",
"y.' { ' { { { } { #.{ 9 9 5 3 & X.<.4.7.8.8.8.8.7.4.2.,.*.*.*.*.,.*.&.$.#.} { ] ] ' u.",
"u.' ] ] ] ] { ' ' { n 9 7 5 & S &.,.2.5.5.5.5.5.4.3.3.<.,.,.*.*.*.$.#.#.{ { ] ] ] ' u.",
"u.' { ] ] ] ' ' ' ] e 5 5 3 ; [ $.,.2.2.3.3.3.2.3.2.<.<.,.*.*.&.$.#.} } { ] ] ] ] ' u.",
"u.' ] ] ] ] ' ' ! ' N 3 4 % F } $.*.,.<.<.<.<.<.<.,.,.*.&.&.$.$.#.} { { ] ] ] ] ] ' u.",
"u.] ] ] ] ] ] ~ ! ] W & @ 6 _ } $.&.&.*.*.*.*.*.*.&.&.&.$.$.#.} } { { ] ] ] ] ] { ' u.",
"u.' ] ' ' ' ' ~ ! ! ~ p 6 W ~ ] } #.#.#.#.$.$.$.#.#.#.} } } ] ' ] ' ' ' ' ] ' ' ' ' u.",
"i.u.u.u.u.u.u.u.u.u.u.t.u.u.u.u.u.u.u.u.u.u.u.u.u.u.u.u.u.u.u.u.u.u.u.u.u.u.u.u.u.u.i."
};
