/* XPM */
static char *xmms-liknockzr3[] = {
/* columns rows colors chars-per-pixel */
"43 43 244 2",
"   c #760000",
".  c #7B0000",
"X  c #850000",
"o  c #970000",
"O  c #960A02",
"+  c #9B0000",
"@  c #911111",
"#  c #A40001",
"$  c #AC0100",
"%  c #AE0B00",
"&  c #A81B00",
"*  c #B30100",
"=  c #BC0100",
"-  c #BC0C00",
";  c #B41400",
":  c #B41B00",
">  c #BB1600",
",  c #BD1B00",
"<  c #A62700",
"1  c #B72700",
"2  c #B42D00",
"3  c #BF2300",
"4  c #BC2D02",
"5  c #B93900",
"6  c #A23333",
"7  c #B62B2B",
"8  c #B13030",
"9  c #BD4300",
"0  c #B04E59",
"q  c #BC6D6D",
"w  c #BF706F",
"e  c #C30000",
"r  c #C40A00",
"t  c #CB0100",
"y  c #CE0805",
"u  c #C71F00",
"i  c #D30100",
"p  c #D60C00",
"a  c #DC0100",
"s  c #DA0904",
"d  c #DC0B0A",
"f  c #D61008",
"g  c #D71902",
"h  c #DC1300",
"j  c #DE1900",
"k  c #C72804",
"l  c #C92300",
"z  c #C73100",
"x  c #D72F00",
"c  c #D13900",
"v  c #C32C2D",
"b  c #CD2323",
"n  c #D53434",
"m  c #E30000",
"M  c #E40A02",
"N  c #E90200",
"B  c #E21000",
"V  c #E71E00",
"C  c #EA1600",
"Z  c #E12300",
"A  c #E52C00",
"S  c #ED2401",
"D  c #EA2C00",
"F  c #E43402",
"G  c #E53D00",
"H  c #EA3300",
"J  c #EC3B00",
"K  c #EA3B0B",
"L  c #F22A00",
"P  c #C54A00",
"I  c #C45400",
"U  c #CB5900",
"Y  c #D24500",
"T  c #D64C00",
"R  c #DD4C00",
"E  c #D05600",
"W  c #D45901",
"Q  c #DA5500",
"!  c #DC5F00",
"~  c #CD6900",
"^  c #DF7600",
"/  c #DE7D00",
"(  c #E34500",
")  c #EE5006",
"_  c #EC5D01",
"`  c #F24101",
"'  c #F44900",
"]  c #F35500",
"[  c #F35B00",
"{  c #FD5500",
"}  c #FE5B00",
"|  c #E26200",
" . c #E46D00",
".. c #EA660C",
"X. c #E96A00",
"o. c #E47500",
"O. c #F46300",
"+. c #FE6400",
"@. c #FE6D00",
"#. c #F17505",
"$. c #F27C00",
"%. c #FE7300",
"&. c #FE7B00",
"*. c #C46E6D",
"=. c #C3706F",
"-. c #C37171",
";. c #C37778",
":. c #C57A78",
">. c #D48501",
",. c #E48300",
"<. c #EB8200",
"1. c #EC8900",
"2. c #EA9400",
"3. c #EF9901",
"4. c #F18600",
"5. c #F28800",
"6. c #FE8300",
"7. c #FE8B00",
"8. c #FF8A0A",
"9. c #F39E00",
"0. c #FE9300",
"q. c #FE920F",
"w. c #FE9B00",
"e. c #F28236",
"r. c #F99134",
"t. c #FE9F3B",
"y. c #E4A900",
"u. c #EFA400",
"i. c #E9AF00",
"p. c #F3A205",
"a. c #F1A900",
"s. c #FEA300",
"d. c #FEAB00",
"f. c #FEAD09",
"g. c #F5B700",
"h. c #FEB400",
"j. c #FEB60C",
"k. c #FEBB00",
"l. c #FEBD0D",
"z. c #FFAB2B",
"x. c #F1AD5A",
"c. c #FFBF46",
"v. c #FEC400",
"b. c #FDC40C",
"n. c #FECB00",
"m. c #FFCF1B",
"M. c #F1D100",
"N. c #FED400",
"B. c #FEDC00",
"V. c #FFD90B",
"C. c #FFDC1E",
"Z. c #FFCF2E",
"A. c #FFCD33",
"S. c #FFD42A",
"D. c #FED732",
"F. c #FEE400",
"G. c #FEEB00",
"H. c #FFE313",
"J. c #FFEB13",
"K. c #FFEB1B",
"L. c #FEF300",
"P. c #FFF40C",
"I. c #FEFB00",
"U. c #FFFC0F",
"Y. c #FFFE16",
"T. c #FFF81C",
"R. c #FFE22D",
"E. c #FFEC27",
"W. c #FFE430",
"Q. c #FFEE34",
"!. c #FFF62C",
"~. c #FFFC2D",
"^. c #FFF735",
"/. c #FFF03F",
"(. c #FFFC35",
"). c #FFFB3E",
"_. c #FCC04E",
"`. c #FFCC5B",
"'. c #FFD843",
"]. c #FFD051",
"[. c #FFD25A",
"{. c #FEDF52",
"}. c #FFD864",
"|. c #FFE442",
" X c #FFE654",
".X c #FFE85F",
"XX c #FFFA46",
"oX c #FFFC4F",
"OX c #FFFE5E",
"+X c #FFE564",
"@X c #FEED64",
"#X c #FEED6C",
"$X c #FFF962",
"%X c #FFFD6E",
"&X c #FFF473",
"*X c #FFFB74",
"=X c #FFFE7A",
"-X c #CB8D8D",
";X c #D28D8D",
":X c #DEB9B9",
">X c #E6A4A4",
",X c #EFB7B8",
"<X c #F6AAA9",
"1X c #F8CDBF",
"2X c #FEE688",
"3X c #FFFC84",
"4X c #FFFA8C",
"5X c #FFF69B",
"6X c #FFFA95",
"7X c #FFF99F",
"8X c #FCE6A9",
"9X c #FEEDAE",
"0X c #FEECB1",
"qX c #FFF3B6",
"wX c #FFF3B9",
"eX c #FFFEBB",
"rX c #E6C1CC",
"tX c #ECD1D1",
"yX c #F2CBCD",
"uX c #FAC4CA",
"iX c #F7D4CE",
"pX c #F8D5CC",
"aX c #F3D6D6",
"sX c #F5D9D9",
"dX c #FCDBDC",
"fX c #F6DEE0",
"gX c #FFE5C4",
"hX c #FFEFC8",
"jX c #FDE0D2",
"kX c #FEEFD3",
"lX c #FFF2C0",
"zX c #FFFDC4",
"xX c #FFFCCC",
"cX c #FFF1D3",
"vX c #FFF4D9",
"bX c #FFFBD4",
"nX c #FFFCDB",
"mX c #F7E7E7",
"MX c #F9EAEA",
"NX c #FFF7EE",
"BX c #FFFBE4",
"VX c #FFFCEB",
"CX c #FFFDF4",
"ZX c #FEFEFE",
/* pixels */
"@.@.@.@.@.@.@.@.@.@.@.%.%.%.&.&.&.6.7.7.7.7.7.7.6.6.&.&.&.@.+.] > u +.@.@.@.@.@.@.@.@.",
"@.@.@.@.@.@.@.@.@.@.%.%.&.&.6.7.0.0.0.0.w.w.0.w.w.0.0.6.&.@.+., # * [ +.@.@.@.@.@.@.@.",
"@.@.@.@.@.@.@.@.%.%.&.6.7.7.0.0.w.s.s.d.s.d.d.d.s.s.w.0.&.&.T # * = J +.+.@.@.@.@.@.@.",
"@.@.@.@.@.@.@.%.&.&.6.7.0.w.s.d.d.d.h.h.k.h.k.h.k.d.d.7.7.<.: $ = e A @.@.@.@.@.@.@.@.",
"@.@.@.@.@.@.%.&.&.7.0.w.s.d.d.k.v.v.v.v.n.n.n.n.n.k.d.0.s.E # * = t j @.%.%.@.@.@.@.@.",
"@.@.@.@.@.%.&.&.7.0.w.s.d.h.v.v.n.N.N.B.B.B.B.B.N.v.d.h.2.% * e t i H &.%.%.%.@.@.@.@.",
"@.@.@.@.%.&.&.7.0.w.d.d.h.v.n.N.B.F.F.F.G.G.G.F.B.v.d.v.P $ = e i h %.&.6.&.&.%.@.@.@.",
"@.@.@.@.&.6.7.0.w.s.d.d.k.n.N.B.F.G.L.L.L.L.L.G.B.v.N.y.$ = e t i O.7.0.0.7.&.&.@.@.@.",
"@.@.%.%.&.7.0.w.s.s.s.W : 2.N.F.L.L.I.I.I.I.I.G.N.n.B.1 * e t i G 0.w.s.s.0.7.&.%.@.@.",
"@.@.%.&.6.0.w.s.w.s.5.* * * ,.G.G.I.I.I.I.I.L.F.n.F.>.$ = t i a 0.d.d.d.d.w.0.&.&.%.@.",
"@.%.%.&.7.w.s.d.s.d.1.= r = r a.L.L.I.I.I.L.G.N.N.M.% * e t i _ d.k.v.k.d.s.w.7.&.%.@.",
"@.%.&.7.0.s.d.d.s.k.| t t e e l g.G.L.L.L.G.B.k.F.I $ = t i x d.n.n.N.n.v.d.s.0.7.&.%.",
"@.&.&.0.w.d.d.h.d.v.X.i i i t e c v.B.F.F.N.k.n.y.% * e t i $.N.N.F.B.N.v.h.s.w.7.&.&.",
"%.&.6.0.s.d.k.k.d.N.N.A a a i t e Q N.n.n.k.s.n.2 $ = e i G v.N.G.G.F.B.N.v.d.s.0.6.&.",
"%.&.0.w.d.k.v.v.v.k.I.h.C m a i t e ! k.d.w.v.~ + * e t p 1.N.B.L.L.G.F.N.v.h.s.w.7.&.",
"%.&.0.w.d.k.n.N.N.v.B.I.5.N m a i e %  .w.s.3.& # * e t ( n.n.L.I.I.L.G.B.n.k.d.w.0.&.",
"&.6.0.s.d.v.N.B.B.N.v.G.L.[ m m i t = ; <.d.9 + $ = t g 9.k.B.L.I.I.I.G.F.N.v.d.s.0.6.",
"&.7.0.s.h.n.N.F.G.F.N.n.G.F.` m a t e # 4 W O + * e t _ k.v.F.I.I.I.I.L.F.N.v.d.s.0.7.",
"&.7.0.d.k.v.B.F.L.L.F.n.n.B.k.S a i e $ + . X + * e g w.f.N.F.L.I.I.I.L.F.B.v.h.d.0.7.",
"&.7.w.d.b.S.D.Q.^.^.!.W.A.D.S.0.M i b v 8 6 6 7 v n e.z.j.N.G.L.Y.~.(.^.E.V.n.k.d.0.7.",
"&.7.w.f.].BXBXeXeXnXVXxXqXkX9XA.O.d ,XMXtX,XtXmXdX1XgXkX}.V.F.P.%XnXeXzXbX+Xb.k.d.w.7.",
"&.0.w.s.[.ZXBX/.^.bXZX6XH.2XNX9Xf.) yXZX-X@ -XZXsXr.t.vXvX XF.$XnXbX(.XXbXzX'.k.d.0.7.",
"&.7.w.s.[.CXbXJ.L.zXZX=XG.+XZXvXj.0.aXZX*.  q ZXyX&.8.cXZX#XG.4XZXeXI.L.K.|.m.h.d.w.7.",
"&.8.w.s.[.ZXvXK.L.zXZX=XG.#XZXcXl.w.pXZX-.. w ZXyXx q.cXZX+XG.T.3XCXxXxX7XC.v.k.s.0.7.",
"&.7.w.w.`.ZXvXJ.L.zXZX=XL.@XZXcXb.#.yXZX-.. w ZXyXy K bXZX@XG.I.Y.OX*X3XCXwXD.d.d.0.7.",
"&.6.0.w.`.ZXbXH.L.zXZX=XL.@XZXcXb.g yXZX-.  w ZXyXy M dXZX+XG.XX=XOXI.J.bXZX[.d.w.0.6.",
"&.6.0.w.`.ZXBXH.G.xXZX3XL.#XZXnX..y aXZX;.. :.ZXsXy d fXZX#XG.oXxXBX$X&XVXwXA.f.w.0.&.",
"%.&.8.w.c.hX9XV.F.7XxX$XG. XhX8Xf t >XyX0 5 x.rX>Xi d <XuX_.G.L.XXzXnXnXwXZ.d.s.w.8.&.",
"%.&.6.0.w.d.k.N.B.G.L.G.B.v.G.( t e * + < 9.s.3 $ t i m m L v.G.L.L.F.N.n.k.d.w.0.6.&.",
"%.&.&.0.w.f.k.v.N.F.J.F.v.G.9.d t e * # >.G.N.g.k e i s M N ' B.G.G.F.V.n.k.d.w.7.6.&.",
"@.%.&.7.0.s.d.v.n.N.B.n.v.B.F i t = * 9 F.N.F.G.a.r t i a m m [ N.B.B.n.k.d.s.0.7.&.%.",
"@.@.&.&.7.w.d.h.v.n.v.h.B.4.a i t = : i.n.v.v.F.I.2.e t a a a B d.N.n.v.d.d.w.0.&.%.@.",
"@.@.%.&.7.0.w.d.h.k.d.k.h.V a i e = U B.n.B.N.n.F.L.o.e t i i h p.n.v.h.d.w.0.6.&.%.@.",
"@.@.@.&.&.7.0.s.s.s.w.v._ a i t = > v.n.F.G.F.N.n.G.F.W e e e ( d.k.h.d.s.0.6.&.%.@.@.",
"@.@.@.%.&.6.7.0.0.7.s.7.m a i t = / v.N.G.L.L.B.v.n.F.B.o.k Q s.d.d.d.s.0.7.&.%.%.@.@.",
"@.@.@.@.%.&.&.6.&.6.0.J m i t e k k.v.B.F.G.G.F.N.k.d.k.v.d.s.w.s.s.s.0.0.&.&.%.@.@.@.",
"@.@.@.@.@.%.%.&.%.&.%.a a i e = 1.d.k.N.B.B.B.B.N.v.h.s.w.w.w.w.w.w.0.7.6.&.%.@.@.@.@.",
"@.@.@.@.@.@.%.@.@.%.A a t t = Y 0.d.k.v.n.n.n.n.v.k.h.d.s.s.s.w.0.0.7.&.&.%.@.@.@.@.@.",
"@.@.@.@.@.@.@.+.+.@.B i t = - $.0.s.d.h.k.k.k.k.k.h.d.d.s.w.w.0.7.6.&.%.%.@.@.@.@.@.@.",
"@.@.@.@.@.@.+.} { @.F e r * R &.7.w.s.d.d.s.d.d.s.s.s.s.w.0.7.6.6.&.&.%.@.@.@.@.@.@.@.",
"@.@.@.@.@.@.@.} { +._ = * u O.%.6.0.0.w.w.w.w.w.w.0.0.0.7.6.&.&.&.%.@.@.@.@.@.@.@.@.@.",
"@.@.@.@.@.@.@.+.} } +.x u ] +.%.&.6.7.7.7.7.7.0.7.7.6.&.&.&.&.%.@.@.@.@.@.@.@.@.@.@.@.",
"@.@.@.@.@.@.@.+.} } { { { } +.@.%.&.&.&.&.&.&.&.&.&.&.%.&.%.@.@.@.@.@.@.@.@.@.@.@.@.@."
};
