/* XPM */
static char *xmms-peter_wagenet[] = {
/* columns rows colors chars-per-pixel */
"43 43 245 2",
"   c #000000",
".  c #010101",
"X  c #020202",
"o  c #030303",
"O  c #040404",
"+  c #050505",
"@  c #060606",
"#  c #070707",
"$  c #080808",
"%  c #090909",
"&  c #0A0A0A",
"*  c #0B0B0B",
"=  c #0C0C0C",
"-  c #0D0D0D",
";  c #0E0E0E",
":  c #0F0F0F",
">  c #101010",
",  c #111111",
"<  c #121212",
"1  c #131313",
"2  c #141414",
"3  c #151515",
"4  c #161616",
"5  c #171717",
"6  c #181818",
"7  c #191919",
"8  c #1A1A1A",
"9  c #1B1B1B",
"0  c #1C1C1C",
"q  c #1D1D1D",
"w  c #1E1E1E",
"e  c #1F1F1F",
"r  c #202020",
"t  c #212121",
"y  c #222222",
"u  c #232323",
"i  c #242424",
"p  c #252525",
"a  c #262626",
"s  c #272727",
"d  c #282828",
"f  c #292929",
"g  c #2A2A2A",
"h  c #2B2B2B",
"j  c #2C2C2C",
"k  c #2D2D2D",
"l  c #2E2E2E",
"z  c #2F2F2F",
"x  c #303030",
"c  c #313131",
"v  c #323232",
"b  c #333333",
"n  c #343434",
"m  c #353535",
"M  c #363636",
"N  c #373737",
"B  c #383838",
"V  c #393939",
"C  c #3A3A3A",
"Z  c #3B3B3B",
"A  c #3C3C3C",
"S  c #3D3D3D",
"D  c #3E3E3E",
"F  c #3F3F3F",
"G  c #404040",
"H  c #414141",
"J  c #424242",
"K  c #434343",
"L  c #444444",
"P  c #454545",
"I  c #464646",
"U  c #474747",
"Y  c #484848",
"T  c #494949",
"R  c #4A4A4A",
"E  c #4B4B4B",
"W  c #4C4C4C",
"Q  c #4D4D4D",
"!  c #4E4E4E",
"~  c #4F4F4F",
"^  c #505050",
"/  c #515151",
"(  c #525252",
")  c #535353",
"_  c #545454",
"`  c #555555",
"'  c #565656",
"]  c #575757",
"[  c #585858",
"{  c #595959",
"}  c #5A5A5A",
"|  c #5B5B5B",
" . c #5C5C5C",
".. c #5D5D5D",
"X. c #5E5E5E",
"o. c #5F5F5F",
"O. c #606060",
"+. c #616161",
"@. c #636363",
"#. c #646464",
"$. c #666666",
"%. c #676767",
"&. c #686868",
"*. c #696969",
"=. c #6A6A6A",
"-. c #6B6B6B",
";. c #6C6C6C",
":. c #6D6D6D",
">. c #6E6E6E",
",. c #6F6F6F",
"<. c #707070",
"1. c #717171",
"2. c #727272",
"3. c #737373",
"4. c #747474",
"5. c #767676",
"6. c #777777",
"7. c #787878",
"8. c #797979",
"9. c #7A7A7A",
"0. c #7B7B7B",
"q. c #7C7C7C",
"w. c #7D7D7D",
"e. c #7E7E7E",
"r. c #7F7F7F",
"t. c #808080",
"y. c #818181",
"u. c #828282",
"i. c #838383",
"p. c #848484",
"a. c #858585",
"s. c #868686",
"d. c #878787",
"f. c #888888",
"g. c #898989",
"h. c #8A8A8A",
"j. c #8B8B8B",
"k. c #8C8C8C",
"l. c #8D8D8D",
"z. c #8E8E8E",
"x. c #8F8F8F",
"c. c #909090",
"v. c #919191",
"b. c #929292",
"n. c #939393",
"m. c #949494",
"M. c #959595",
"N. c #969696",
"B. c #979797",
"V. c #989898",
"C. c #999999",
"Z. c #9A9A9A",
"A. c #9B9B9B",
"S. c #9C9C9C",
"D. c #9D9D9D",
"F. c #9E9E9E",
"G. c #9F9F9F",
"H. c #A0A0A0",
"J. c #A1A1A1",
"K. c #A2A2A2",
"L. c #A3A3A3",
"P. c #A4A4A4",
"I. c #A5A5A5",
"U. c #A6A6A6",
"Y. c #A7A7A7",
"T. c #A8A8A8",
"R. c #A9A9A9",
"E. c #AAAAAA",
"W. c #ABABAB",
"Q. c #ACACAC",
"!. c #ADADAD",
"~. c #AEAEAE",
"^. c #AFAFAF",
"/. c #B0B0B0",
"(. c #B1B1B1",
"). c #B2B2B2",
"_. c #B3B3B3",
"`. c #B4B4B4",
"'. c #B5B5B5",
"]. c #B6B6B6",
"[. c #B7B7B7",
"{. c #B8B8B8",
"}. c #B9B9B9",
"|. c #BABABA",
" X c #BBBBBB",
".X c #BCBCBC",
"XX c #BDBDBD",
"oX c #BEBEBE",
"OX c #BFBFBF",
"+X c #C0C0C0",
"@X c #C1C1C1",
"#X c #C2C2C2",
"$X c #C3C3C3",
"%X c #C4C4C4",
"&X c #C5C5C5",
"*X c #C6C6C6",
"=X c #C7C7C7",
"-X c #C8C8C8",
";X c #C9C9C9",
":X c #CACACA",
">X c #CBCBCB",
",X c #CCCCCC",
"<X c #CDCDCD",
"1X c #CECECE",
"2X c #D0D0D0",
"3X c #D1D1D1",
"4X c #D3D3D3",
"5X c #D4D4D4",
"6X c #D5D5D5",
"7X c #D6D6D6",
"8X c #D7D7D7",
"9X c #D8D8D8",
"0X c #D9D9D9",
"qX c #DADADA",
"wX c #DCDCDC",
"eX c #DDDDDD",
"rX c #DEDEDE",
"tX c #DFDFDF",
"yX c #E0E0E0",
"uX c #E1E1E1",
"iX c #E2E2E2",
"pX c #E3E3E3",
"aX c #E4E4E4",
"sX c #E5E5E5",
"dX c #E6E6E6",
"fX c #E7E7E7",
"gX c #E8E8E8",
"hX c #E9E9E9",
"jX c #EAEAEA",
"kX c #ECECEC",
"lX c #EEEEEE",
"zX c #EFEFEF",
"xX c #F0F0F0",
"cX c #F2F2F2",
"vX c #F6F6F6",
"bX c #F7F7F7",
"nX c #F8F8F8",
"mX c #F9F9F9",
"MX c #FAFAFA",
"NX c #FBFBFB",
"BX c #FCFCFC",
"VX c #FDFDFD",
"CX c #FEFEFE",
"ZX c gray100",
"AX c None",
/* pixels */
"                                                                                      ",
"                % 1 1 1 ; ; %                                                         ",
"            ; r N I Y Y I S x 0 ;                       @ @ ; ; 1 1 ; %               ",
"          % i / e.m.D.D.m.f.1.` x 4 @             % 1 9 r l C J Y W I x 4             ",
"          1 J y.).$X;X;X$X#X].m.*.S 9 @       @ 9 l J ` #.3.y.b.C.C.k.*.C 4           ",
"          9 / C.#XC.;.*.e.C.{.$XU.6.Y r % @ ; r I ;.k.K.).].XX#X$X$XXXC. .i @         ",
"          9 ` D.XXe.0 % 4 l O.Y.$X).y.W h 9 h / a.^.#X$X#X].C.a.y.f.].^.1.l %         ",
"          4 W m.#Xk.i @     1 I b.XX].k. .Y O.b.{.#XK.*.I C l i Y m.XXU.#.h %         ",
"          1 S y.].{.1.h ;     % l 6.XXXXK.b.K.XX].;.x 1 @   @ i y.$X{.y.I 9           ",
"          % i  .m.XX#XC. .S h ; % r #.Y.$X>X;X^. .0       @ i 3.XX{.k./ r @           ",
"            ; l  .k.).$X$XXXm.} r % 4 W Y.8XY.` 4     @ 9 Y a.{.{.k.` i % @           ",
"              1 h W 1.k.K.].$XXXy.x % 4 O.a.I 1     ; C 6.).$X].f.` h ;               ",
"                % 9 l S ` ;.b.{.$Xa.r @ 9 0 %     1 W C.#X{.K.3.Y i ;                 ",
"                    @ 1 9 l } m.>X;X#.;         9 O.Y.#XY.e.` N 9 %                   ",
"                        % r / m.>X3Xy.9       % ` {.8X].3.J r ; @                     ",
"                      @ 9 J e.].#Xa.N %       % } #X8X^.*.x ;                         ",
"AX                    4 S 3.^.{.6.h @     @     0 #.).XXk.W r %                     AX",
"                    ; x *.U.#Xe.i @   % h S r @   9 O.].{.a./ i %                   AX",
"                  % i } m.$XK.C @   4 Y b.].e.i @   0 ;.].{.f./ r %                   ",
"                % 0 Y f.XX].` ; @ i *.^.3X8X$X;.9   @ 0 ;.{.].y.Y 9 @                 ",
"              @ 4 S 6.].#X3.0 % x y.XXXXY.Y.#X). .4     r 6.#X^.1.x ;                 ",
"              ; x ;.Y.$Xf.h @ i f.$X).a.O.O.k.{.).} 1   @ x C.#Xm.W 9                 ",
"            @ r ` m.#XK.J @ 1 #.#X].e.I h h / b.XXU.I %   %  .XX).*.h @               ",
"            % x 1.).].} ;   x K.#Xf.I 9 % % i  .D.#Xk.h @   l K.XXa.C 1               ",
"            4 J f.{.k.r   %  .{.Y. .i %     ; l ;.Y.].O.;   1 6.XXC./ 0 @             ",
"            9 / m.^.O.;   1 1.^.a.J 4 ; 1 ; % 4 J y.).m.l   @ J K.U.#.h % @ @         ",
"          % l ;.Y.K.C @ @ l b.Y.1.C l S / I N h Y 6.U.Y.*.0   9 1.D.6.W N h r ; @     ",
"        % r  .U.$XD.N r N e.#X#Xk.O.;.m.K.K.f.6.f.^.XX;X^.;.i ; W U.].K.b.f.;.S 1     ",
"      @ 0 ` D.#Xf.*.a.f.^.Y.a.{.#X).XX^.6.Y.7X$X>XK.a.7XsX;X .; r 1.k.C.f.m.Y.3.h     ",
"      4 Y m.$X;.9 h gXgXxXa.; U.gXsX#XI % 6.mXlXsXY i wXgXk.J W O.#.;.6.i 0 b.m.N @   ",
"    % x y.$Xy.;   h mXZX#XC i 3XZXwX`     e.ZXcXm.9 ` ZX{.h y.sXmXZXZXcXC.h e.C.C %   ",
"    9 } ).Y.h %   ` mX>X` % N 8XmXb.% % ; D.ZXK.l @ *.ZXU.x Y.#X#X$X;X>X3XXX#Xm.N %   ",
"  ; C k.;X*.% f.0 1.3XC *./ J wXiXN h 6.9 ).C.l k.0 6.ZX3X;.#.#.#.#.N I } 6.#Xb.x %   ",
"@ 0 O.{.b.9  .wXi J W S wX;.O.gX#.9 m.].4 ` x 6.gXl C.7XZXgXwX8XwXwX3X#X` i D.b.x @   ",
"@ l y.XX/ N >XmX6.% N #XZX*.*.].i #.xX8XJ @ *.iXxXh #.;.sXiXiXiXwXiXiXf.; Y ].y.l @   ",
"@ x k.k.l m.xX;XY N ].xXsX}  .` S >XlXK.h O.7XxX>Xl e. .i i i i i h Y i ` ^.Y. .0     ",
"@ h 6.C.f.$X8Xk.1.].>X;X).6.f.a.K.3X$X3.f.$X;X>XC.3.K.3XK.K.U.K.U.U.K.Y.$XU.*.l %     ",
"  9 W y.C.C.m.C.K.m.y.3.f.K.K.K.C.b.m.D.D.k.6.6.b.U.K.D.C.C.m.C.C.C.C.b.6./ h ;       ",
"  @ 0 N J J S J J C l h N J I J J S S J J N h l C J I J C C S S C S C N h 4 %         ",
"    @ % % % ; % % % @ @ @ ; % ; % ; % ; % % @ @ % ; % % % % % % % % % %               ",
"                                                                                      ",
"                                                                                      ",
"                                                                                      "
};
