/* XPM */
static char *xmms_norteo_n[] = {
/* columns rows colors chars-per-pixel */
"43 43 256 2",
"   c #00A00094006D",
".  c #0ABD05CA0013",
"X  c #0B720B6200C9",
"o  c #0B200AF30C0A",
"O  c #06A106A1095D",
"+  c #0EF30EF31091",
"@  c #1A200CAC0000",
"#  c #12F60BDB033D",
"$  c #148614870015",
"%  c #1C9E1CB30077",
"&  c #197B197B0C27",
"*  c #138C137B1463",
"=  c #1C0D1BB71B3E",
"-  c #163816F11A6C",
";  c #1F3B1F3F2279",
":  c #20430F780217",
">  c #2806161E0000",
",  c #26CA1E781249",
"<  c #31D11D680647",
"1  c #204A1F6720D5",
"2  c #252225010024",
"3  c #2BEC2BEC0067",
"4  c #20ED20EE09EA",
"5  c #361126B40381",
"6  c #343834380016",
"7  c #3D8F3D900021",
"8  c #356F356F0D9D",
"9  c #3E7D3E7D13C0",
"0  c #245C244C2466",
"q  c #2B822B892AE9",
"w  c #2AC12AC12659",
"e  c #3E103999284F",
"r  c #33A0339833F3",
"t  c #3B633B423A99",
"y  c #380F2E0B2583",
"u  c #3F683F3540E2",
"i  c #495728ED0000",
"p  c #57F034150537",
"a  c #44D935EA18AF",
"s  c #7FFF3FF90000",
"d  c #63D6397F0D16",
"f  c #44754475001D",
"g  c #4BE44BE6007C",
"h  c #4754451307B3",
"j  c #59C648D20000",
"k  c #545E545E0000",
"l  c #5C925C530072",
"z  c #59B359AD1522",
"x  c #4A664A6726F2",
"c  c #495A48D13B4C",
"v  c #5FD844662C84",
"b  c #574A57502676",
"n  c #58365678355A",
"m  c #66E943D701FD",
"M  c #68235ADE00A5",
"N  c #7CF74C9F006A",
"B  c #75EC445F0376",
"V  c #71905AE70097",
"C  c #6314492723D0",
"Z  c #74F356763304",
"A  c #64BE644F0097",
"S  c #6D046D0000A9",
"D  c #6C456E600CFD",
"F  c #6C116BCD17C9",
"G  c #77A06A9807D7",
"H  c #744873E3012D",
"J  c #7C437C00003E",
"K  c #78B073D406C9",
"L  c #72EC72F72106",
"P  c #6FFF6B573348",
"I  c #4A3E49BF49BE",
"U  c #4D134D9F5126",
"Y  c #542B534C4F2C",
"T  c #52E252D1529B",
"R  c #6C096C6D4E54",
"E  c #693F68906468",
"W  c #6E536E5371CF",
"Q  c #7787774F77B6",
"!  c #75AC75AC66AB",
"~  c #804E809C0000",
"^  c #81AE4BBC0000",
"/  c #8CBD55910000",
"(  c #8FEF58DE0DCF",
")  c #87665B301631",
"_  c #82A770170000",
"`  c #9B196D631580",
"'  c #96507AE603A9",
"]  c #911172C30D64",
"[  c #902771D127A5",
"{  c #AB7653640000",
"}  c #BAA55DB20000",
"|  c #A54968DD02D7",
" . c #A602782902FF",
".. c #B5D9758500DC",
"X. c #B9B47AEB01B0",
"o. c #BE9774771853",
"O. c #A24B73973CC1",
"+. c #C2A4702D0000",
"@. c #C3B77C400376",
"#. c #84428447000A",
"$. c #8D708CFB004D",
"%. c #95028D9605ED",
"&. c #94E594DB0001",
"*. c #9C7B9C8A0000",
"=. c #92EC869B1075",
"-. c #A55C82230000",
";. c #AE599D060000",
":. c #B6D78873044F",
">. c #B9049DCB0000",
",. c #BF7F8FBF2F3C",
"<. c #BDA78B423FAC",
"1. c #A476A4790016",
"2. c #ABF5AC230000",
"3. c #BA0BA773055C",
"4. c #BC17A87A13AE",
"5. c #B3EEB4070000",
"6. c #BCD3BCD50005",
"7. c #92B4925E379F",
"8. c #925789334CE3",
"9. c #93058ABA51E0",
"0. c #90048FE27042",
"q. c #91658EED74F6",
"w. c #962895EC6599",
"e. c #86C286BD7BD3",
"r. c #B4FB8852442E",
"t. c #A8078FCB61AF",
"y. c #A3A7A2D5494D",
"u. c #A71EA720799F",
"i. c #C4E1839C0053",
"p. c #C9B78A7607EE",
"a. c #C6BC9760041B",
"s. c #D3F188890000",
"d. c #D2308E6F12E7",
"f. c #D43D95EE033C",
"g. c #DA03962103F9",
"h. c #C4818BAA18B3",
"j. c #DE3B98732908",
"k. c #D1509B133080",
"l. c #CBDAA3200728",
"z. c #DA2AA8540317",
"x. c #DAC9BEA30000",
"c. c #CAA5AF7011AF",
"v. c #CE4DB8B428B5",
"b. c #CEEEB63A31B8",
"n. c #E5A696900270",
"m. c #EB019C2804C5",
"M. c #EBEAA6E203D9",
"N. c #E9DAB9970550",
"B. c #F60BAE740123",
"V. c #FE44A551007F",
"C. c #FE48ADA30177",
"Z. c #F9B5A8810724",
"A. c #F8BDAD341987",
"S. c #F6B6B45600B4",
"D. c #FDDCB3F700DC",
"F. c #FF48BCCA0077",
"G. c #FD6DB98109D7",
"H. c #EDE0BE4A2675",
"J. c #FE75AF9228F8",
"K. c #FCE4B78629F9",
"L. c #FCC3B9D43B0E",
"P. c #EDDCAA2F2F55",
"I. c #C273971F4F3B",
"U. c #CBAF9F4D739F",
"Y. c #DD82AA7E6511",
"T. c #C91EA2496D53",
"R. c #EB27ADE04553",
"E. c #F7DCAE174603",
"W. c #FB68BA704A69",
"Q. c #FCE5B99E5476",
"!. c #F7DCADA65629",
"~. c #F6C2BB8463C0",
"^. c #FBA2BF237C55",
"/. c #C50DC5120007",
"(. c #CCF9CD060006",
"). c #C9F0C16D0000",
"_. c #DA06C9CC067D",
"`. c #D522D5360007",
"'. c #DCF8DCD50008",
"]. c #DBA7DBA50E83",
"[. c #E50CC767067C",
"{. c #FF12C498005F",
"}. c #FF58CE29007F",
"|. c #F8A8C9C70881",
" X c #F99ACD5B18F8",
".X c #FFDED55B000A",
"XX c #FFF9DC5B000A",
"oX c #FC44D25C17EC",
"OX c #E318C7731779",
"+X c #E84DCBA633D3",
"@X c #F82CDB252B0A",
"#X c #E6D6CCE92C4F",
"$X c #E4A6E4A5004F",
"%X c #EC40EC45006D",
"&X c #EDAEEB371800",
"*X c #FFFDE3F80007",
"=X c #FFFFEB19000B",
"-X c #FB19E36B0D32",
";X c #FFFFF4EE0000",
":X c #FFD4FFAE0022",
">X c #F43AF444048A",
",X c #FBC2FA581437",
"<X c #FEE8E61C3773",
"1X c #DBF1CBF96B92",
"2X c #EC99CEF84C89",
"3X c #FC57C34C6733",
"4X c #F8EDC7C378AF",
"5X c #F9F8D7D6775C",
"6X c #FB81E2B67AAC",
"7X c #880A872F86FB",
"8X c #983197D297E8",
"9X c #AEF49D168248",
"0X c #AF45AF4580B4",
"qX c #ADDFAA43957F",
"wX c #B73FB73F8402",
"eX c #A9A2A8D2A827",
"rX c #BD94AF95A2D3",
"tX c #B4FDB4F0B560",
"yX c #BC7ABC32BC6D",
"uX c #B9E7BACBA990",
"iX c #BD1EBF3CC280",
"pX c #BEDFC1B4C5D3",
"aX c #CCE8B43F979D",
"sX c #D2F1B5A59113",
"dX c #C645B9CBAB3B",
"fX c #C361BBF5B17F",
"gX c #D181D18D9FB3",
"hX c #CB28CB9E9F4C",
"jX c #C7A2C37AB518",
"kX c #D7CBD7D0A958",
"lX c #FB23CBB38853",
"zX c #EDEBD04B9010",
"xX c #EC0FD8EFB329",
"cX c #FA77D56DA5E3",
"vX c #F940DD0AB9D5",
"bX c #E2D5E2D58F33",
"nX c #F966E11CC035",
"mX c #CE0ACE19CDB4",
"MX c #C2D5C25DC20B",
"NX c #D4EFD4F1D4D9",
"BX c #DC59DC2FDC07",
"VX c #F808DF7FC2E1",
"CX c #EDFEE2C5D682",
"ZX c #F949E478C7C9",
"AX c #F89BEA87DC86",
"SX c #F6CDE7B0D776",
"DX c #E438E45CE47B",
"FX c #ED5CED73ED67",
"GX c #F094E97BE2D1",
"HX c #EF56F0B7F2BA",
"JX c #F7DEEDFCE3E8",
"KX c #F84AF0CBE8FC",
"LX c #F813F2C0EF1C",
"PX c #F759F6E0F679",
"IX c #F7ABF86EF9F5",
"UX c #F84BFA69FCD0",
/* pixels */
"              2 '.$X$X>X:X>X$XwXW r         0 U 7Xe ].,X:X:X>X%X$X%X/.X               ",
"            3 2.~ 7 k *.'.7.0 O O               X O c w.&X,X(.A 6 S %               3 ",
"          3 /.#.A l l A h o                           o E y.J l l A f             f %X",
"        6 (.'.H ~ $.$.$.J 7 X                   O = = o $ g ~ $.&.$.l X         f $X:X",
"      6 (.:X'.S ~ 2.6.6.1.J 6 X               O - u T e g $.5.5.1.J f X       g '.:X:X",
"    3 (.:X:X:X1.H &./.'.`.*.H 3                 = U ! z ~ 5.`.6.$.A 2       g '.:X:X:X",
"  2 (.:X:X:X:X%XP A *./.'./.$.l $               = T n J 1.(.(.&.#.7 X     f $X:X:X:X:X",
"3 `.:X:X:X:X:XbXq 2 S *.(.`.5.#.k X             = x S &.(.(.*.S g e.o   7 $X:X:X:X:X:X",
"$X:X:X:X:X:X:Xu.+   3 S 1.(.`.5.#.f X           4 l $.6.(.*.H 6 X t * 6 %X:X:X:X:X:X:X",
":X:X:X:X:X:X:Xw.+   X 7 J 2.'.`.1.H 6         X f ~ 5.`./.&.A %   O q.>X:X:X:X:X:X:X:X",
":X:X:X:X:X:X(.R O     X g #.5.'.(.1.S 3       6 H 1.(./.&.J 7     O c %X:X:X:X:X:X:X(.",
":X:X:X:X:X(.2 ; O     O & A &./.'./.&.A %   2 A &./.(.&.A 6 X       = 1X:X:X:X:X:X5.$ ",
":X:X:X:X/.6   0       O O 3 A *./.'./.&.l 3 l $./.`.1.J f X         - hX:X:X:X:X2.%   ",
":X:X:X(.3     0 O   o t U c 8 S *.(.'./.$.H $./.`./.&.H 8           + u.:X:X:X2.%     ",
":X:X(.3       0     t 7XtX8XY h H 1.`.$X6.1.6.'.6.$.A z + O         * 0.:X:X2.%       ",
":X`.2         0 O * Q yXNXNXtXt f J 5.'.%X`.`./.$.A b E =           O P :X5.%         ",
"`.2           0 O q tXyX8XmXPX7X& k $.5.%X:X'.5.#.L jXiXI           O b 6.$           ",
"X             I o t eXr r W mXmXw f J 2.'.%X(.*.H n eXFX7X            w X             ",
"              E + t 8X  r I eXNXx A &./.$X%X`.1.H b E PXtX=         O q               ",
"            6 ! o t 8XO - q Q 0.D &./.`./.`.%X/.*.A x FXyX1           0             7 ",
"        O 6 `.w.o 0 7Xt   o n D &./.`.6.&.1.`.$X6.#.F yXMX1         O 0           k %X",
"        7 `.:Xw.o * 7X8X, 5 l $.6.`.6.#.A J *.`.`.2.J 8.e.o           q U       l $X:X",
"      7 `.:X:X0X*   U fXP V $.6.`.6.$.l G =.K *.(.(.*.H 9             q eX    l $X:X:X",
"    6 `.:X:X:XgX-   , [ G J 5.'.`.1.J D b.b.] ~ 2.(./.$.l %           0 7X  k $X:X:X:X",
"  6 '.:X:X:X:XkX- $ j M J 2.`.'.(.;.%.v.2X#X4.K #.6.`.5.#.f X         = E g %X:X:X:X:X",
"6 $X:X:X:X:X:XkX= 5 V J 2.`.'.(.2.$.v.2X+XOX[.%.H &.).`.1.K 6         - w.%X:X:X:X:X:X",
"%X:X:X*X*X:X:XkX= j  .3.`.$X`.2.$.4.+XH.OX[._.c.K ' a.(.(.*.S 2       O P ,X:X:X:X:X:X",
":X:X=XD.D.-X:XgXa s.V.N.'.`.2.%.3.#X#XZ.B.z.4.:.i.M.B.z.`.6.$.l 4 O   # C 2X{.XX*X;X:X",
":X:XXXF.D.XX/.8.] B.}.D.x.2.#.4.#XOXM.G.B.X. .f.m.F.}.M.x.`.5.#.z e p  .Z.D.D.D.D.F.3.",
":X;X{.{.{.z.g l a.{.XXD.a.J ' c.l.a.m.{.D.n.f.f.m.{.XXM.;.(.`.2.~ ` A.S.g.p.M.F.{.+.@ ",
":X;XF.{.}.| j J g.{.*XF.:.V  .a.>.p.V.}.{.m.h.,.m.}.*XB.;.5.'.(.;.m.Z.| p < 8.<X' <   ",
":X=XD.XX.X@.M J M.}.XX{.I.9.` X.p.g.D.XX{.m.I.T.A.XX-XS.X.#.6./.l.F.m.<     Y R %     ",
":X*XD.XX.Xg.V ' S.XXXX{.R.rXt.[ | +.G.-X}.P.aXY.F.*X*X{.h.D $.*.a.F.F.X./ N ( O.y     ",
":X}.F.[.N.D.[ ..F.|.c.}.P.uXfXqXu.j.{.XX XA.aXR.F.@X<X{.E.qXL S _ g.S.{.D.B.B.G.m./ # ",
"`...F...-.{.( g.{.k.zX{.J.sXiXiXfXP.|.2X@X|.3XK.}.6X5X{.L.AXuXb 3 < B ..n.n.n.M.{.S.^ ",
"> s.D.B N {.z.|.B.U.xXD.G.sXpXiXaXB.oX1X2X;XoX XG.nXcXD.K.vXPXe.o     . . . # i i.{.s.",
"i V.n.d ) G.XX}.A.CXSXL.C.4XmXMXY.G. XxX5XXX=XF.E.JXAXG.G.lXUXjXC @             N S.C.",
"s V.s.C Z p.XXG.!.LXLX4XC.W.SXDXE.F.J.PXcXG.XXG.lXLXJXQ.D.3XIX4XB.| >     . > i a.{.m.",
"{ V.d.y : X.}.D.cXPXIXcXG.K.ZXPXJ.F.Q.UXvXK.{.Z.ZXIXLXlXC.W.AX~.{.{.X.N N / ..M.}.S.B ",
"} C.o.-   | F.L.AXIXUXVXK.V.cXPXJ.G.^.UXAXW.Z.Q.JXIXIXvXC.K.vXZXL.F.{.F.F.F.F.D.i.m # ",
"d j.p   O i r.xXPXIXIXJXlXQ.ZXIXlXW.vXPXPXvX4XSXPXPXPXJX3X~.SXPXVXr...i.i.../ p > .   ",
"8Xe .   O , 7XNXLXIXPXPXKXJXLXPXGXAXPXPXIXPXLXPXIXPXPXPXKXCXDXFXHXeX, : > : .         ",
"y O       t 8XyXDXFXPXPXIXIXFXDXDXDXHXIXPXIXPXPXFXBXBXBXNXNXmXmXDXmX0                 "
};
